STARTFONT 2.1
COMMENT 
COMMENT  **************************************************************
COMMENT     THIS font is ALPHA version!
COMMENT  **************************************************************
COMMENT 
COMMENT  12x12 JIS X 0213-2000 Kanji Font, Version 0.13 (May 7, 2001)
COMMENT  This bdf font set was designed and rescaled from 
COMMENT  jikan16-2000-[12].bdf and K14-[12].bdf
COMMENT  by
COMMENT     Toshiyuki Imamura <imamura@mbd.sphere.ne.jp>
COMMENT 
FONT -Misc-Fixed-Medium-R-Normal--12-110-75-75-C-120-JISX0213.2000-2
SIZE 12 75 75
FONTBOUNDINGBOX 12 12 0 -2
STARTPROPERTIES 18
FONT_ASCENT 10
FONT_DESCENT 2
COPYRIGHT "Public Domain"
FONTNAME_REGISTRY ""
FOUNDRY "Misc"
FAMILY_NAME "Fixed"
WEIGHT_NAME "Medium"
SLANT "R"
SETWIDTH_NAME "Normal"
ADD_STYLE_NAME ""
PIXEL_SIZE 12
POINT_SIZE 110
RESOLUTION_X 75
RESOLUTION_Y 75
SPACING "C"
AVERAGE_WIDTH 120
CHARSET_REGISTRY "JISX0213.2000"
CHARSET_ENCODING "2"
ENDPROPERTIES
CHARS 2436
STARTCHAR 02-01-01
ENCODING 8481
SWIDTH 960 0
DWIDTH 12 0
BBX 12 12 0 -2
BITMAP
0000
0000
0000
0800
0800
0800
1fe0
1000
2000
4000
0000
0000
ENDCHAR
STARTCHAR 02-01-02
ENCODING 8482
SWIDTH 960 0
DWIDTH 12 0
BBX 12 12 0 -2
BITMAP
0000
7ff0
0200
0200
0400
07c0
0840
0040
0040
0040
0080
0300
ENDCHAR
STARTCHAR 02-01-03
ENCODING 8483
SWIDTH 960 0
DWIDTH 12 0
BBX 12 12 0 -2
BITMAP
0000
7ff0
0200
23e0
2220
2220
3fe0
2020
0020
0020
0040
0180
ENDCHAR
STARTCHAR 02-01-04
ENCODING 8484
SWIDTH 960 0
DWIDTH 12 0
BBX 12 12 0 -2
BITMAP
0000
3fe0
0220
1220
0a20
0420
0620
0a20
1040
6180
0000
7ff0
ENDCHAR
STARTCHAR 02-01-05
ENCODING 8485
SWIDTH 960 0
DWIDTH 12 0
BBX 12 12 0 -2
BITMAP
0000
0040
0840
0840
0840
0840
0840
09c0
0e40
1840
0040
0040
ENDCHAR
STARTCHAR 02-01-06
ENCODING 8486
SWIDTH 960 0
DWIDTH 12 0
BBX 12 12 0 -2
BITMAP
0000
1040
0840
0480
0500
0200
0200
0200
0200
0200
0200
0200
ENDCHAR
STARTCHAR 02-01-07
ENCODING 8487
SWIDTH 960 0
DWIDTH 12 0
BBX 12 12 0 -2
BITMAP
0000
7f80
0080
0880
0880
7f80
0880
0880
7f40
0850
0830
0810
ENDCHAR
STARTCHAR 02-01-08
ENCODING 8488
SWIDTH 960 0
DWIDTH 12 0
BBX 12 12 0 -2
BITMAP
0000
0000
0800
0800
1400
2400
0200
0200
0100
0080
0040
0030
ENDCHAR
STARTCHAR 02-01-09
ENCODING 8489
SWIDTH 960 0
DWIDTH 12 0
BBX 12 12 0 -2
BITMAP
0000
0180
3e00
0400
0400
0400
7ff0
0400
0400
0400
0410
03f0
ENDCHAR
STARTCHAR 02-01-10
ENCODING 8490
SWIDTH 960 0
DWIDTH 12 0
BBX 12 12 0 -2
BITMAP
0000
0800
0800
1100
1100
2200
4200
0480
0440
08c0
0f20
3020
ENDCHAR
STARTCHAR 02-01-11
ENCODING 8491
SWIDTH 960 0
DWIDTH 12 0
BBX 12 12 0 -2
BITMAP
0000
0180
1e00
1040
1380
1e20
1340
1380
1300
2280
2240
4230
ENDCHAR
STARTCHAR 02-01-12
ENCODING 8492
SWIDTH 960 0
DWIDTH 12 0
BBX 12 12 0 -2
BITMAP
0000
0040
0380
3e00
0220
0b40
1380
6300
0a80
1240
6230
0200
ENDCHAR
STARTCHAR 02-01-13
ENCODING 8493
SWIDTH 960 0
DWIDTH 12 0
BBX 12 12 0 -2
BITMAP
0000
00c0
0f00
0fc0
0840
0fc0
0fc0
0800
1fc0
1040
2040
4180
ENDCHAR
STARTCHAR 02-01-14
ENCODING 8494
SWIDTH 960 0
DWIDTH 12 0
BBX 12 12 0 -2
BITMAP
0000
0400
1f80
1080
1080
1f80
1000
1fc0
1040
1040
1fc0
1040
ENDCHAR
STARTCHAR 02-01-15
ENCODING 8495
SWIDTH 960 0
DWIDTH 12 0
BBX 12 12 0 -2
BITMAP
0000
1000
1000
1000
1000
1000
1000
1000
1000
1020
1020
0fc0
ENDCHAR
STARTCHAR 02-01-16
ENCODING 8496
SWIDTH 960 0
DWIDTH 12 0
BBX 12 12 0 -2
BITMAP
0000
1080
1080
1e80
1080
1080
7e80
4280
4280
4290
7e90
4270
ENDCHAR
STARTCHAR 02-01-17
ENCODING 8497
SWIDTH 960 0
DWIDTH 12 0
BBX 12 12 0 -2
BITMAP
0000
0400
0880
1f40
1080
2520
7bd0
0210
1fc0
0000
0000
7ff0
ENDCHAR
STARTCHAR 02-01-18
ENCODING 8498
SWIDTH 960 0
DWIDTH 12 0
BBX 12 12 0 -2
BITMAP
0000
0200
7ff0
0440
09c0
1e20
0a80
0a80
0a80
1290
1290
6070
ENDCHAR
STARTCHAR 02-01-19
ENCODING 8499
SWIDTH 960 0
DWIDTH 12 0
BBX 12 12 0 -2
BITMAP
0000
0200
7ff0
18c0
68b0
3fe0
1fc0
0880
7ff0
1920
6ec0
1830
ENDCHAR
STARTCHAR 02-01-20
ENCODING 8500
SWIDTH 960 0
DWIDTH 12 0
BBX 12 12 0 -2
BITMAP
0000
0200
7ff0
1fe0
28a0
3ee0
2aa0
3ff0
5050
1fc0
1040
7ff0
ENDCHAR
STARTCHAR 02-01-21
ENCODING 8501
SWIDTH 960 0
DWIDTH 12 0
BBX 12 12 0 -2
BITMAP
0000
0080
0080
0180
0100
0200
0600
1a00
0200
0200
0200
0200
ENDCHAR
STARTCHAR 02-01-22
ENCODING 8502
SWIDTH 960 0
DWIDTH 12 0
BBX 12 12 0 -2
BITMAP
0000
0000
0200
0200
0200
0300
0500
0880
1040
6030
0000
0000
ENDCHAR
STARTCHAR 02-01-23
ENCODING 8503
SWIDTH 960 0
DWIDTH 12 0
BBX 12 12 0 -2
BITMAP
0000
0200
0200
0200
0200
0300
0500
0880
1040
6030
0000
7ff0
ENDCHAR
STARTCHAR 02-01-24
ENCODING 8504
SWIDTH 960 0
DWIDTH 12 0
BBX 12 12 0 -2
BITMAP
0000
0800
0ff0
1080
1080
3080
5080
1080
1080
1080
1080
1380
ENDCHAR
STARTCHAR 02-01-25
ENCODING 8505
SWIDTH 960 0
DWIDTH 12 0
BBX 12 12 0 -2
BITMAP
0000
0bc0
0840
1040
1240
3240
5240
1240
1220
1420
1420
1810
ENDCHAR
STARTCHAR 02-01-26
ENCODING 8506
SWIDTH 960 0
DWIDTH 12 0
BBX 12 12 0 -2
BITMAP
0000
0200
0200
0500
0880
1240
6230
0200
7ff0
0200
0200
0200
ENDCHAR
STARTCHAR 02-01-27
ENCODING 8507
SWIDTH 960 0
DWIDTH 12 0
BBX 12 12 0 -2
BITMAP
0000
0900
0900
1280
1280
3480
5900
1140
1120
1220
1270
1f90
ENDCHAR
STARTCHAR 02-01-28
ENCODING 8508
SWIDTH 960 0
DWIDTH 12 0
BBX 12 12 0 -2
BITMAP
0000
0200
0200
0500
0880
1240
6230
0200
2220
2220
3fe0
2020
ENDCHAR
STARTCHAR 02-01-29
ENCODING 8509
SWIDTH 960 0
DWIDTH 12 0
BBX 12 12 0 -2
BITMAP
0000
0880
0880
1140
1220
35d0
5000
13e0
1020
1040
1040
1080
ENDCHAR
STARTCHAR 02-01-30
ENCODING 8510
SWIDTH 960 0
DWIDTH 12 0
BBX 12 12 0 -2
BITMAP
0000
0900
0900
13f0
1280
3480
57f0
1080
1080
1080
1080
1080
ENDCHAR
STARTCHAR 02-01-31
ENCODING 8511
SWIDTH 960 0
DWIDTH 12 0
BBX 12 12 0 -2
BITMAP
0000
0960
0920
1120
1210
3290
5480
1140
1120
1220
1270
1790
ENDCHAR
STARTCHAR 02-01-32
ENCODING 8512
SWIDTH 960 0
DWIDTH 12 0
BBX 12 12 0 -2
BITMAP
0000
0900
0900
17f0
1100
33e0
5220
1320
1540
1880
1140
1630
ENDCHAR
STARTCHAR 02-01-33
ENCODING 8513
SWIDTH 960 0
DWIDTH 12 0
BBX 12 12 0 -2
BITMAP
0000
0ff0
0a00
1200
13c0
3240
5240
1340
12c0
1250
13b0
1610
ENDCHAR
STARTCHAR 02-01-34
ENCODING 8514
SWIDTH 960 0
DWIDTH 12 0
BBX 12 12 0 -2
BITMAP
0000
0880
0880
17f0
1490
3490
57f0
1490
1490
1490
17f0
1410
ENDCHAR
STARTCHAR 02-01-35
ENCODING 8515
SWIDTH 960 0
DWIDTH 12 0
BBX 12 12 0 -2
BITMAP
0000
0bf0
0840
1080
10c0
31a0
5290
1490
1080
1080
1080
13f0
ENDCHAR
STARTCHAR 02-01-36
ENCODING 8516
SWIDTH 960 0
DWIDTH 12 0
BBX 12 12 0 -2
BITMAP
0000
0880
0880
10f0
1080
3080
53f0
1210
1210
1210
13f0
1210
ENDCHAR
STARTCHAR 02-01-37
ENCODING 8517
SWIDTH 960 0
DWIDTH 12 0
BBX 12 12 0 -2
BITMAP
0000
0200
0500
18c0
6030
1fc0
0000
7ff0
0200
1240
2220
4e20
ENDCHAR
STARTCHAR 02-01-38
ENCODING 8518
SWIDTH 960 0
DWIDTH 12 0
BBX 12 12 0 -2
BITMAP
0000
0ff0
0880
17f0
1490
36b0
56b0
17f0
1630
1410
1410
1430
ENDCHAR
STARTCHAR 02-01-39
ENCODING 8519
SWIDTH 960 0
DWIDTH 12 0
BBX 12 12 0 -2
BITMAP
0000
0be0
0a20
1220
13e0
3220
53e0
1310
12a0
1240
13a0
1610
ENDCHAR
STARTCHAR 02-01-40
ENCODING 8520
SWIDTH 960 0
DWIDTH 12 0
BBX 12 12 0 -2
BITMAP
0000
0860
0b80
1080
17f0
3080
5080
13e0
1220
1220
13e0
1220
ENDCHAR
STARTCHAR 02-01-41
ENCODING 8521
SWIDTH 960 0
DWIDTH 12 0
BBX 12 12 0 -2
BITMAP
0000
0980
08c0
1120
1210
37f0
5080
1080
13e0
1080
1080
17f0
ENDCHAR
STARTCHAR 02-01-42
ENCODING 8522
SWIDTH 960 0
DWIDTH 12 0
BBX 12 12 0 -2
BITMAP
0000
0900
0900
11f0
1710
30a0
5080
1280
14c0
1140
1120
1210
ENDCHAR
STARTCHAR 02-01-43
ENCODING 8523
SWIDTH 960 0
DWIDTH 12 0
BBX 12 12 0 -2
BITMAP
0000
0880
0880
17f0
1460
3780
5480
14f0
1780
1480
1890
1070
ENDCHAR
STARTCHAR 02-01-44
ENCODING 8524
SWIDTH 960 0
DWIDTH 12 0
BBX 12 12 0 -2
BITMAP
0000
0880
0880
17f0
1080
3300
5150
1090
1320
1040
10a0
1710
ENDCHAR
STARTCHAR 02-01-45
ENCODING 8525
SWIDTH 960 0
DWIDTH 12 0
BBX 12 12 0 -2
BITMAP
0000
0880
0ff0
1510
1100
3100
57f0
1240
1440
1380
1240
1430
ENDCHAR
STARTCHAR 02-01-46
ENCODING 8526
SWIDTH 960 0
DWIDTH 12 0
BBX 12 12 0 -2
BITMAP
0000
0a00
0bf0
1410
13d0
3250
53d0
1250
13d0
1250
1020
10c0
ENDCHAR
STARTCHAR 02-01-47
ENCODING 8527
SWIDTH 960 0
DWIDTH 12 0
BBX 12 12 0 -2
BITMAP
0000
0880
0ff0
1080
13e0
3080
57f0
1120
17f0
1320
14a0
1860
ENDCHAR
STARTCHAR 02-01-48
ENCODING 8528
SWIDTH 960 0
DWIDTH 12 0
BBX 12 12 0 -2
BITMAP
0000
0bf0
0a00
1200
13e0
3200
53f0
1350
1360
1540
15a0
1b10
ENDCHAR
STARTCHAR 02-01-49
ENCODING 8529
SWIDTH 960 0
DWIDTH 12 0
BBX 12 12 0 -2
BITMAP
0000
0920
0fe0
1140
1ff0
3100
53e0
1440
1ff0
1080
1080
1180
ENDCHAR
STARTCHAR 02-01-50
ENCODING 8530
SWIDTH 960 0
DWIDTH 12 0
BBX 12 12 0 -2
BITMAP
0000
08a0
0890
17f0
1080
34a0
52a0
11c0
12c0
14a0
1090
1380
ENDCHAR
STARTCHAR 02-01-51
ENCODING 8531
SWIDTH 960 0
DWIDTH 12 0
BBX 12 12 0 -2
BITMAP
0000
0be0
0a20
13e0
1000
37f0
5490
17f0
1410
1400
1410
13f0
ENDCHAR
STARTCHAR 02-01-52
ENCODING 8532
SWIDTH 960 0
DWIDTH 12 0
BBX 12 12 0 -2
BITMAP
0000
0960
0950
1250
13f0
3210
53f0
1210
13f0
1210
1210
1270
ENDCHAR
STARTCHAR 02-01-53
ENCODING 8533
SWIDTH 960 0
DWIDTH 12 0
BBX 12 12 0 -2
BITMAP
0000
0880
0ff0
1410
13e0
3000
57f0
1140
1140
1140
1250
1430
ENDCHAR
STARTCHAR 02-01-54
ENCODING 8534
SWIDTH 960 0
DWIDTH 12 0
BBX 12 12 0 -2
BITMAP
0000
0880
0ff0
1220
11c0
3140
5630
13e0
1220
13e0
1420
1820
ENDCHAR
STARTCHAR 02-01-55
ENCODING 8535
SWIDTH 960 0
DWIDTH 12 0
BBX 12 12 0 -2
BITMAP
0000
0a40
0a40
1ff0
1550
3550
5ed0
1250
1250
1550
1590
18a0
ENDCHAR
STARTCHAR 02-01-56
ENCODING 8536
SWIDTH 960 0
DWIDTH 12 0
BBX 12 12 0 -2
BITMAP
0000
0be0
0a00
13e0
1200
33e0
5200
17f0
12a0
1240
13a0
1610
ENDCHAR
STARTCHAR 02-01-57
ENCODING 8537
SWIDTH 960 0
DWIDTH 12 0
BBX 12 12 0 -2
BITMAP
0000
0a00
0bf0
1320
14c0
2920
6e90
2a90
2a90
2da0
2960
2610
ENDCHAR
STARTCHAR 02-01-58
ENCODING 8538
SWIDTH 960 0
DWIDTH 12 0
BBX 12 12 0 -2
BITMAP
0000
0a90
0a90
15a0
1160
3610
5080
1290
1290
15a0
1160
1610
ENDCHAR
STARTCHAR 02-01-59
ENCODING 8539
SWIDTH 960 0
DWIDTH 12 0
BBX 12 12 0 -2
BITMAP
0000
0bf0
0a90
13d0
1290
33d0
5290
13d0
1350
13d0
1550
1430
ENDCHAR
STARTCHAR 02-01-60
ENCODING 8540
SWIDTH 960 0
DWIDTH 12 0
BBX 12 12 0 -2
BITMAP
0000
0880
0ff0
1000
13e0
3220
53e0
12a0
1080
12a0
1490
1380
ENDCHAR
STARTCHAR 02-01-61
ENCODING 8541
SWIDTH 960 0
DWIDTH 12 0
BBX 12 12 0 -2
BITMAP
0000
0880
0ff0
13e0
10a0
37f0
50a0
13e0
1080
12e0
1280
15f0
ENDCHAR
STARTCHAR 02-01-62
ENCODING 8542
SWIDTH 960 0
DWIDTH 12 0
BBX 12 12 0 -2
BITMAP
0000
0be0
0a20
13e0
1220
3200
53e0
1480
17f0
1080
1140
1630
ENDCHAR
STARTCHAR 02-01-63
ENCODING 8543
SWIDTH 960 0
DWIDTH 12 0
BBX 12 12 0 -2
BITMAP
0000
0a20
0940
17f0
1000
3750
5550
1750
1550
1710
1510
1570
ENDCHAR
STARTCHAR 02-01-64
ENCODING 8544
SWIDTH 960 0
DWIDTH 12 0
BBX 12 12 0 -2
BITMAP
0000
0880
0be0
1080
13e0
3140
57f0
13e0
1630
13e0
1220
13e0
ENDCHAR
STARTCHAR 02-01-65
ENCODING 8545
SWIDTH 960 0
DWIDTH 12 0
BBX 12 12 0 -2
BITMAP
0000
0be0
0aa0
13e0
12a0
33e0
5000
17f0
12a0
1240
13a0
1610
ENDCHAR
STARTCHAR 02-01-66
ENCODING 8546
SWIDTH 960 0
DWIDTH 12 0
BBX 12 12 0 -2
BITMAP
0000
0bf0
0a10
13f0
1200
33f0
52a0
13d0
1240
13f0
1440
1bf0
ENDCHAR
STARTCHAR 02-01-67
ENCODING 8547
SWIDTH 960 0
DWIDTH 12 0
BBX 12 12 0 -2
BITMAP
0000
0880
0aa0
14b0
19c0
33e0
5620
13e0
1220
13e0
1220
13e0
ENDCHAR
STARTCHAR 02-01-68
ENCODING 8548
SWIDTH 960 0
DWIDTH 12 0
BBX 12 12 0 -2
BITMAP
0000
0880
0ff0
1220
1140
37f0
5000
13e0
1220
13e0
1220
13e0
ENDCHAR
STARTCHAR 02-01-69
ENCODING 8549
SWIDTH 960 0
DWIDTH 12 0
BBX 12 12 0 -2
BITMAP
0000
0ff0
0890
12e0
1380
3470
53e0
1220
13e0
1220
13e0
1420
ENDCHAR
STARTCHAR 02-01-70
ENCODING 8550
SWIDTH 960 0
DWIDTH 12 0
BBX 12 12 0 -2
BITMAP
0000
0ff0
0800
13e0
1220
33e0
5000
17f0
1490
17f0
1490
17f0
ENDCHAR
STARTCHAR 02-01-71
ENCODING 8551
SWIDTH 960 0
DWIDTH 12 0
BBX 12 12 0 -2
BITMAP
0000
0a00
0ff0
1250
1750
3390
5660
1280
17f0
1080
1140
1630
ENDCHAR
STARTCHAR 02-01-72
ENCODING 8552
SWIDTH 960 0
DWIDTH 12 0
BBX 12 12 0 -2
BITMAP
0000
0880
0ff0
13e0
1080
37f0
5220
1490
16a0
11c0
12a0
1490
ENDCHAR
STARTCHAR 02-01-73
ENCODING 8553
SWIDTH 960 0
DWIDTH 12 0
BBX 12 12 0 -2
BITMAP
0000
0ff0
0940
17f0
1550
3550
57f0
1080
17f0
11c0
12a0
1490
ENDCHAR
STARTCHAR 02-01-74
ENCODING 8554
SWIDTH 960 0
DWIDTH 12 0
BBX 12 12 0 -2
BITMAP
0000
0870
0fc0
1520
1890
3140
56a0
13e0
1080
17f0
1140
1630
ENDCHAR
STARTCHAR 02-01-75
ENCODING 8555
SWIDTH 960 0
DWIDTH 12 0
BBX 12 12 0 -2
BITMAP
0000
0bf0
0800
13f0
1210
33f0
5200
13f0
16d0
15b0
1ad0
11b0
ENDCHAR
STARTCHAR 02-01-76
ENCODING 8556
SWIDTH 960 0
DWIDTH 12 0
BBX 12 12 0 -2
BITMAP
0000
0900
0ff0
1520
1940
33f0
5640
13f0
1240
13f0
1240
13f0
ENDCHAR
STARTCHAR 02-01-77
ENCODING 8557
SWIDTH 960 0
DWIDTH 12 0
BBX 12 12 0 -2
BITMAP
0000
0880
0940
1630
11c0
33e0
5220
13e0
1220
13f0
1510
15f0
ENDCHAR
STARTCHAR 02-01-78
ENCODING 8558
SWIDTH 960 0
DWIDTH 12 0
BBX 12 12 0 -2
BITMAP
0000
0900
09e0
1320
16c0
3100
57e0
1480
17f0
1aa0
13e0
1220
ENDCHAR
STARTCHAR 02-01-79
ENCODING 8559
SWIDTH 960 0
DWIDTH 12 0
BBX 12 12 0 -2
BITMAP
0000
0880
0940
13a0
12a0
37d0
52a0
1310
14d0
1320
1040
1780
ENDCHAR
STARTCHAR 02-01-80
ENCODING 8560
SWIDTH 960 0
DWIDTH 12 0
BBX 12 12 0 -2
BITMAP
0000
0be0
0aa0
13e0
12a0
33e0
57f0
12a0
17f0
1080
17f0
1080
ENDCHAR
STARTCHAR 02-01-81
ENCODING 8561
SWIDTH 960 0
DWIDTH 12 0
BBX 12 12 0 -2
BITMAP
0000
0aa0
0aa0
14f0
1350
3600
5d40
1540
1570
1540
15c0
1670
ENDCHAR
STARTCHAR 02-01-82
ENCODING 8562
SWIDTH 960 0
DWIDTH 12 0
BBX 12 12 0 -2
BITMAP
0000
0bf0
0ad0
15a0
1320
3650
57f0
1000
17f0
12a0
1290
1590
ENDCHAR
STARTCHAR 02-01-83
ENCODING 8563
SWIDTH 960 0
DWIDTH 12 0
BBX 12 12 0 -2
BITMAP
0000
0880
0be0
1360
12a0
33e0
5330
15e0
1340
1480
1140
1630
ENDCHAR
STARTCHAR 02-01-84
ENCODING 8564
SWIDTH 960 0
DWIDTH 12 0
BBX 12 12 0 -2
BITMAP
0000
0ff0
0940
17f0
1550
37f0
5000
13e0
1000
17f0
12a0
1590
ENDCHAR
STARTCHAR 02-01-85
ENCODING 8565
SWIDTH 960 0
DWIDTH 12 0
BBX 12 12 0 -2
BITMAP
0000
0ff0
0ad0
11b0
12d0
3090
5140
17b0
1040
1190
1060
1380
ENDCHAR
STARTCHAR 02-01-86
ENCODING 8566
SWIDTH 960 0
DWIDTH 12 0
BBX 12 12 0 -2
BITMAP
0000
0ff0
0940
17f0
1550
3550
57f0
1080
17f0
11c0
12a0
1490
ENDCHAR
STARTCHAR 02-01-87
ENCODING 8567
SWIDTH 960 0
DWIDTH 12 0
BBX 12 12 0 -2
BITMAP
0000
0ff0
0c90
16b0
15d0
37f0
5080
17f0
1080
17f0
16a0
1550
ENDCHAR
STARTCHAR 02-01-88
ENCODING 8568
SWIDTH 960 0
DWIDTH 12 0
BBX 12 12 0 -2
BITMAP
0000
0f70
0d50
1770
14d0
33b0
5140
17f0
1140
17f0
1140
1230
ENDCHAR
STARTCHAR 02-01-89
ENCODING 8569
SWIDTH 960 0
DWIDTH 12 0
BBX 12 12 0 -2
BITMAP
0000
0940
0bf0
1640
13f0
3240
53f0
1240
17f0
11c0
12a0
1490
ENDCHAR
STARTCHAR 02-01-90
ENCODING 8570
SWIDTH 960 0
DWIDTH 12 0
BBX 12 12 0 -2
BITMAP
0000
0ae0
0ff0
1140
17f0
3550
5630
17f0
1410
17f0
1220
1160
ENDCHAR
STARTCHAR 02-01-91
ENCODING 8571
SWIDTH 960 0
DWIDTH 12 0
BBX 12 12 0 -2
BITMAP
0000
0940
0be0
1140
11c0
37f0
53e0
12a0
13e0
12a0
13e0
1410
ENDCHAR
STARTCHAR 02-01-92
ENCODING 8572
SWIDTH 960 0
DWIDTH 12 0
BBX 12 12 0 -2
BITMAP
0000
0880
0ff0
12a0
13e0
32a0
53e0
10a0
17d0
1320
1650
19d0
ENDCHAR
STARTCHAR 02-01-93
ENCODING 8573
SWIDTH 960 0
DWIDTH 12 0
BBX 12 12 0 -2
BITMAP
0000
1ef0
1a90
1ef0
3a90
2ef0
6bd0
2a50
2bd0
2a50
2bd0
2c70
ENDCHAR
STARTCHAR 02-01-94
ENCODING 8574
SWIDTH 960 0
DWIDTH 12 0
BBX 12 12 0 -2
BITMAP
0000
0d50
0b60
17f0
1140
37f0
5080
13e0
1080
17f0
12a0
1490
ENDCHAR
STARTCHAR 02-03-01
ENCODING 8993
SWIDTH 960 0
DWIDTH 12 0
BBX 12 12 0 -2
BITMAP
0000
0880
0b60
15d0
17f0
36b0
55d0
17f0
1220
13e0
1220
13e0
ENDCHAR
STARTCHAR 02-03-02
ENCODING 8994
SWIDTH 960 0
DWIDTH 12 0
BBX 12 12 0 -2
BITMAP
0000
0ff0
0ff0
1550
17f0
3000
57f0
15d0
15d0
14b0
15d0
17f0
ENDCHAR
STARTCHAR 02-03-03
ENCODING 8995
SWIDTH 960 0
DWIDTH 12 0
BBX 12 12 0 -2
BITMAP
0000
1af0
1c90
1960
37f0
2a50
6f60
22f0
2fc0
22c0
25c0
2930
ENDCHAR
STARTCHAR 02-03-04
ENCODING 8996
SWIDTH 960 0
DWIDTH 12 0
BBX 12 12 0 -2
BITMAP
0000
0a00
0bf0
16a0
17f0
32a0
57f0
1220
13f0
16a0
11f0
1620
ENDCHAR
STARTCHAR 02-03-05
ENCODING 8997
SWIDTH 960 0
DWIDTH 12 0
BBX 12 12 0 -2
BITMAP
0000
1520
1ff0
1ba0
3920
2fb0
6ad0
2bd0
2ba0
2aa0
2fd0
3090
ENDCHAR
STARTCHAR 02-03-06
ENCODING 8998
SWIDTH 960 0
DWIDTH 12 0
BBX 12 12 0 -2
BITMAP
0000
1240
1750
7560
1740
1540
3750
5430
0900
0910
1110
60f0
ENDCHAR
STARTCHAR 02-03-07
ENCODING 8999
SWIDTH 960 0
DWIDTH 12 0
BBX 12 12 0 -2
BITMAP
0000
0000
0a80
0a40
1220
7ff0
0500
7ff0
0880
1040
6030
0000
ENDCHAR
STARTCHAR 02-03-08
ENCODING 9000
SWIDTH 960 0
DWIDTH 12 0
BBX 12 12 0 -2
BITMAP
0000
0880
0500
1fc0
0200
0200
3fe0
0200
0600
0500
0880
3060
ENDCHAR
STARTCHAR 02-03-09
ENCODING 9001
SWIDTH 960 0
DWIDTH 12 0
BBX 12 12 0 -2
BITMAP
0000
3fe0
2020
2020
2fa0
2020
2020
2fa0
2020
2020
2020
20e0
ENDCHAR
STARTCHAR 02-03-10
ENCODING 9002
SWIDTH 960 0
DWIDTH 12 0
BBX 12 12 0 -2
BITMAP
0000
7ff0
4010
4010
4f90
4890
4890
4f90
4890
4010
4010
4070
ENDCHAR
STARTCHAR 02-03-11
ENCODING 9003
SWIDTH 960 0
DWIDTH 12 0
BBX 12 12 0 -2
BITMAP
0000
0880
7ff0
0880
0f80
0200
3fe0
3ba0
2aa0
3760
2220
2260
ENDCHAR
STARTCHAR 02-03-12
ENCODING 9004
SWIDTH 960 0
DWIDTH 12 0
BBX 12 12 0 -2
BITMAP
0000
0200
0200
3ff0
2210
4200
0400
0600
0600
0a10
1210
61f0
ENDCHAR
STARTCHAR 02-03-13
ENCODING 9005
SWIDTH 960 0
DWIDTH 12 0
BBX 12 12 0 -2
BITMAP
0000
3ff0
2010
4000
7ff0
2490
3c90
2460
3c40
26a0
3d10
4410
ENDCHAR
STARTCHAR 02-03-14
ENCODING 9006
SWIDTH 960 0
DWIDTH 12 0
BBX 12 12 0 -2
BITMAP
0000
0200
0200
7ff0
0500
0880
1440
6230
0100
01c0
0600
0800
ENDCHAR
STARTCHAR 02-03-15
ENCODING 9007
SWIDTH 960 0
DWIDTH 12 0
BBX 12 12 0 -2
BITMAP
0000
2030
17c0
1080
0080
0ff0
1080
20c0
2140
4120
4220
4c10
ENDCHAR
STARTCHAR 02-03-16
ENCODING 9008
SWIDTH 960 0
DWIDTH 12 0
BBX 12 12 0 -2
BITMAP
0000
2280
1280
13e0
0480
0880
1ff0
2240
2240
4250
4450
4830
ENDCHAR
STARTCHAR 02-03-17
ENCODING 9009
SWIDTH 960 0
DWIDTH 12 0
BBX 12 12 0 -2
BITMAP
0000
2220
1220
1490
0080
0140
1630
23e0
2220
4220
43e0
4220
ENDCHAR
STARTCHAR 02-03-18
ENCODING 9010
SWIDTH 960 0
DWIDTH 12 0
BBX 12 12 0 -2
BITMAP
0000
1fc0
1040
1040
1040
1040
1040
1040
1050
2050
2030
4010
ENDCHAR
STARTCHAR 02-03-19
ENCODING 9011
SWIDTH 960 0
DWIDTH 12 0
BBX 12 12 0 -2
BITMAP
0000
1f40
2da0
7ff0
6fb0
1fc0
0f80
7ff0
0000
0f90
1090
6070
ENDCHAR
STARTCHAR 02-03-20
ENCODING 9012
SWIDTH 960 0
DWIDTH 12 0
BBX 12 12 0 -2
BITMAP
0000
27f0
17e0
17c0
07e0
17f0
2af0
4ab0
0f80
0890
1090
6070
ENDCHAR
STARTCHAR 02-03-21
ENCODING 9013
SWIDTH 960 0
DWIDTH 12 0
BBX 12 12 0 -2
BITMAP
0000
0080
0880
0880
0880
0880
0880
0880
0880
0080
0080
0380
ENDCHAR
STARTCHAR 02-03-22
ENCODING 9014
SWIDTH 960 0
DWIDTH 12 0
BBX 12 12 0 -2
BITMAP
0000
1490
1290
1f90
7090
1290
1290
1490
0890
0910
1710
6130
ENDCHAR
STARTCHAR 02-03-23
ENCODING 9015
SWIDTH 960 0
DWIDTH 12 0
BBX 12 12 0 -2
BITMAP
0000
3e90
2290
2290
3e90
2290
2290
3e90
2290
2210
4210
4630
ENDCHAR
STARTCHAR 02-03-24
ENCODING 9016
SWIDTH 960 0
DWIDTH 12 0
BBX 12 12 0 -2
BITMAP
0000
09f0
1450
2250
7e50
0850
7e50
4a50
7e90
0890
1510
6260
ENDCHAR
STARTCHAR 02-03-25
ENCODING 9017
SWIDTH 960 0
DWIDTH 12 0
BBX 12 12 0 -2
BITMAP
0000
1490
1490
7790
1490
1490
7790
1490
3490
5710
1410
2430
ENDCHAR
STARTCHAR 02-03-26
ENCODING 9018
SWIDTH 960 0
DWIDTH 12 0
BBX 12 12 0 -2
BITMAP
0000
0850
3f50
2150
5050
1f50
2d50
4d50
3750
1410
2510
4330
ENDCHAR
STARTCHAR 02-03-27
ENCODING 9019
SWIDTH 960 0
DWIDTH 12 0
BBX 12 12 0 -2
BITMAP
0000
1090
5290
7e90
0090
7e90
1090
7e90
5a90
5a10
5a10
4630
ENDCHAR
STARTCHAR 02-03-28
ENCODING 9020
SWIDTH 960 0
DWIDTH 12 0
BBX 12 12 0 -2
BITMAP
0000
0850
3f50
1e50
3e50
7f50
7450
7e50
7450
6e10
6710
7f30
ENDCHAR
STARTCHAR 02-03-29
ENCODING 9021
SWIDTH 960 0
DWIDTH 12 0
BBX 12 12 0 -2
BITMAP
0000
2250
3fd0
7750
5d50
1c50
3250
7fd0
3e50
3e10
2210
3e30
ENDCHAR
STARTCHAR 02-03-30
ENCODING 9022
SWIDTH 960 0
DWIDTH 12 0
BBX 12 12 0 -2
BITMAP
0000
3fd0
7fd0
7e50
7fd0
7fd0
7ed0
7ed0
7fd0
7d90
5990
7330
ENDCHAR
STARTCHAR 02-03-31
ENCODING 9023
SWIDTH 960 0
DWIDTH 12 0
BBX 12 12 0 -2
BITMAP
0000
3690
6e90
7690
7e90
7e90
7e90
6e90
4290
6e10
3e10
7e30
ENDCHAR
STARTCHAR 02-03-32
ENCODING 9024
SWIDTH 960 0
DWIDTH 12 0
BBX 12 12 0 -2
BITMAP
0000
3fd0
7fd0
7fd0
7fd0
7fd0
6fd0
7bd0
7bd0
7b10
7b90
4a30
ENDCHAR
STARTCHAR 02-03-33
ENCODING 9025
SWIDTH 960 0
DWIDTH 12 0
BBX 12 12 0 -2
BITMAP
0000
3c80
0080
03f0
0090
7e90
2890
2890
2910
2960
2810
47f0
ENDCHAR
STARTCHAR 02-03-34
ENCODING 9026
SWIDTH 960 0
DWIDTH 12 0
BBX 12 12 0 -2
BITMAP
0000
0e80
3c80
21f0
3e90
2490
2490
2490
2490
6510
6510
4660
ENDCHAR
STARTCHAR 02-03-35
ENCODING 9027
SWIDTH 960 0
DWIDTH 12 0
BBX 12 12 0 -2
BITMAP
0000
0200
3fe0
0220
0c20
30c0
1040
7df0
1450
1450
2490
5960
ENDCHAR
STARTCHAR 02-03-36
ENCODING 9028
SWIDTH 960 0
DWIDTH 12 0
BBX 12 12 0 -2
BITMAP
0000
7c80
1080
13f0
1090
3890
2890
6890
2890
3910
2110
0260
ENDCHAR
STARTCHAR 02-03-37
ENCODING 9029
SWIDTH 960 0
DWIDTH 12 0
BBX 12 12 0 -2
BITMAP
0000
1080
3480
3df0
3e90
1890
7e90
5890
7e90
7f10
1910
1a60
ENDCHAR
STARTCHAR 02-03-38
ENCODING 9030
SWIDTH 960 0
DWIDTH 12 0
BBX 12 12 0 -2
BITMAP
0000
7e80
4080
7df0
4890
5c90
4890
4890
7e90
4110
7f10
4060
ENDCHAR
STARTCHAR 02-03-39
ENCODING 9031
SWIDTH 960 0
DWIDTH 12 0
BBX 12 12 0 -2
BITMAP
0000
1080
7e80
11f0
7e90
4290
7e90
5a90
1910
2a60
2810
47f0
ENDCHAR
STARTCHAR 02-03-40
ENCODING 9032
SWIDTH 960 0
DWIDTH 12 0
BBX 12 12 0 -2
BITMAP
0000
2880
3e80
49e0
3ea0
09a0
0ef0
7130
0210
7ff0
0410
3860
ENDCHAR
STARTCHAR 02-03-41
ENCODING 9033
SWIDTH 960 0
DWIDTH 12 0
BBX 12 12 0 -2
BITMAP
0000
1880
7e80
19f0
7a90
7e90
7e90
1c90
3c90
7f10
7b10
1860
ENDCHAR
STARTCHAR 02-03-42
ENCODING 9034
SWIDTH 960 0
DWIDTH 12 0
BBX 12 12 0 -2
BITMAP
0000
3e80
7e80
7ff0
7e90
7e90
7e90
7e90
7e90
7f10
7f10
7260
ENDCHAR
STARTCHAR 02-03-43
ENCODING 9035
SWIDTH 960 0
DWIDTH 12 0
BBX 12 12 0 -2
BITMAP
0000
7e80
7e80
7ff0
7e90
7e90
7e90
7e90
7e90
7f10
7710
7260
ENDCHAR
STARTCHAR 02-03-44
ENCODING 9036
SWIDTH 960 0
DWIDTH 12 0
BBX 12 12 0 -2
BITMAP
0000
1000
1ff0
1010
2510
5510
0e10
3fd0
0e10
1520
24a0
04c0
ENDCHAR
STARTCHAR 02-03-45
ENCODING 9037
SWIDTH 960 0
DWIDTH 12 0
BBX 12 12 0 -2
BITMAP
0000
1000
1ff0
1010
3f90
5210
1fd0
2210
1290
1290
1fa0
10c0
ENDCHAR
STARTCHAR 02-03-46
ENCODING 9038
SWIDTH 960 0
DWIDTH 12 0
BBX 12 12 0 -2
BITMAP
0000
7ff0
4000
5fc0
4200
4f80
4280
4240
7fe0
4000
7ff0
4000
ENDCHAR
STARTCHAR 02-03-47
ENCODING 9039
SWIDTH 960 0
DWIDTH 12 0
BBX 12 12 0 -2
BITMAP
0000
7ff0
5fe0
4fc0
4fc0
5fe0
5fe0
5fc0
5fc0
5fc0
4cc0
7ff0
ENDCHAR
STARTCHAR 02-03-48
ENCODING 9040
SWIDTH 960 0
DWIDTH 12 0
BBX 12 12 0 -2
BITMAP
0000
7ff0
3ff0
3ff0
2fe0
2fe0
2fe0
3ff0
3ff0
3ff0
3aa0
1ff0
ENDCHAR
STARTCHAR 02-03-49
ENCODING 9041
SWIDTH 960 0
DWIDTH 12 0
BBX 12 12 0 -2
BITMAP
0000
7fc0
0040
0840
0840
0840
7f40
0840
0850
0850
0830
0010
ENDCHAR
STARTCHAR 02-03-50
ENCODING 9042
SWIDTH 960 0
DWIDTH 12 0
BBX 12 12 0 -2
BITMAP
0000
0080
0880
0880
3e80
0880
08f0
0780
7880
0080
0080
0080
ENDCHAR
STARTCHAR 02-03-51
ENCODING 9043
SWIDTH 960 0
DWIDTH 12 0
BBX 12 12 0 -2
BITMAP
0000
0200
3fe0
0200
1fc0
1040
1fc0
1040
1fc0
0200
7ff0
0200
ENDCHAR
STARTCHAR 02-03-52
ENCODING 9044
SWIDTH 960 0
DWIDTH 12 0
BBX 12 12 0 -2
BITMAP
0000
7c80
4880
4880
7c80
44c0
7ca0
4890
4880
7c80
4080
0080
ENDCHAR
STARTCHAR 02-03-53
ENCODING 9045
SWIDTH 960 0
DWIDTH 12 0
BBX 12 12 0 -2
BITMAP
0000
0400
3be0
2220
2220
2220
2220
2220
2e20
32c0
4200
0200
ENDCHAR
STARTCHAR 02-03-54
ENCODING 9046
SWIDTH 960 0
DWIDTH 12 0
BBX 12 12 0 -2
BITMAP
0000
1f80
3b60
0fc0
1e80
6670
3fe0
1fc0
3fe0
20e0
3000
1ff0
ENDCHAR
STARTCHAR 02-03-55
ENCODING 9047
SWIDTH 960 0
DWIDTH 12 0
BBX 12 12 0 -2
BITMAP
0000
3ff0
7ff0
7fe0
7dc0
6cc0
7fe0
7cc0
7fe0
59e0
6af0
08d0
ENDCHAR
STARTCHAR 02-03-56
ENCODING 9048
SWIDTH 960 0
DWIDTH 12 0
BBX 12 12 0 -2
BITMAP
0000
7ff0
7e50
7df0
7ee0
7ee0
77b0
7fe0
7fe0
7fe0
4fe0
4200
ENDCHAR
STARTCHAR 02-03-57
ENCODING 9049
SWIDTH 960 0
DWIDTH 12 0
BBX 12 12 0 -2
BITMAP
0000
0000
0200
0200
7ff0
0400
0880
0840
13e0
3c20
0020
0000
ENDCHAR
STARTCHAR 02-03-58
ENCODING 9050
SWIDTH 960 0
DWIDTH 12 0
BBX 12 12 0 -2
BITMAP
0000
0400
0400
7ff0
0800
0a00
1200
1280
2440
4460
0790
1810
ENDCHAR
STARTCHAR 02-03-59
ENCODING 9051
SWIDTH 960 0
DWIDTH 12 0
BBX 12 12 0 -2
BITMAP
0000
0200
7ff0
0200
3fe0
2220
3fe0
2220
3fe0
0840
13a0
7c10
ENDCHAR
STARTCHAR 02-03-60
ENCODING 9052
SWIDTH 960 0
DWIDTH 12 0
BBX 12 12 0 -2
BITMAP
0000
1fc0
1040
1180
1000
1fc0
1040
1440
1280
1300
1500
18c0
ENDCHAR
STARTCHAR 02-03-61
ENCODING 9053
SWIDTH 960 0
DWIDTH 12 0
BBX 12 12 0 -2
BITMAP
0000
0200
7ff0
0200
1fc0
1040
1fc0
0000
3fe0
0dc0
1fc0
7df0
ENDCHAR
STARTCHAR 02-03-62
ENCODING 9054
SWIDTH 960 0
DWIDTH 12 0
BBX 12 12 0 -2
BITMAP
0000
3fe0
7ff0
7fb0
7fb0
6cf0
7ee0
7ae0
7a40
7ae0
5ee0
49b0
ENDCHAR
STARTCHAR 02-03-63
ENCODING 9055
SWIDTH 960 0
DWIDTH 12 0
BBX 12 12 0 -2
BITMAP
0000
7de0
7df0
6df0
38e0
7de0
4f30
7ff0
6db0
3de0
39e0
6f70
ENDCHAR
STARTCHAR 02-03-64
ENCODING 9056
SWIDTH 960 0
DWIDTH 12 0
BBX 12 12 0 -2
BITMAP
0000
7df0
4410
4410
7df0
4000
7ff0
4110
4120
7cc0
4140
4630
ENDCHAR
STARTCHAR 02-03-65
ENCODING 9057
SWIDTH 960 0
DWIDTH 12 0
BBX 12 12 0 -2
BITMAP
0000
0700
0100
0880
0880
1040
6030
1fc0
1040
1040
1fc0
1040
ENDCHAR
STARTCHAR 02-03-66
ENCODING 9058
SWIDTH 960 0
DWIDTH 12 0
BBX 12 12 0 -2
BITMAP
0000
0400
3f80
0480
0890
1090
6070
1fc0
1040
1040
1fc0
1040
ENDCHAR
STARTCHAR 02-03-67
ENCODING 9059
SWIDTH 960 0
DWIDTH 12 0
BBX 12 12 0 -2
BITMAP
0000
7fe0
4000
4000
4f80
4880
4880
4f80
4880
4000
7ff0
4000
ENDCHAR
STARTCHAR 02-03-68
ENCODING 9060
SWIDTH 960 0
DWIDTH 12 0
BBX 12 12 0 -2
BITMAP
0000
03f0
7a10
4a10
4b20
4aa0
4a40
4a60
7a90
4b10
0200
03f0
ENDCHAR
STARTCHAR 02-03-69
ENCODING 9061
SWIDTH 960 0
DWIDTH 12 0
BBX 12 12 0 -2
BITMAP
0000
0100
7980
4a40
4e60
4a50
4a40
4a40
7a40
4440
0440
0840
ENDCHAR
STARTCHAR 02-03-70
ENCODING 9062
SWIDTH 960 0
DWIDTH 12 0
BBX 12 12 0 -2
BITMAP
0000
00a0
78c0
4b80
4890
4a90
4a90
4a90
7bf0
4880
0090
0070
ENDCHAR
STARTCHAR 02-03-71
ENCODING 9063
SWIDTH 960 0
DWIDTH 12 0
BBX 12 12 0 -2
BITMAP
0000
0240
7a60
4e20
4e70
4a40
4bc0
4dc0
7880
49c0
03e0
0e70
ENDCHAR
STARTCHAR 02-03-72
ENCODING 9064
SWIDTH 960 0
DWIDTH 12 0
BBX 12 12 0 -2
BITMAP
0000
03f0
7a00
4a00
4af0
4a90
4a90
4a90
7ae0
4480
0490
0870
ENDCHAR
STARTCHAR 02-03-73
ENCODING 9065
SWIDTH 960 0
DWIDTH 12 0
BBX 12 12 0 -2
BITMAP
0000
03f0
7a10
4a10
4bf0
4a80
4a90
4ae0
7a80
4490
0490
0870
ENDCHAR
STARTCHAR 02-03-74
ENCODING 9066
SWIDTH 960 0
DWIDTH 12 0
BBX 12 12 0 -2
BITMAP
0000
0240
7240
54f0
5550
5950
5650
5450
7690
4990
0f10
0960
ENDCHAR
STARTCHAR 02-03-75
ENCODING 9067
SWIDTH 960 0
DWIDTH 12 0
BBX 12 12 0 -2
BITMAP
0000
0000
77f0
5550
5550
5550
5550
5530
7610
4410
07f0
0410
ENDCHAR
STARTCHAR 02-03-76
ENCODING 9068
SWIDTH 960 0
DWIDTH 12 0
BBX 12 12 0 -2
BITMAP
0000
0060
7b80
4880
4ff0
4880
4980
49c0
7aa0
4c90
0080
0080
ENDCHAR
STARTCHAR 02-03-77
ENCODING 9069
SWIDTH 960 0
DWIDTH 12 0
BBX 12 12 0 -2
BITMAP
0000
0100
7940
4920
4a20
4fd0
4810
4be0
7a20
4a20
03e0
0220
ENDCHAR
STARTCHAR 02-03-78
ENCODING 9070
SWIDTH 960 0
DWIDTH 12 0
BBX 12 12 0 -2
BITMAP
0000
0080
7880
4ff0
4880
4880
4be0
4a20
7a20
4a20
03e0
0220
ENDCHAR
STARTCHAR 02-03-79
ENCODING 9071
SWIDTH 960 0
DWIDTH 12 0
BBX 12 12 0 -2
BITMAP
0000
1fc0
1040
1fc0
0000
7ff0
1040
1fc0
1fc0
1070
1fc0
6040
ENDCHAR
STARTCHAR 02-03-80
ENCODING 9072
SWIDTH 960 0
DWIDTH 12 0
BBX 12 12 0 -2
BITMAP
0000
0080
7ff0
4be0
48a0
4be0
4a80
4bf0
7890
49b0
0240
0c30
ENDCHAR
STARTCHAR 02-03-81
ENCODING 9073
SWIDTH 960 0
DWIDTH 12 0
BBX 12 12 0 -2
BITMAP
0000
0080
7880
4ff0
4880
4880
4be0
4800
7be0
4a20
03e0
0220
ENDCHAR
STARTCHAR 02-03-82
ENCODING 9074
SWIDTH 960 0
DWIDTH 12 0
BBX 12 12 0 -2
BITMAP
0000
0280
7a80
4bf0
4c80
4880
4ff0
4880
79c0
42a0
0c90
0080
ENDCHAR
STARTCHAR 02-03-83
ENCODING 9075
SWIDTH 960 0
DWIDTH 12 0
BBX 12 12 0 -2
BITMAP
0000
0140
7950
4d50
4b60
4940
4960
4b50
7d40
4140
0250
0c30
ENDCHAR
STARTCHAR 02-03-84
ENCODING 9076
SWIDTH 960 0
DWIDTH 12 0
BBX 12 12 0 -2
BITMAP
0000
07f0
7800
4be0
4a20
4a20
4be0
4a20
7be0
4a20
0000
07f0
ENDCHAR
STARTCHAR 02-03-85
ENCODING 9077
SWIDTH 960 0
DWIDTH 12 0
BBX 12 12 0 -2
BITMAP
0000
03e0
72a0
54a0
57f0
5ca0
54a0
57e0
7480
4480
0500
0600
ENDCHAR
STARTCHAR 02-03-86
ENCODING 9078
SWIDTH 960 0
DWIDTH 12 0
BBX 12 12 0 -2
BITMAP
0000
03f0
7a10
4bd0
4a10
4bd0
4b50
4b50
7bd0
4b50
0210
0230
ENDCHAR
STARTCHAR 02-03-87
ENCODING 9079
SWIDTH 960 0
DWIDTH 12 0
BBX 12 12 0 -2
BITMAP
0000
0240
7ff0
4a40
4980
4980
4ab0
4ac0
7e80
4a90
0290
0270
ENDCHAR
STARTCHAR 02-03-88
ENCODING 9080
SWIDTH 960 0
DWIDTH 12 0
BBX 12 12 0 -2
BITMAP
0000
0200
73f0
5410
5dd0
5550
5550
5550
75d0
4510
0410
0470
ENDCHAR
STARTCHAR 02-03-89
ENCODING 9081
SWIDTH 960 0
DWIDTH 12 0
BBX 12 12 0 -2
BITMAP
0000
03e0
7a20
4be0
4a20
4be0
4a20
4be0
7b60
4950
0250
0c30
ENDCHAR
STARTCHAR 02-03-90
ENCODING 9082
SWIDTH 960 0
DWIDTH 12 0
BBX 12 12 0 -2
BITMAP
0000
0080
7ff0
4880
4bf0
4a10
4ff0
4840
7ff0
4080
0080
0180
ENDCHAR
STARTCHAR 02-03-91
ENCODING 9083
SWIDTH 960 0
DWIDTH 12 0
BBX 12 12 0 -2
BITMAP
0000
0430
74c0
5e80
54f0
54a0
56a0
5ca0
74a0
44a0
0520
0d20
ENDCHAR
STARTCHAR 02-03-92
ENCODING 9084
SWIDTH 960 0
DWIDTH 12 0
BBX 12 12 0 -2
BITMAP
0000
0060
7b80
4880
4ff0
49c0
4aa0
4ff0
7920
4930
0210
0c60
ENDCHAR
STARTCHAR 02-03-93
ENCODING 9085
SWIDTH 960 0
DWIDTH 12 0
BBX 12 12 0 -2
BITMAP
0000
03c0
7800
4ff0
4be0
4800
4be0
4800
7be0
4a20
03e0
0220
ENDCHAR
STARTCHAR 02-03-94
ENCODING 9086
SWIDTH 960 0
DWIDTH 12 0
BBX 12 12 0 -2
BITMAP
0000
0100
7920
4a70
4f90
4a00
4be0
4c80
7ff0
4080
0140
0630
ENDCHAR
STARTCHAR 02-04-01
ENCODING 9249
SWIDTH 960 0
DWIDTH 12 0
BBX 12 12 0 -2
BITMAP
0000
0080
7ff0
4a20
4940
4ff0
4900
4ff0
7a20
4640
01c0
0e30
ENDCHAR
STARTCHAR 02-04-02
ENCODING 9250
SWIDTH 960 0
DWIDTH 12 0
BBX 12 12 0 -2
BITMAP
0000
03f0
7a90
4bf0
4a90
4bf0
4a90
4bd0
7b50
45d0
0510
0870
ENDCHAR
STARTCHAR 02-04-03
ENCODING 9251
SWIDTH 960 0
DWIDTH 12 0
BBX 12 12 0 -2
BITMAP
0000
0080
7ff0
4880
4be0
4aa0
4be0
4aa0
7be0
49c0
02a0
0490
ENDCHAR
STARTCHAR 02-04-04
ENCODING 9252
SWIDTH 960 0
DWIDTH 12 0
BBX 12 12 0 -2
BITMAP
0000
0200
7ff0
0880
3fe0
2220
3fe0
2220
2fa0
28a0
2fa0
2060
ENDCHAR
STARTCHAR 02-04-05
ENCODING 9253
SWIDTH 960 0
DWIDTH 12 0
BBX 12 12 0 -2
BITMAP
0000
07f0
7510
5510
57d0
5750
5550
55d0
7550
4610
0410
0470
ENDCHAR
STARTCHAR 02-04-06
ENCODING 9254
SWIDTH 960 0
DWIDTH 12 0
BBX 12 12 0 -2
BITMAP
0000
01e0
7a20
4bc0
4840
4ff0
4880
4e90
79e0
4aa0
0490
0180
ENDCHAR
STARTCHAR 02-04-07
ENCODING 9255
SWIDTH 960 0
DWIDTH 12 0
BBX 12 12 0 -2
BITMAP
0000
0420
39c0
3ff0
2940
2940
4a40
3fe0
2020
2020
3fe0
2020
ENDCHAR
STARTCHAR 02-04-08
ENCODING 9256
SWIDTH 960 0
DWIDTH 12 0
BBX 12 12 0 -2
BITMAP
0000
0140
7940
4f70
4940
4940
4f70
4940
7f70
4970
0340
0240
ENDCHAR
STARTCHAR 02-04-09
ENCODING 9257
SWIDTH 960 0
DWIDTH 12 0
BBX 12 12 0 -2
BITMAP
0000
0080
7bf0
4a90
4bf0
4a90
4bf0
4940
7a40
47f0
0040
0040
ENDCHAR
STARTCHAR 02-04-10
ENCODING 9258
SWIDTH 960 0
DWIDTH 12 0
BBX 12 12 0 -2
BITMAP
0000
7ff0
0400
3fe0
3fe0
2020
3fe0
18c0
6fb0
1fc0
1040
1fc0
ENDCHAR
STARTCHAR 02-04-11
ENCODING 9259
SWIDTH 960 0
DWIDTH 12 0
BBX 12 12 0 -2
BITMAP
0000
0180
7bc0
4ff0
4fd0
4be0
4be0
4b40
7ff0
4ff0
0240
0640
ENDCHAR
STARTCHAR 02-04-12
ENCODING 9260
SWIDTH 960 0
DWIDTH 12 0
BBX 12 12 0 -2
BITMAP
0000
03e0
7aa0
4be0
4aa0
4be0
4800
4ff0
7aa0
4a60
0340
0c30
ENDCHAR
STARTCHAR 02-04-13
ENCODING 9261
SWIDTH 960 0
DWIDTH 12 0
BBX 12 12 0 -2
BITMAP
0000
0250
7be0
4a40
4a50
4bb0
4c80
4bf0
7a10
4bf0
0210
03f0
ENDCHAR
STARTCHAR 02-04-14
ENCODING 9262
SWIDTH 960 0
DWIDTH 12 0
BBX 12 12 0 -2
BITMAP
0000
0080
7ff0
4a20
4940
4ff0
4800
4be0
7a20
4be0
0220
03e0
ENDCHAR
STARTCHAR 02-04-15
ENCODING 9263
SWIDTH 960 0
DWIDTH 12 0
BBX 12 12 0 -2
BITMAP
0000
0270
7250
5fd0
5270
5250
5750
5570
7550
4550
0790
04b0
ENDCHAR
STARTCHAR 02-04-16
ENCODING 9264
SWIDTH 960 0
DWIDTH 12 0
BBX 12 12 0 -2
BITMAP
0000
0140
7ff0
4940
4880
4940
4e30
4be0
7800
4be0
0220
03e0
ENDCHAR
STARTCHAR 02-04-17
ENCODING 9265
SWIDTH 960 0
DWIDTH 12 0
BBX 12 12 0 -2
BITMAP
0000
01f0
7650
5450
5550
5690
5460
57f0
7290
43f0
0290
03f0
ENDCHAR
STARTCHAR 02-04-18
ENCODING 9266
SWIDTH 960 0
DWIDTH 12 0
BBX 12 12 0 -2
BITMAP
0000
07f0
7ba0
4aa0
4ba0
4a60
4800
4ff0
7ba0
4aa0
03a0
0260
ENDCHAR
STARTCHAR 02-04-19
ENCODING 9267
SWIDTH 960 0
DWIDTH 12 0
BBX 12 12 0 -2
BITMAP
0000
0f80
0880
0f80
3de0
2520
3de0
0200
7ff0
0700
1ac0
6230
ENDCHAR
STARTCHAR 02-04-20
ENCODING 9268
SWIDTH 960 0
DWIDTH 12 0
BBX 12 12 0 -2
BITMAP
0000
0080
7ff0
4be0
4880
4ff0
4940
4ec0
7920
47d0
02a0
0490
ENDCHAR
STARTCHAR 02-04-21
ENCODING 9269
SWIDTH 960 0
DWIDTH 12 0
BBX 12 12 0 -2
BITMAP
0000
0140
7a20
4dd0
4800
4ac0
4a20
4c10
7be0
4aa0
02a0
07f0
ENDCHAR
STARTCHAR 02-04-22
ENCODING 9270
SWIDTH 960 0
DWIDTH 12 0
BBX 12 12 0 -2
BITMAP
0000
0100
7fe0
4900
4fe0
4a40
4ba0
4c20
7fe0
4aa0
0aa0
1ff0
ENDCHAR
STARTCHAR 02-04-23
ENCODING 9271
SWIDTH 960 0
DWIDTH 12 0
BBX 12 12 0 -2
BITMAP
0000
07f0
7800
4be0
4a20
4be0
4ff0
4d50
7e30
47f0
0490
0490
ENDCHAR
STARTCHAR 02-04-24
ENCODING 9272
SWIDTH 960 0
DWIDTH 12 0
BBX 12 12 0 -2
BITMAP
0000
07f0
7140
57f0
5550
5550
57f0
5080
77f0
41c0
02a0
0490
ENDCHAR
STARTCHAR 02-04-25
ENCODING 9273
SWIDTH 960 0
DWIDTH 12 0
BBX 12 12 0 -2
BITMAP
0000
03e0
7aa0
4aa0
4b60
4a20
4be0
4800
7be0
4aa0
02a0
07f0
ENDCHAR
STARTCHAR 02-04-26
ENCODING 9274
SWIDTH 960 0
DWIDTH 12 0
BBX 12 12 0 -2
BITMAP
0000
0080
7be0
4880
4ff0
4880
4be0
4880
7ff0
42a0
0650
09f0
ENDCHAR
STARTCHAR 02-04-27
ENCODING 9275
SWIDTH 960 0
DWIDTH 12 0
BBX 12 12 0 -2
BITMAP
0000
02a0
72a0
5490
57e0
5420
57e0
5420
77e0
6420
07e0
0c30
ENDCHAR
STARTCHAR 02-04-28
ENCODING 9276
SWIDTH 960 0
DWIDTH 12 0
BBX 12 12 0 -2
BITMAP
0000
0080
7fe0
48a0
4ff0
48a0
4ff0
4eb0
7dd0
47f0
05d0
0ab0
ENDCHAR
STARTCHAR 02-04-29
ENCODING 9277
SWIDTH 960 0
DWIDTH 12 0
BBX 12 12 0 -2
BITMAP
0000
07b0
7ff0
57f0
5660
5cb0
57e0
55a0
77e0
67e0
00a0
07d0
ENDCHAR
STARTCHAR 02-04-30
ENCODING 9278
SWIDTH 960 0
DWIDTH 12 0
BBX 12 12 0 -2
BITMAP
0000
0080
7940
4ba0
4aa0
4fd0
4aa0
4b10
7cd0
4320
0040
0780
ENDCHAR
STARTCHAR 02-04-31
ENCODING 9279
SWIDTH 960 0
DWIDTH 12 0
BBX 12 12 0 -2
BITMAP
0000
07f0
7ad0
49b0
4ad0
48d0
4920
4ed0
7860
4990
0060
0380
ENDCHAR
STARTCHAR 02-04-32
ENCODING 9280
SWIDTH 960 0
DWIDTH 12 0
BBX 12 12 0 -2
BITMAP
0000
02a0
74c0
52a0
55d0
57f0
5080
57f0
74a0
4650
0550
09b0
ENDCHAR
STARTCHAR 02-04-33
ENCODING 9281
SWIDTH 960 0
DWIDTH 12 0
BBX 12 12 0 -2
BITMAP
0000
0100
7be0
4a20
4be0
4a20
4be0
4880
7eb0
46b0
0ff0
0080
ENDCHAR
STARTCHAR 02-04-34
ENCODING 9282
SWIDTH 960 0
DWIDTH 12 0
BBX 12 12 0 -2
BITMAP
0000
0770
7550
5770
5550
5770
55d0
5550
75d0
4550
05d0
0530
ENDCHAR
STARTCHAR 02-04-35
ENCODING 9283
SWIDTH 960 0
DWIDTH 12 0
BBX 12 12 0 -2
BITMAP
0000
03f0
7ad0
4bf0
4800
4be0
4aa0
4be0
7aa0
43e0
07f0
0080
ENDCHAR
STARTCHAR 02-04-36
ENCODING 9284
SWIDTH 960 0
DWIDTH 12 0
BBX 12 12 0 -2
BITMAP
0000
07e0
7520
5760
55a0
57e0
5100
57e0
7100
4ff0
06a0
0950
ENDCHAR
STARTCHAR 02-04-37
ENCODING 9285
SWIDTH 960 0
DWIDTH 12 0
BBX 12 12 0 -2
BITMAP
0000
0770
7550
5770
54d0
53b0
5140
57f0
7140
47f0
0140
0230
ENDCHAR
STARTCHAR 02-04-38
ENCODING 9286
SWIDTH 960 0
DWIDTH 12 0
BBX 12 12 0 -2
BITMAP
0000
0080
7ff0
4940
4ff0
4aa0
4be0
4aa0
7be0
4880
03e0
07f0
ENDCHAR
STARTCHAR 02-04-39
ENCODING 9287
SWIDTH 960 0
DWIDTH 12 0
BBX 12 12 0 -2
BITMAP
0000
0080
7880
4940
4be0
4c10
4fe0
4da0
7fe0
4120
0360
0490
ENDCHAR
STARTCHAR 02-04-40
ENCODING 9288
SWIDTH 960 0
DWIDTH 12 0
BBX 12 12 0 -2
BITMAP
0000
0840
75f0
5040
59f0
54a0
51f0
5c40
75f0
45f0
0440
0bf0
ENDCHAR
STARTCHAR 02-04-41
ENCODING 9289
SWIDTH 960 0
DWIDTH 12 0
BBX 12 12 0 -2
BITMAP
0000
0240
7740
5570
5790
5590
5750
5220
7fa0
4720
0950
1290
ENDCHAR
STARTCHAR 02-04-42
ENCODING 9290
SWIDTH 960 0
DWIDTH 12 0
BBX 12 12 0 -2
BITMAP
0000
0970
7bf0
5fc0
5ff0
5930
5ff0
5d70
7f70
5ff0
1ff0
1e30
ENDCHAR
STARTCHAR 02-04-43
ENCODING 9291
SWIDTH 960 0
DWIDTH 12 0
BBX 12 12 0 -2
BITMAP
0000
0ff0
7ff0
5f30
5f30
5ff0
5f20
5f20
7f60
4f70
1770
17d0
ENDCHAR
STARTCHAR 02-04-44
ENCODING 9292
SWIDTH 960 0
DWIDTH 12 0
BBX 12 12 0 -2
BITMAP
0000
0080
77f0
5150
56a0
56a0
5a90
53e0
7220
43e0
0420
0820
ENDCHAR
STARTCHAR 02-04-45
ENCODING 9293
SWIDTH 960 0
DWIDTH 12 0
BBX 12 12 0 -2
BITMAP
0000
01e0
7a40
4ff0
4a90
4bf0
4a90
4bf0
7d50
4bf0
0210
03f0
ENDCHAR
STARTCHAR 02-04-46
ENCODING 9294
SWIDTH 960 0
DWIDTH 12 0
BBX 12 12 0 -2
BITMAP
0000
3de0
2520
7ff0
4200
7fe0
4020
7fe0
4200
7ff0
2520
3de0
ENDCHAR
STARTCHAR 02-04-47
ENCODING 9295
SWIDTH 960 0
DWIDTH 12 0
BBX 12 12 0 -2
BITMAP
0000
0080
77f0
5540
57f0
55c0
57f0
56a0
77e0
4aa0
0be0
1230
ENDCHAR
STARTCHAR 02-04-48
ENCODING 9296
SWIDTH 960 0
DWIDTH 12 0
BBX 12 12 0 -2
BITMAP
0000
0240
7ff0
5540
5ff0
5770
5540
5760
7540
4760
0550
0530
ENDCHAR
STARTCHAR 02-04-49
ENCODING 9297
SWIDTH 960 0
DWIDTH 12 0
BBX 12 12 0 -2
BITMAP
0000
13f0
7c40
1080
7dc0
26a0
3c90
29e0
7f20
3d20
25e0
3d20
ENDCHAR
STARTCHAR 02-04-50
ENCODING 9298
SWIDTH 960 0
DWIDTH 12 0
BBX 12 12 0 -2
BITMAP
0000
13f0
7ed0
3bf0
2800
3be0
02a0
3be0
0ea0
73e0
17f0
3080
ENDCHAR
STARTCHAR 02-04-51
ENCODING 9299
SWIDTH 960 0
DWIDTH 12 0
BBX 12 12 0 -2
BITMAP
0000
7df0
5510
7df0
0160
7d60
55f0
7d60
55f0
7dd0
7ea0
12d0
ENDCHAR
STARTCHAR 02-04-52
ENCODING 9300
SWIDTH 960 0
DWIDTH 12 0
BBX 12 12 0 -2
BITMAP
0000
1080
7ff0
1080
7df0
2520
3de0
2940
7ff0
3de0
2520
3de0
ENDCHAR
STARTCHAR 02-04-53
ENCODING 9301
SWIDTH 960 0
DWIDTH 12 0
BBX 12 12 0 -2
BITMAP
0000
0200
0400
7ff0
4090
4890
4510
4310
4290
4450
5850
7ff0
ENDCHAR
STARTCHAR 02-04-54
ENCODING 9302
SWIDTH 960 0
DWIDTH 12 0
BBX 12 12 0 -2
BITMAP
0000
7ff0
4010
5fd0
5fd0
4610
4f90
5ed0
4210
4210
7ff0
4010
ENDCHAR
STARTCHAR 02-04-55
ENCODING 9303
SWIDTH 960 0
DWIDTH 12 0
BBX 12 12 0 -2
BITMAP
0000
7ff0
4210
4510
4890
7270
4f90
4210
5fd0
4010
7ff0
4010
ENDCHAR
STARTCHAR 02-04-56
ENCODING 9304
SWIDTH 960 0
DWIDTH 12 0
BBX 12 12 0 -2
BITMAP
0000
7ff0
4090
4390
4f90
5e10
5fd0
4f10
4f90
5ad0
7ff0
4010
ENDCHAR
STARTCHAR 02-04-57
ENCODING 9305
SWIDTH 960 0
DWIDTH 12 0
BBX 12 12 0 -2
BITMAP
0000
7ff0
4210
5fd0
5fd0
5fd0
4f90
5fd0
4f90
4f90
7ff0
4010
ENDCHAR
STARTCHAR 02-04-58
ENCODING 9306
SWIDTH 960 0
DWIDTH 12 0
BBX 12 12 0 -2
BITMAP
0000
7ff0
4f90
5fd0
5fd0
4fd0
4f90
4f90
5fd0
5fd0
7ff0
4010
ENDCHAR
STARTCHAR 02-04-59
ENCODING 9307
SWIDTH 960 0
DWIDTH 12 0
BBX 12 12 0 -2
BITMAP
0000
3fc0
1040
0880
0700
0880
7270
0200
3fe0
0200
0200
7ff0
ENDCHAR
STARTCHAR 02-04-60
ENCODING 9308
SWIDTH 960 0
DWIDTH 12 0
BBX 12 12 0 -2
BITMAP
0000
1100
1100
17c0
7fc0
1140
1740
1340
1bc0
6640
0650
0470
ENDCHAR
STARTCHAR 02-04-61
ENCODING 9309
SWIDTH 960 0
DWIDTH 12 0
BBX 12 12 0 -2
BITMAP
0000
17f0
1080
1080
7880
1080
17f0
1080
1880
6080
0080
0380
ENDCHAR
STARTCHAR 02-04-62
ENCODING 9310
SWIDTH 960 0
DWIDTH 12 0
BBX 12 12 0 -2
BITMAP
0000
1100
13c0
1140
7950
1250
14b0
1080
1ff0
6080
0080
0080
ENDCHAR
STARTCHAR 02-04-63
ENCODING 9311
SWIDTH 960 0
DWIDTH 12 0
BBX 12 12 0 -2
BITMAP
0000
1080
1080
1140
7a20
15d0
1000
13e0
1820
6040
0040
0080
ENDCHAR
STARTCHAR 02-04-64
ENCODING 9312
SWIDTH 960 0
DWIDTH 12 0
BBX 12 12 0 -2
BITMAP
0000
1100
1100
11f0
7a20
1320
1540
10c0
1880
60c0
0120
0610
ENDCHAR
STARTCHAR 02-04-65
ENCODING 9313
SWIDTH 960 0
DWIDTH 12 0
BBX 12 12 0 -2
BITMAP
0000
0b80
0880
1040
7ff0
0440
0840
3180
0200
3fe0
0200
7ff0
ENDCHAR
STARTCHAR 02-04-66
ENCODING 9314
SWIDTH 960 0
DWIDTH 12 0
BBX 12 12 0 -2
BITMAP
0000
13e0
1220
1320
7aa0
12a0
17f0
1220
1a20
6420
0420
08e0
ENDCHAR
STARTCHAR 02-04-67
ENCODING 9315
SWIDTH 960 0
DWIDTH 12 0
BBX 12 12 0 -2
BITMAP
0000
1070
1380
13f0
7a10
1210
13f0
1210
1a00
6400
0400
0800
ENDCHAR
STARTCHAR 02-04-68
ENCODING 9316
SWIDTH 960 0
DWIDTH 12 0
BBX 12 12 0 -2
BITMAP
0000
1080
1080
17f0
7c10
1200
1260
1380
1a00
6200
0210
01f0
ENDCHAR
STARTCHAR 02-04-69
ENCODING 9317
SWIDTH 960 0
DWIDTH 12 0
BBX 12 12 0 -2
BITMAP
0000
13f0
1040
1080
78c0
11a0
1290
1490
1880
6080
0080
03f0
ENDCHAR
STARTCHAR 02-04-70
ENCODING 9318
SWIDTH 960 0
DWIDTH 12 0
BBX 12 12 0 -2
BITMAP
0000
2240
2240
24f0
7550
2950
2650
2450
3690
6990
0f10
0960
ENDCHAR
STARTCHAR 02-04-71
ENCODING 9319
SWIDTH 960 0
DWIDTH 12 0
BBX 12 12 0 -2
BITMAP
0000
0200
1fc0
0200
7ff0
0480
0ae0
7200
1fc0
0200
0200
7ff0
ENDCHAR
STARTCHAR 02-04-72
ENCODING 9320
SWIDTH 960 0
DWIDTH 12 0
BBX 12 12 0 -2
BITMAP
0000
1060
1380
1200
7a00
13f0
1240
1240
1a40
6240
0240
0ff0
ENDCHAR
STARTCHAR 02-04-73
ENCODING 9321
SWIDTH 960 0
DWIDTH 12 0
BBX 12 12 0 -2
BITMAP
0000
1060
1380
1280
7a80
13f0
1280
1240
1a40
6350
0430
0390
ENDCHAR
STARTCHAR 02-04-74
ENCODING 9322
SWIDTH 960 0
DWIDTH 12 0
BBX 12 12 0 -2
BITMAP
0000
13e0
1220
1220
7be0
1240
1240
1520
1ca0
6810
0300
00c0
ENDCHAR
STARTCHAR 02-04-75
ENCODING 9323
SWIDTH 960 0
DWIDTH 12 0
BBX 12 12 0 -2
BITMAP
0000
1080
1140
1220
7c10
13e0
1000
17f0
1940
6220
03e0
0610
ENDCHAR
STARTCHAR 02-04-76
ENCODING 9324
SWIDTH 960 0
DWIDTH 12 0
BBX 12 12 0 -2
BITMAP
0000
1240
1240
1240
7fe0
1240
1240
1240
1ff0
6240
0220
0420
ENDCHAR
STARTCHAR 02-04-77
ENCODING 9325
SWIDTH 960 0
DWIDTH 12 0
BBX 12 12 0 -2
BITMAP
0000
0200
3fe0
0200
0200
7ff0
1080
1080
7fe0
1080
1c80
73f0
ENDCHAR
STARTCHAR 02-04-78
ENCODING 9326
SWIDTH 960 0
DWIDTH 12 0
BBX 12 12 0 -2
BITMAP
0000
11c0
1240
1480
7bf0
1200
13e0
1320
1b20
6560
0510
08f0
ENDCHAR
STARTCHAR 02-04-79
ENCODING 9327
SWIDTH 960 0
DWIDTH 12 0
BBX 12 12 0 -2
BITMAP
0000
1040
13f0
1210
7c60
1380
1080
10f0
1f80
6080
0090
0070
ENDCHAR
STARTCHAR 02-04-80
ENCODING 9328
SWIDTH 960 0
DWIDTH 12 0
BBX 12 12 0 -2
BITMAP
0000
1080
17f0
1410
7840
1040
17f0
1240
1940
6140
0040
00c0
ENDCHAR
STARTCHAR 02-04-81
ENCODING 9329
SWIDTH 960 0
DWIDTH 12 0
BBX 12 12 0 -2
BITMAP
0000
1080
12e0
1280
7ff0
1280
1290
1490
19a0
6040
0180
0600
ENDCHAR
STARTCHAR 02-04-82
ENCODING 9330
SWIDTH 960 0
DWIDTH 12 0
BBX 12 12 0 -2
BITMAP
0000
1080
13e0
1080
7880
17f0
1140
1360
1d50
6140
0240
04c0
ENDCHAR
STARTCHAR 02-04-83
ENCODING 9331
SWIDTH 960 0
DWIDTH 12 0
BBX 12 12 0 -2
BITMAP
0000
1080
13e0
1220
7be0
1220
13e0
1310
1aa0
6240
03a0
0610
ENDCHAR
STARTCHAR 02-04-84
ENCODING 9332
SWIDTH 960 0
DWIDTH 12 0
BBX 12 12 0 -2
BITMAP
0000
1220
1140
17f0
7940
1140
1550
1350
1b60
6140
0140
07f0
ENDCHAR
STARTCHAR 02-04-85
ENCODING 9333
SWIDTH 960 0
DWIDTH 12 0
BBX 12 12 0 -2
BITMAP
0000
13f0
1210
13f0
7a40
13f0
1240
13f0
1b10
6510
05f0
0910
ENDCHAR
STARTCHAR 02-04-86
ENCODING 9334
SWIDTH 960 0
DWIDTH 12 0
BBX 12 12 0 -2
BITMAP
0000
1080
17f0
1410
7fe0
1080
1280
12f0
1a80
6280
0580
04f0
ENDCHAR
STARTCHAR 02-04-87
ENCODING 9335
SWIDTH 960 0
DWIDTH 12 0
BBX 12 12 0 -2
BITMAP
0000
1080
13f0
1210
7d00
11f0
12d0
14d0
1b70
6140
0250
0430
ENDCHAR
STARTCHAR 02-04-88
ENCODING 9336
SWIDTH 960 0
DWIDTH 12 0
BBX 12 12 0 -2
BITMAP
0000
1070
1380
1220
7a90
1450
1480
17f0
19c0
62a0
0490
0080
ENDCHAR
STARTCHAR 02-04-89
ENCODING 9337
SWIDTH 960 0
DWIDTH 12 0
BBX 12 12 0 -2
BITMAP
0000
13e0
1200
13e0
7a00
13e0
1200
17f0
1aa0
6240
03a0
0610
ENDCHAR
STARTCHAR 02-04-90
ENCODING 9338
SWIDTH 960 0
DWIDTH 12 0
BBX 12 12 0 -2
BITMAP
0000
13e0
1220
13e0
7a20
13e0
1100
13f0
1d50
6650
0090
0360
ENDCHAR
STARTCHAR 02-04-91
ENCODING 9339
SWIDTH 960 0
DWIDTH 12 0
BBX 12 12 0 -2
BITMAP
0000
1080
17f0
13e0
7a20
13e0
1000
13e0
1840
67f0
0080
0180
ENDCHAR
STARTCHAR 02-04-92
ENCODING 9340
SWIDTH 960 0
DWIDTH 12 0
BBX 12 12 0 -2
BITMAP
0000
13e0
1020
17f0
7820
13e0
13f0
1490
1be0
62a0
02c0
0080
ENDCHAR
STARTCHAR 02-04-93
ENCODING 9341
SWIDTH 960 0
DWIDTH 12 0
BBX 12 12 0 -2
BITMAP
0000
1100
17e0
1430
7ff0
1430
17f0
13c0
1ac0
62c0
06d0
0470
ENDCHAR
STARTCHAR 02-04-94
ENCODING 9342
SWIDTH 960 0
DWIDTH 12 0
BBX 12 12 0 -2
BITMAP
0000
12a0
17f0
12a0
7ae0
13f0
1080
17f0
19c0
62a0
0490
0080
ENDCHAR
STARTCHAR 02-05-01
ENCODING 9505
SWIDTH 960 0
DWIDTH 12 0
BBX 12 12 0 -2
BITMAP
0000
12e0
1220
1220
7df0
1500
15f0
1680
1ff0
64c0
0520
0610
ENDCHAR
STARTCHAR 02-05-02
ENCODING 9506
SWIDTH 960 0
DWIDTH 12 0
BBX 12 12 0 -2
BITMAP
0000
17f0
1080
17f0
7d50
1550
15d0
1590
1ff0
6080
01c0
0670
ENDCHAR
STARTCHAR 02-05-03
ENCODING 9507
SWIDTH 960 0
DWIDTH 12 0
BBX 12 12 0 -2
BITMAP
0000
3de0
7df0
7d30
7d30
0d30
7df0
7d00
3f00
3fe0
0200
7ff0
ENDCHAR
STARTCHAR 02-05-04
ENCODING 9508
SWIDTH 960 0
DWIDTH 12 0
BBX 12 12 0 -2
BITMAP
0000
1060
1380
17f0
7be0
12a0
13e0
12a0
1be0
63e0
0080
07f0
ENDCHAR
STARTCHAR 02-05-05
ENCODING 9509
SWIDTH 960 0
DWIDTH 12 0
BBX 12 12 0 -2
BITMAP
0000
39c0
3be0
7fe0
7fe0
7be0
7a20
57f0
0200
3fe0
0200
7ff0
ENDCHAR
STARTCHAR 02-05-06
ENCODING 9510
SWIDTH 960 0
DWIDTH 12 0
BBX 12 12 0 -2
BITMAP
0000
1080
16b0
1080
7f70
13e0
1220
17f0
1a20
63e0
0220
0260
ENDCHAR
STARTCHAR 02-05-07
ENCODING 9511
SWIDTH 960 0
DWIDTH 12 0
BBX 12 12 0 -2
BITMAP
0000
13e0
1220
13e0
7a20
13e0
17f0
1550
1bb0
6550
0190
0330
ENDCHAR
STARTCHAR 02-05-08
ENCODING 9512
SWIDTH 960 0
DWIDTH 12 0
BBX 12 12 0 -2
BITMAP
0000
1140
1220
15d0
7800
12c0
1220
1410
1be0
62a0
02a0
07f0
ENDCHAR
STARTCHAR 02-05-09
ENCODING 9513
SWIDTH 960 0
DWIDTH 12 0
BBX 12 12 0 -2
BITMAP
0000
3dc0
3de0
7ea0
7fa0
7de0
7f30
1030
3fe0
3fe0
0200
7ff0
ENDCHAR
STARTCHAR 02-05-10
ENCODING 9514
SWIDTH 960 0
DWIDTH 12 0
BBX 12 12 0 -2
BITMAP
0000
1080
1140
13a0
7aa0
17d0
12a0
1310
1cd0
6320
0040
0780
ENDCHAR
STARTCHAR 02-05-11
ENCODING 9515
SWIDTH 960 0
DWIDTH 12 0
BBX 12 12 0 -2
BITMAP
0000
3de0
7de0
7de0
7fe0
08c0
78c0
7d70
3e20
3fe0
0200
7ff0
ENDCHAR
STARTCHAR 02-05-12
ENCODING 9516
SWIDTH 960 0
DWIDTH 12 0
BBX 12 12 0 -2
BITMAP
0000
09e0
6ff0
7be0
7fa0
2ff0
2b20
6920
6ae0
3ff0
0200
7ff0
ENDCHAR
STARTCHAR 02-05-13
ENCODING 9517
SWIDTH 960 0
DWIDTH 12 0
BBX 12 12 0 -2
BITMAP
0000
1240
17f0
13c0
7bc0
17f0
17f0
17e0
1fe0
67f0
0080
07f0
ENDCHAR
STARTCHAR 02-05-14
ENCODING 9518
SWIDTH 960 0
DWIDTH 12 0
BBX 12 12 0 -2
BITMAP
0000
1080
1490
17f0
7a80
17f0
1480
17f0
1c80
67f0
0480
07f0
ENDCHAR
STARTCHAR 02-05-15
ENCODING 9519
SWIDTH 960 0
DWIDTH 12 0
BBX 12 12 0 -2
BITMAP
0000
1080
13e0
1080
7ff0
1220
1770
1220
1f70
67f0
0290
0470
ENDCHAR
STARTCHAR 02-05-16
ENCODING 9520
SWIDTH 960 0
DWIDTH 12 0
BBX 12 12 0 -2
BITMAP
0000
7c80
7cf0
3db0
3f30
3ce0
3ce0
7ee0
3bb0
1390
3fe0
7ff0
ENDCHAR
STARTCHAR 02-05-17
ENCODING 9521
SWIDTH 960 0
DWIDTH 12 0
BBX 12 12 0 -2
BITMAP
0000
13a0
14f0
1340
7e30
11c0
13e0
1220
1be0
6220
0140
07f0
ENDCHAR
STARTCHAR 02-05-18
ENCODING 9522
SWIDTH 960 0
DWIDTH 12 0
BBX 12 12 0 -2
BITMAP
0000
1080
1360
15d0
7ff0
16b0
15d0
17f0
1a20
63e0
0220
03e0
ENDCHAR
STARTCHAR 02-05-19
ENCODING 9523
SWIDTH 960 0
DWIDTH 12 0
BBX 12 12 0 -2
BITMAP
0000
17f0
13e0
12a0
7be0
12a0
17f0
13e0
1aa0
63e0
02a0
07f0
ENDCHAR
STARTCHAR 02-05-20
ENCODING 9524
SWIDTH 960 0
DWIDTH 12 0
BBX 12 12 0 -2
BITMAP
0000
2230
1fc0
4ff0
2aa0
0fa0
1aa0
2fa0
4220
3fe0
0200
7ff0
ENDCHAR
STARTCHAR 02-05-21
ENCODING 9525
SWIDTH 960 0
DWIDTH 12 0
BBX 12 12 0 -2
BITMAP
0000
17f0
17f0
17f0
7ff0
17e0
17c0
1080
1ee0
66e0
0280
07f0
ENDCHAR
STARTCHAR 02-05-22
ENCODING 9526
SWIDTH 960 0
DWIDTH 12 0
BBX 12 12 0 -2
BITMAP
0000
0200
7ff0
0600
3fe0
3fe0
7ff0
5f90
4f90
1f80
18b0
70f0
ENDCHAR
STARTCHAR 02-05-23
ENCODING 9527
SWIDTH 960 0
DWIDTH 12 0
BBX 12 12 0 -2
BITMAP
0000
0200
7ff0
3fe0
3fe0
1fc0
1040
1fc0
18c0
18c0
7ff0
7ff0
ENDCHAR
STARTCHAR 02-05-24
ENCODING 9528
SWIDTH 960 0
DWIDTH 12 0
BBX 12 12 0 -2
BITMAP
0000
0400
0f80
3880
2f80
0f00
7ff0
0160
1fe0
1900
3fe0
0100
ENDCHAR
STARTCHAR 02-05-25
ENCODING 9529
SWIDTH 960 0
DWIDTH 12 0
BBX 12 12 0 -2
BITMAP
0000
0400
0f80
3980
2f80
0f00
7bf0
1fc0
1fc0
1fc0
3fe0
0200
ENDCHAR
STARTCHAR 02-05-26
ENCODING 9530
SWIDTH 960 0
DWIDTH 12 0
BBX 12 12 0 -2
BITMAP
0000
0400
0c80
3fc0
0d60
19b0
34e0
0fc0
3d80
1700
1fc0
7cf0
ENDCHAR
STARTCHAR 02-05-27
ENCODING 9531
SWIDTH 960 0
DWIDTH 12 0
BBX 12 12 0 -2
BITMAP
0000
0800
1fc0
1f80
2fc0
0fc0
0fc0
0780
0fc0
3fc0
0f80
3df0
ENDCHAR
STARTCHAR 02-05-28
ENCODING 9532
SWIDTH 960 0
DWIDTH 12 0
BBX 12 12 0 -2
BITMAP
0000
0880
7ff0
1760
3ff0
77f0
7fd0
7df0
0880
1fc0
7f80
7ff0
ENDCHAR
STARTCHAR 02-05-29
ENCODING 9533
SWIDTH 960 0
DWIDTH 12 0
BBX 12 12 0 -2
BITMAP
0000
0fc0
3fc0
0700
7ff0
4fd0
4fd0
1fe0
1fe0
1fe0
1fe0
3cf0
ENDCHAR
STARTCHAR 02-05-30
ENCODING 9534
SWIDTH 960 0
DWIDTH 12 0
BBX 12 12 0 -2
BITMAP
0000
0000
0200
3fe0
0200
3fe0
0500
7ff0
0880
1040
6030
0000
ENDCHAR
STARTCHAR 02-05-31
ENCODING 9535
SWIDTH 960 0
DWIDTH 12 0
BBX 12 12 0 -2
BITMAP
0000
1fc0
0040
7ff0
0040
0040
1fc0
0200
7ff0
0200
0d80
7070
ENDCHAR
STARTCHAR 02-05-32
ENCODING 9536
SWIDTH 960 0
DWIDTH 12 0
BBX 12 12 0 -2
BITMAP
0000
0200
7ff0
0500
0880
1040
6fb0
0000
3fe0
0840
13a0
7c10
ENDCHAR
STARTCHAR 02-05-33
ENCODING 9537
SWIDTH 960 0
DWIDTH 12 0
BBX 12 12 0 -2
BITMAP
0000
10f0
7e90
1290
1290
22f0
4c90
0200
7ff0
0200
0d80
7070
ENDCHAR
STARTCHAR 02-05-34
ENCODING 9538
SWIDTH 960 0
DWIDTH 12 0
BBX 12 12 0 -2
BITMAP
0000
0200
7ff0
0500
0880
1fc0
7030
1fc0
1040
1fc0
1000
3fe0
ENDCHAR
STARTCHAR 02-05-35
ENCODING 9539
SWIDTH 960 0
DWIDTH 12 0
BBX 12 12 0 -2
BITMAP
0000
0200
1fc0
1040
1fc0
1fc0
1040
1fc0
0220
7ff0
0d80
7070
ENDCHAR
STARTCHAR 02-05-36
ENCODING 9540
SWIDTH 960 0
DWIDTH 12 0
BBX 12 12 0 -2
BITMAP
0000
1fc0
3fe0
1fc0
1fc0
1640
1fc0
1fc0
3fe0
1fc0
0d80
38e0
ENDCHAR
STARTCHAR 02-05-37
ENCODING 9541
SWIDTH 960 0
DWIDTH 12 0
BBX 12 12 0 -2
BITMAP
0000
0200
7ff0
0500
18c0
7bf0
3e20
27e0
3fe0
27e0
3e20
06e0
ENDCHAR
STARTCHAR 02-05-38
ENCODING 9542
SWIDTH 960 0
DWIDTH 12 0
BBX 12 12 0 -2
BITMAP
0000
0200
7ff0
0500
18c0
7ff0
37a0
3fe0
37a0
3fe0
2620
6ee0
ENDCHAR
STARTCHAR 02-05-39
ENCODING 9543
SWIDTH 960 0
DWIDTH 12 0
BBX 12 12 0 -2
BITMAP
0000
0680
3880
09e0
7ea0
2aa0
7ff0
2a80
7f40
0940
0e20
7210
ENDCHAR
STARTCHAR 02-05-40
ENCODING 9544
SWIDTH 960 0
DWIDTH 12 0
BBX 12 12 0 -2
BITMAP
0000
27f0
2080
7880
2880
2880
2880
4880
7080
2880
2880
4380
ENDCHAR
STARTCHAR 02-05-41
ENCODING 9545
SWIDTH 960 0
DWIDTH 12 0
BBX 12 12 0 -2
BITMAP
0000
27c0
2240
7a40
2a40
2a70
2a50
4a10
7210
2c10
2410
4860
ENDCHAR
STARTCHAR 02-05-42
ENCODING 9546
SWIDTH 960 0
DWIDTH 12 0
BBX 12 12 0 -2
BITMAP
0000
2020
20c0
7b80
2880
28f0
2f80
4880
7080
2890
2890
4070
ENDCHAR
STARTCHAR 02-05-43
ENCODING 9547
SWIDTH 960 0
DWIDTH 12 0
BBX 12 12 0 -2
BITMAP
0000
1fc0
1040
1fc0
1040
1040
1fc0
0400
7ff0
1880
0f00
79f0
ENDCHAR
STARTCHAR 02-05-44
ENCODING 9548
SWIDTH 960 0
DWIDTH 12 0
BBX 12 12 0 -2
BITMAP
0000
23f0
2210
7a10
2bf0
2a80
2ab0
4ac0
7280
2a90
2490
4870
ENDCHAR
STARTCHAR 02-05-45
ENCODING 9549
SWIDTH 960 0
DWIDTH 12 0
BBX 12 12 0 -2
BITMAP
0000
2300
2080
7920
2920
2940
2b60
4b90
7590
2900
2920
46e0
ENDCHAR
STARTCHAR 02-05-46
ENCODING 9550
SWIDTH 960 0
DWIDTH 12 0
BBX 12 12 0 -2
BITMAP
0000
2080
2080
7940
2a20
2dd0
2800
4fe0
7120
2920
29c0
4100
ENDCHAR
STARTCHAR 02-05-47
ENCODING 9551
SWIDTH 960 0
DWIDTH 12 0
BBX 12 12 0 -2
BITMAP
0000
2fe0
2aa0
7aa0
2aa0
2aa0
2ff0
4aa0
7aa0
2aa0
2aa0
4820
ENDCHAR
STARTCHAR 02-05-48
ENCODING 9552
SWIDTH 960 0
DWIDTH 12 0
BBX 12 12 0 -2
BITMAP
0000
2080
2080
7ff0
2880
2880
2be0
4800
73e0
2a20
2be0
4220
ENDCHAR
STARTCHAR 02-05-49
ENCODING 9553
SWIDTH 960 0
DWIDTH 12 0
BBX 12 12 0 -2
BITMAP
0000
2080
2080
7ff0
2a20
2a20
2d50
4940
7080
29c0
2240
4c30
ENDCHAR
STARTCHAR 02-05-50
ENCODING 9554
SWIDTH 960 0
DWIDTH 12 0
BBX 12 12 0 -2
BITMAP
0000
2060
2380
7a00
2bf0
2a00
2a00
4be0
7320
2d20
25e0
4920
ENDCHAR
STARTCHAR 02-05-51
ENCODING 9555
SWIDTH 960 0
DWIDTH 12 0
BBX 12 12 0 -2
BITMAP
0000
11f0
7e40
2440
7c40
7e40
73f0
7e40
2440
6c40
7c40
7640
ENDCHAR
STARTCHAR 02-05-52
ENCODING 9556
SWIDTH 960 0
DWIDTH 12 0
BBX 12 12 0 -2
BITMAP
0000
27f0
2000
7be0
2a20
2a20
2be0
4a20
73e0
2a20
2800
47f0
ENDCHAR
STARTCHAR 02-05-53
ENCODING 9557
SWIDTH 960 0
DWIDTH 12 0
BBX 12 12 0 -2
BITMAP
0000
23e0
23f0
7930
2f60
2b60
2ff0
4fb0
77e0
2e00
2a10
43f0
ENDCHAR
STARTCHAR 02-05-54
ENCODING 9558
SWIDTH 960 0
DWIDTH 12 0
BBX 12 12 0 -2
BITMAP
0000
2240
2240
7a40
2ff0
2b40
2e40
4e40
7640
2e40
2be0
43e0
ENDCHAR
STARTCHAR 02-05-55
ENCODING 9559
SWIDTH 960 0
DWIDTH 12 0
BBX 12 12 0 -2
BITMAP
0000
20a0
2090
7ff0
2880
2ca0
2aa0
49c0
72c0
2ca0
2890
4380
ENDCHAR
STARTCHAR 02-05-56
ENCODING 9560
SWIDTH 960 0
DWIDTH 12 0
BBX 12 12 0 -2
BITMAP
0000
23f0
2290
7bf0
2a90
2a90
2bf0
4880
7080
29e0
2880
47f0
ENDCHAR
STARTCHAR 02-05-57
ENCODING 9561
SWIDTH 960 0
DWIDTH 12 0
BBX 12 12 0 -2
BITMAP
0000
20a0
2090
7ff0
2c80
2f40
2d50
4d50
7560
2e50
24b0
4b10
ENDCHAR
STARTCHAR 02-05-58
ENCODING 9562
SWIDTH 960 0
DWIDTH 12 0
BBX 12 12 0 -2
BITMAP
0000
2730
21c0
7a40
2f40
29f0
2940
4d40
7240
2af0
2500
44f0
ENDCHAR
STARTCHAR 02-05-59
ENCODING 9563
SWIDTH 960 0
DWIDTH 12 0
BBX 12 12 0 -2
BITMAP
0000
2140
2120
7a10
2ff0
2a10
2bf0
4940
7140
2940
2a50
4430
ENDCHAR
STARTCHAR 02-05-60
ENCODING 9564
SWIDTH 960 0
DWIDTH 12 0
BBX 12 12 0 -2
BITMAP
0000
2100
2120
7a70
2f90
2a00
2be0
4c80
77f0
2880
2940
4630
ENDCHAR
STARTCHAR 02-05-61
ENCODING 9565
SWIDTH 960 0
DWIDTH 12 0
BBX 12 12 0 -2
BITMAP
0000
2080
27f0
7be0
28a0
2ff0
28a0
4be0
7080
2ae0
2a80
45f0
ENDCHAR
STARTCHAR 02-05-62
ENCODING 9566
SWIDTH 960 0
DWIDTH 12 0
BBX 12 12 0 -2
BITMAP
0000
2080
20f0
7880
2be0
2a20
2be0
4a20
73e0
2880
27f0
4080
ENDCHAR
STARTCHAR 02-05-63
ENCODING 9567
SWIDTH 960 0
DWIDTH 12 0
BBX 12 12 0 -2
BITMAP
0000
7ff0
1df0
7fb0
3e60
68e0
0f90
0400
7ff0
1880
0f00
78f0
ENDCHAR
STARTCHAR 02-05-64
ENCODING 9568
SWIDTH 960 0
DWIDTH 12 0
BBX 12 12 0 -2
BITMAP
0000
2080
23e0
7880
2be0
2940
2ff0
4be0
7630
2be0
2a20
43e0
ENDCHAR
STARTCHAR 02-05-65
ENCODING 9569
SWIDTH 960 0
DWIDTH 12 0
BBX 12 12 0 -2
BITMAP
0000
2080
20f0
7880
2be0
2a20
2be0
4a20
73e0
2a20
2be0
4630
ENDCHAR
STARTCHAR 02-05-66
ENCODING 9570
SWIDTH 960 0
DWIDTH 12 0
BBX 12 12 0 -2
BITMAP
0000
22a0
27f0
7aa0
2ae0
2bf0
2880
4ff0
71c0
2aa0
2c90
4080
ENDCHAR
STARTCHAR 02-05-67
ENCODING 9571
SWIDTH 960 0
DWIDTH 12 0
BBX 12 12 0 -2
BITMAP
0000
2100
27f0
7be0
2fe0
2bf0
2be0
4bf0
73f0
2bf0
2a30
4270
ENDCHAR
STARTCHAR 02-05-68
ENCODING 9572
SWIDTH 960 0
DWIDTH 12 0
BBX 12 12 0 -2
BITMAP
0000
27f0
25d0
7c10
2dd0
2800
2be0
4a20
73e0
2be0
2a20
43e0
ENDCHAR
STARTCHAR 02-05-69
ENCODING 9573
SWIDTH 960 0
DWIDTH 12 0
BBX 12 12 0 -2
BITMAP
0000
21c0
23e0
7fe0
29c0
2f80
2fe0
4f80
77f0
2ff0
2ab0
43f0
ENDCHAR
STARTCHAR 02-05-70
ENCODING 9574
SWIDTH 960 0
DWIDTH 12 0
BBX 12 12 0 -2
BITMAP
0000
2080
23e0
7a20
2be0
2a20
2be0
4a20
73e0
2950
2b10
44f0
ENDCHAR
STARTCHAR 02-05-71
ENCODING 9575
SWIDTH 960 0
DWIDTH 12 0
BBX 12 12 0 -2
BITMAP
0000
3940
2d60
2fe0
3ac0
2ff0
2e60
3f30
2fe0
2bc0
4bc0
5f70
ENDCHAR
STARTCHAR 02-05-72
ENCODING 9576
SWIDTH 960 0
DWIDTH 12 0
BBX 12 12 0 -2
BITMAP
0000
2240
2a40
7af0
2f90
2890
2f50
4d20
75a0
2d20
2950
4090
ENDCHAR
STARTCHAR 02-05-73
ENCODING 9577
SWIDTH 960 0
DWIDTH 12 0
BBX 12 12 0 -2
BITMAP
0000
2100
23f0
7a90
2bf0
2a90
2bf0
49a0
71d0
2af0
2290
4470
ENDCHAR
STARTCHAR 02-05-74
ENCODING 9578
SWIDTH 960 0
DWIDTH 12 0
BBX 12 12 0 -2
BITMAP
0000
23e0
2220
7be0
2a20
2ff0
2d50
4ff0
77e0
2a20
29c0
4670
ENDCHAR
STARTCHAR 02-05-75
ENCODING 9579
SWIDTH 960 0
DWIDTH 12 0
BBX 12 12 0 -2
BITMAP
0000
2080
27f0
7940
2ff0
2a20
2be0
4a20
73e0
2880
2ff0
4080
ENDCHAR
STARTCHAR 02-05-76
ENCODING 9580
SWIDTH 960 0
DWIDTH 12 0
BBX 12 12 0 -2
BITMAP
0000
3de0
3de0
7fc0
3cc0
7f30
3ff0
7ff0
7ff0
78c0
7f80
5fe0
ENDCHAR
STARTCHAR 02-05-77
ENCODING 9581
SWIDTH 960 0
DWIDTH 12 0
BBX 12 12 0 -2
BITMAP
0000
23f0
23f0
7ff0
2ff0
2ff0
2ff0
4ff0
73f0
2bf0
29a0
4060
ENDCHAR
STARTCHAR 02-05-78
ENCODING 9582
SWIDTH 960 0
DWIDTH 12 0
BBX 12 12 0 -2
BITMAP
0000
2240
2fc0
7a70
2fd0
2aa0
2fa0
4a20
7720
2ee0
2a50
4290
ENDCHAR
STARTCHAR 02-05-79
ENCODING 9583
SWIDTH 960 0
DWIDTH 12 0
BBX 12 12 0 -2
BITMAP
0000
23e0
2080
7bf0
2bf0
2ff0
2be0
49e0
77e0
29e0
29e0
41c0
ENDCHAR
STARTCHAR 02-05-80
ENCODING 9584
SWIDTH 960 0
DWIDTH 12 0
BBX 12 12 0 -2
BITMAP
0000
2200
23f0
7ea0
2aa0
2ff0
2aa0
4aa0
77f0
2aa0
2550
4550
ENDCHAR
STARTCHAR 02-05-81
ENCODING 9585
SWIDTH 960 0
DWIDTH 12 0
BBX 12 12 0 -2
BITMAP
0000
2060
23a0
7e90
2be0
2a20
2bf0
4a10
73f0
2c10
2b50
42a0
ENDCHAR
STARTCHAR 02-05-82
ENCODING 9586
SWIDTH 960 0
DWIDTH 12 0
BBX 12 12 0 -2
BITMAP
0000
2080
23e0
7880
2ff0
2920
2ff0
49a0
7670
2ff0
2150
4630
ENDCHAR
STARTCHAR 02-05-83
ENCODING 9587
SWIDTH 960 0
DWIDTH 12 0
BBX 12 12 0 -2
BITMAP
0000
2080
27f0
7ff0
2dd0
2d50
2dd0
4ff0
7220
2be0
2a20
47f0
ENDCHAR
STARTCHAR 02-05-84
ENCODING 9588
SWIDTH 960 0
DWIDTH 12 0
BBX 12 12 0 -2
BITMAP
0000
0200
7ff0
4000
3fe0
1040
1fc0
74f0
5f50
7570
76d0
5950
ENDCHAR
STARTCHAR 02-05-85
ENCODING 9589
SWIDTH 960 0
DWIDTH 12 0
BBX 12 12 0 -2
BITMAP
0000
23f0
23f0
7bf0
2ff0
2ff0
2ff0
4ed0
76d0
2ff0
2af0
42f0
ENDCHAR
STARTCHAR 02-05-86
ENCODING 9590
SWIDTH 960 0
DWIDTH 12 0
BBX 12 12 0 -2
BITMAP
0000
2760
7fe0
2760
7ff0
7770
7ff0
2720
7ff0
1880
0f00
79f0
ENDCHAR
STARTCHAR 02-05-87
ENCODING 9591
SWIDTH 960 0
DWIDTH 12 0
BBX 12 12 0 -2
BITMAP
0000
3fc0
0080
0100
0200
0200
03e0
0200
0200
0200
0200
0e00
ENDCHAR
STARTCHAR 02-05-88
ENCODING 9592
SWIDTH 960 0
DWIDTH 12 0
BBX 12 12 0 -2
BITMAP
0000
0fc0
0080
7ff0
0200
0200
3fe0
0840
1cf0
7380
1080
3180
ENDCHAR
STARTCHAR 02-05-89
ENCODING 9593
SWIDTH 960 0
DWIDTH 12 0
BBX 12 12 0 -2
BITMAP
0000
3de0
7de0
7de0
7cc0
7dc0
3f60
0f80
0300
7ff0
0200
0e00
ENDCHAR
STARTCHAR 02-05-90
ENCODING 9594
SWIDTH 960 0
DWIDTH 12 0
BBX 12 12 0 -2
BITMAP
0000
54c0
7ff0
3db0
7ff0
7df0
7ff0
7cc0
3f80
7ff0
0200
0600
ENDCHAR
STARTCHAR 02-05-91
ENCODING 9595
SWIDTH 960 0
DWIDTH 12 0
BBX 12 12 0 -2
BITMAP
0000
2760
7fe0
2760
7ff0
7770
7ff0
3fa0
1f80
7ff0
0200
0600
ENDCHAR
STARTCHAR 02-05-92
ENCODING 9596
SWIDTH 960 0
DWIDTH 12 0
BBX 12 12 0 -2
BITMAP
0000
0200
3ff0
2010
4000
3fe0
0200
0200
0200
0200
0200
0e00
ENDCHAR
STARTCHAR 02-05-93
ENCODING 9597
SWIDTH 960 0
DWIDTH 12 0
BBX 12 12 0 -2
BITMAP
0000
0200
3ff0
2010
4400
0400
3f80
0480
0480
0890
0890
3070
ENDCHAR
STARTCHAR 02-05-94
ENCODING 9598
SWIDTH 960 0
DWIDTH 12 0
BBX 12 12 0 -2
BITMAP
0000
0200
3ff0
2010
4000
1fc0
0000
7ff0
0200
0200
0200
0e00
ENDCHAR
STARTCHAR 02-08-01
ENCODING 10273
SWIDTH 960 0
DWIDTH 12 0
BBX 12 12 0 -2
BITMAP
0000
0200
3ff0
2010
5c80
0480
3d80
7d00
3d20
0f20
0a60
3ff0
ENDCHAR
STARTCHAR 02-08-02
ENCODING 10274
SWIDTH 960 0
DWIDTH 12 0
BBX 12 12 0 -2
BITMAP
0000
0200
3ff0
2110
4140
3fe0
2120
3fa0
24c0
2cf0
69f0
6b60
ENDCHAR
STARTCHAR 02-08-03
ENCODING 10275
SWIDTH 960 0
DWIDTH 12 0
BBX 12 12 0 -2
BITMAP
0000
0200
3ff0
2010
7e00
25f0
3d30
3d30
3de0
24c0
7df0
6530
ENDCHAR
STARTCHAR 02-08-04
ENCODING 10276
SWIDTH 960 0
DWIDTH 12 0
BBX 12 12 0 -2
BITMAP
0000
0200
3ff0
21d0
4fc0
1ec0
1240
7ff0
0e80
1ec0
3ae0
3260
ENDCHAR
STARTCHAR 02-08-05
ENCODING 10277
SWIDTH 960 0
DWIDTH 12 0
BBX 12 12 0 -2
BITMAP
0000
0200
3ff0
21d0
5fc0
1f00
1fc0
1fc0
3fe0
3fe0
2fe0
2c60
ENDCHAR
STARTCHAR 02-08-06
ENCODING 10278
SWIDTH 960 0
DWIDTH 12 0
BBX 12 12 0 -2
BITMAP
0000
0200
3ff0
2810
4ff0
2980
3fe0
0ff0
3ff0
3ff0
2e30
6e70
ENDCHAR
STARTCHAR 02-08-07
ENCODING 10279
SWIDTH 960 0
DWIDTH 12 0
BBX 12 12 0 -2
BITMAP
0000
0200
3ff0
33d0
5bc0
07e0
3fe0
1ff0
0be0
1bc0
31c0
7770
ENDCHAR
STARTCHAR 02-08-08
ENCODING 10280
SWIDTH 960 0
DWIDTH 12 0
BBX 12 12 0 -2
BITMAP
0000
10c0
7cc0
57f0
7cc0
38c0
3bf0
7dc0
38c0
79e0
6920
7f30
ENDCHAR
STARTCHAR 02-08-09
ENCODING 10281
SWIDTH 960 0
DWIDTH 12 0
BBX 12 12 0 -2
BITMAP
0000
0200
3fe0
6130
3be0
7fc0
7be0
7ff0
7be0
7fc0
7be0
67f0
ENDCHAR
STARTCHAR 02-08-10
ENCODING 10282
SWIDTH 960 0
DWIDTH 12 0
BBX 12 12 0 -2
BITMAP
0000
0200
3fe0
6930
2fe0
2fe0
3fe0
0fe0
3fe0
3be0
2fe0
6ef0
ENDCHAR
STARTCHAR 02-08-11
ENCODING 10283
SWIDTH 960 0
DWIDTH 12 0
BBX 12 12 0 -2
BITMAP
0000
0180
1f80
16c0
3260
6230
3fe0
0d80
0c80
0480
0080
0380
ENDCHAR
STARTCHAR 02-08-12
ENCODING 10284
SWIDTH 960 0
DWIDTH 12 0
BBX 12 12 0 -2
BITMAP
0000
1fc0
1040
1fc0
1040
1fc0
3fe0
0080
7ff0
1080
0880
0380
ENDCHAR
STARTCHAR 02-08-13
ENCODING 10285
SWIDTH 960 0
DWIDTH 12 0
BBX 12 12 0 -2
BITMAP
0000
02c0
7ff0
3fe0
3fe0
3fe0
3fe0
36e0
7ff0
7ff0
08c0
01c0
ENDCHAR
STARTCHAR 02-08-14
ENCODING 10286
SWIDTH 960 0
DWIDTH 12 0
BBX 12 12 0 -2
BITMAP
0000
3800
3800
6ff0
4c80
7980
3be0
3880
3880
3bf0
7810
6ff0
ENDCHAR
STARTCHAR 02-08-15
ENCODING 10287
SWIDTH 960 0
DWIDTH 12 0
BBX 12 12 0 -2
BITMAP
0000
11e0
11c0
7ff0
7be0
13f0
1bf0
3bf0
3be0
3be0
7ff0
6ff0
ENDCHAR
STARTCHAR 02-08-16
ENCODING 10288
SWIDTH 960 0
DWIDTH 12 0
BBX 12 12 0 -2
BITMAP
0000
1fe0
3ff0
3ff0
2500
2fe0
2900
3ff0
23c0
67c0
6d60
4920
ENDCHAR
STARTCHAR 02-08-17
ENCODING 10289
SWIDTH 960 0
DWIDTH 12 0
BBX 12 12 0 -2
BITMAP
0000
1fe0
3ff0
3ff0
2a40
3ff0
2bc0
2fc0
2fe0
7ff0
6d60
4d70
ENDCHAR
STARTCHAR 02-08-18
ENCODING 10290
SWIDTH 960 0
DWIDTH 12 0
BBX 12 12 0 -2
BITMAP
0000
1fe0
3ff0
3ff0
29c0
29f0
3dc0
37f0
2cc0
7af0
7bc0
4ef0
ENDCHAR
STARTCHAR 02-08-19
ENCODING 10291
SWIDTH 960 0
DWIDTH 12 0
BBX 12 12 0 -2
BITMAP
0000
3ff0
3ff0
28a0
2ff0
3fe0
3fe0
2ff0
2ff0
7bf0
69e0
4ff0
ENDCHAR
STARTCHAR 02-08-20
ENCODING 10292
SWIDTH 960 0
DWIDTH 12 0
BBX 12 12 0 -2
BITMAP
0000
3ff0
3ff0
29e0
3bf0
3ff0
3ff0
2de0
3bf0
7ff0
69e0
4ff0
ENDCHAR
STARTCHAR 02-08-21
ENCODING 10293
SWIDTH 960 0
DWIDTH 12 0
BBX 12 12 0 -2
BITMAP
0000
3ff0
3ff0
29e0
2be0
3ff0
3fe0
2ff0
2ff0
7ff0
6ff0
4ff0
ENDCHAR
STARTCHAR 02-08-22
ENCODING 10294
SWIDTH 960 0
DWIDTH 12 0
BBX 12 12 0 -2
BITMAP
0000
18c0
18c0
3fe0
3fe0
1240
1240
1640
1fc0
0600
0c00
1c00
ENDCHAR
STARTCHAR 02-08-23
ENCODING 10295
SWIDTH 960 0
DWIDTH 12 0
BBX 12 12 0 -2
BITMAP
0000
17c0
17e0
54c0
54c0
5580
5700
5700
7e10
4430
07f0
03e0
ENDCHAR
STARTCHAR 02-08-24
ENCODING 10296
SWIDTH 960 0
DWIDTH 12 0
BBX 12 12 0 -2
BITMAP
0000
0200
2220
3fe0
0000
2020
2220
2220
2220
2220
2020
4020
ENDCHAR
STARTCHAR 02-08-25
ENCODING 10297
SWIDTH 960 0
DWIDTH 12 0
BBX 12 12 0 -2
BITMAP
0000
17f0
17f0
56c0
56c0
56c0
56c0
56c0
7ec0
46c0
06d0
0c70
ENDCHAR
STARTCHAR 02-08-26
ENCODING 10298
SWIDTH 960 0
DWIDTH 12 0
BBX 12 12 0 -2
BITMAP
0000
11f0
1110
5510
5510
55f0
5550
5540
7d40
4220
0220
0410
ENDCHAR
STARTCHAR 02-08-27
ENCODING 10299
SWIDTH 960 0
DWIDTH 12 0
BBX 12 12 0 -2
BITMAP
0000
0200
2220
2220
3fe0
0400
7ff0
0fc0
1cc0
3f80
6fc0
1df0
ENDCHAR
STARTCHAR 02-08-28
ENCODING 10300
SWIDTH 960 0
DWIDTH 12 0
BBX 12 12 0 -2
BITMAP
0000
11f0
1020
5520
5520
57f0
54a0
54a0
7d20
4120
0220
04e0
ENDCHAR
STARTCHAR 02-08-29
ENCODING 10301
SWIDTH 960 0
DWIDTH 12 0
BBX 12 12 0 -2
BITMAP
0000
1fc0
3fe0
3fe0
3fe0
2030
3ff0
0200
2220
2220
3fe0
2020
ENDCHAR
STARTCHAR 02-08-30
ENCODING 10302
SWIDTH 960 0
DWIDTH 12 0
BBX 12 12 0 -2
BITMAP
0000
17f0
1400
5de0
5fe0
5cc0
5ff0
5cc0
7cc0
44c0
08c0
08c0
ENDCHAR
STARTCHAR 02-08-31
ENCODING 10303
SWIDTH 960 0
DWIDTH 12 0
BBX 12 12 0 -2
BITMAP
0000
1290
1190
55a0
57f0
5480
5480
57f0
7c80
4480
0080
0080
ENDCHAR
STARTCHAR 02-08-32
ENCODING 10304
SWIDTH 960 0
DWIDTH 12 0
BBX 12 12 0 -2
BITMAP
0000
1030
11c0
5500
55f0
5540
55c0
5560
7d50
4240
0440
0040
ENDCHAR
STARTCHAR 02-08-33
ENCODING 10305
SWIDTH 960 0
DWIDTH 12 0
BBX 12 12 0 -2
BITMAP
0000
13f0
1100
5500
55e0
5520
5520
55e0
7d20
4100
0100
03f0
ENDCHAR
STARTCHAR 02-08-34
ENCODING 10306
SWIDTH 960 0
DWIDTH 12 0
BBX 12 12 0 -2
BITMAP
0000
0200
2220
3fe0
0000
7ff0
0040
1e40
1240
1e40
1240
00c0
ENDCHAR
STARTCHAR 02-08-35
ENCODING 10307
SWIDTH 960 0
DWIDTH 12 0
BBX 12 12 0 -2
BITMAP
0000
0200
2220
3fe0
2020
0200
3fe0
18c0
1880
0980
0900
7ff0
ENDCHAR
STARTCHAR 02-08-36
ENCODING 10308
SWIDTH 960 0
DWIDTH 12 0
BBX 12 12 0 -2
BITMAP
0000
0200
2220
3fe0
3fe0
0630
0e30
38e0
7fe0
1fe0
1020
1fe0
ENDCHAR
STARTCHAR 02-08-37
ENCODING 10309
SWIDTH 960 0
DWIDTH 12 0
BBX 12 12 0 -2
BITMAP
0000
1140
13f0
5550
57f0
5540
57f0
5550
7d50
4150
0260
0440
ENDCHAR
STARTCHAR 02-08-38
ENCODING 10310
SWIDTH 960 0
DWIDTH 12 0
BBX 12 12 0 -2
BITMAP
0000
1080
1080
5540
5620
55d0
5400
57e0
7d20
4520
01c0
0100
ENDCHAR
STARTCHAR 02-08-39
ENCODING 10311
SWIDTH 960 0
DWIDTH 12 0
BBX 12 12 0 -2
BITMAP
0000
1080
1080
57f0
5480
5480
55e0
5520
7d20
4520
01e0
0120
ENDCHAR
STARTCHAR 02-08-40
ENCODING 10312
SWIDTH 960 0
DWIDTH 12 0
BBX 12 12 0 -2
BITMAP
0000
0200
2220
3fe0
1020
1e60
33f0
76a0
7ea0
1ff0
3820
7020
ENDCHAR
STARTCHAR 02-08-41
ENCODING 10313
SWIDTH 960 0
DWIDTH 12 0
BBX 12 12 0 -2
BITMAP
0000
0200
2220
3fe0
3fe0
0fc0
3d80
1f80
7df0
7ff0
18c0
1fc0
ENDCHAR
STARTCHAR 02-08-42
ENCODING 10314
SWIDTH 960 0
DWIDTH 12 0
BBX 12 12 0 -2
BITMAP
0000
0200
2220
3fe0
23c0
3640
7e70
2460
7fe0
62c0
23e0
6f70
ENDCHAR
STARTCHAR 02-08-43
ENCODING 10315
SWIDTH 960 0
DWIDTH 12 0
BBX 12 12 0 -2
BITMAP
0000
1080
13e0
5480
5520
57f0
5520
5400
7ff0
4140
0250
0c30
ENDCHAR
STARTCHAR 02-08-44
ENCODING 10316
SWIDTH 960 0
DWIDTH 12 0
BBX 12 12 0 -2
BITMAP
0000
1080
13f0
5750
5540
5640
5630
5400
7fe0
4480
0080
03f0
ENDCHAR
STARTCHAR 02-08-45
ENCODING 10317
SWIDTH 960 0
DWIDTH 12 0
BBX 12 12 0 -2
BITMAP
0000
13e0
1220
57e0
5620
57e0
5640
5650
7fe0
4240
03d0
0e30
ENDCHAR
STARTCHAR 02-08-46
ENCODING 10318
SWIDTH 960 0
DWIDTH 12 0
BBX 12 12 0 -2
BITMAP
0000
0200
2220
3fe0
3fe0
3fe0
3fe0
2a40
2fc0
67c0
7a20
5fe0
ENDCHAR
STARTCHAR 02-08-47
ENCODING 10319
SWIDTH 960 0
DWIDTH 12 0
BBX 12 12 0 -2
BITMAP
0000
1080
17f0
57e0
57e0
57f0
57e0
57b0
7eb0
47f0
0230
0270
ENDCHAR
STARTCHAR 02-08-48
ENCODING 10320
SWIDTH 960 0
DWIDTH 12 0
BBX 12 12 0 -2
BITMAP
0000
1080
13f0
5480
57e0
56a0
57e0
56a0
7fe0
41c0
02a0
0490
ENDCHAR
STARTCHAR 02-08-49
ENCODING 10321
SWIDTH 960 0
DWIDTH 12 0
BBX 12 12 0 -2
BITMAP
0000
1270
13e0
5760
57f0
57e0
57f0
57f0
7ff0
47f0
0230
0230
ENDCHAR
STARTCHAR 02-08-50
ENCODING 10322
SWIDTH 960 0
DWIDTH 12 0
BBX 12 12 0 -2
BITMAP
0000
1080
1ff0
53c0
57e0
57f0
56b0
57e0
7ea0
47e0
0090
00f0
ENDCHAR
STARTCHAR 02-08-51
ENCODING 10323
SWIDTH 960 0
DWIDTH 12 0
BBX 12 12 0 -2
BITMAP
0000
0200
6230
7ff0
3e20
66b0
7eb0
7eb0
7eb0
6630
3e30
7670
ENDCHAR
STARTCHAR 02-08-52
ENCODING 10324
SWIDTH 960 0
DWIDTH 12 0
BBX 12 12 0 -2
BITMAP
0000
1080
17f0
5620
5540
57f0
5490
57e0
7ea0
42a0
02e0
0080
ENDCHAR
STARTCHAR 02-08-53
ENCODING 10325
SWIDTH 960 0
DWIDTH 12 0
BBX 12 12 0 -2
BITMAP
0000
0200
6230
7ff0
37e0
67f0
5ff0
37f0
67e0
67e0
2ff0
2080
ENDCHAR
STARTCHAR 02-08-54
ENCODING 10326
SWIDTH 960 0
DWIDTH 12 0
BBX 12 12 0 -2
BITMAP
0000
1080
1290
57f0
5400
57f0
5500
57f0
7ed0
42d0
02d0
0230
ENDCHAR
STARTCHAR 02-08-55
ENCODING 10327
SWIDTH 960 0
DWIDTH 12 0
BBX 12 12 0 -2
BITMAP
0000
4210
7ff0
0b80
1fc0
76f0
0f80
1fc0
3ff0
75b0
1c70
7db0
ENDCHAR
STARTCHAR 02-08-56
ENCODING 10328
SWIDTH 960 0
DWIDTH 12 0
BBX 12 12 0 -2
BITMAP
0000
1080
13f0
5520
55e0
5400
57f0
5410
7dd0
4550
05d0
0430
ENDCHAR
STARTCHAR 02-08-57
ENCODING 10329
SWIDTH 960 0
DWIDTH 12 0
BBX 12 12 0 -2
BITMAP
0000
1080
13f0
5690
57f0
5690
57f0
55a0
7dd0
41f0
0290
0470
ENDCHAR
STARTCHAR 02-08-58
ENCODING 10330
SWIDTH 960 0
DWIDTH 12 0
BBX 12 12 0 -2
BITMAP
0000
2140
2ff0
27e0
7ff0
7bf0
7ff0
7bf0
7fe0
72e0
0ef0
02d0
ENDCHAR
STARTCHAR 02-08-59
ENCODING 10331
SWIDTH 960 0
DWIDTH 12 0
BBX 12 12 0 -2
BITMAP
0000
0200
2220
3fe0
1af0
7f90
1eb0
7fa0
3eb0
7e90
3eb0
3e80
ENDCHAR
STARTCHAR 02-08-60
ENCODING 10332
SWIDTH 960 0
DWIDTH 12 0
BBX 12 12 0 -2
BITMAP
0000
27f0
2ff0
27f0
7ef0
7ff0
7fe0
7fe0
7ff0
72a0
0eb0
0790
ENDCHAR
STARTCHAR 02-08-61
ENCODING 10333
SWIDTH 960 0
DWIDTH 12 0
BBX 12 12 0 -2
BITMAP
0000
0200
2220
3fe0
2880
69f0
7fe0
0fc0
7ff0
7bf0
2940
68c0
ENDCHAR
STARTCHAR 02-08-62
ENCODING 10334
SWIDTH 960 0
DWIDTH 12 0
BBX 12 12 0 -2
BITMAP
0000
1f80
1fc0
1fc0
1fc0
1fc0
1ff0
1ff0
6ab0
4220
2220
3fe0
ENDCHAR
STARTCHAR 02-08-63
ENCODING 10335
SWIDTH 960 0
DWIDTH 12 0
BBX 12 12 0 -2
BITMAP
0000
23c0
2260
2ff0
7ff0
7ff0
7ff0
7be0
7be0
73e0
0220
03e0
ENDCHAR
STARTCHAR 02-08-64
ENCODING 10336
SWIDTH 960 0
DWIDTH 12 0
BBX 12 12 0 -2
BITMAP
0000
0200
2220
3fe0
1880
3df0
7fb0
3ce0
3ec0
7cc0
3de0
7f70
ENDCHAR
STARTCHAR 02-08-65
ENCODING 10337
SWIDTH 960 0
DWIDTH 12 0
BBX 12 12 0 -2
BITMAP
0000
2730
2ff0
2660
7fd0
7dd0
7ff0
7d10
7ff0
7330
0220
0ee0
ENDCHAR
STARTCHAR 02-08-66
ENCODING 10338
SWIDTH 960 0
DWIDTH 12 0
BBX 12 12 0 -2
BITMAP
0000
1290
11a0
57f0
55a0
5690
57a0
56f0
7fa0
41f0
0220
0420
ENDCHAR
STARTCHAR 02-08-67
ENCODING 10339
SWIDTH 960 0
DWIDTH 12 0
BBX 12 12 0 -2
BITMAP
0000
2370
2370
27f0
7fa0
7fe0
7ff0
7fa0
7ff0
74a0
0ca0
09a0
ENDCHAR
STARTCHAR 02-08-68
ENCODING 10340
SWIDTH 960 0
DWIDTH 12 0
BBX 12 12 0 -2
BITMAP
0000
0200
2220
3fe0
3fe0
7fe0
7fe0
3fe0
3ff0
3ff0
79f0
6f70
ENDCHAR
STARTCHAR 02-08-69
ENCODING 10341
SWIDTH 960 0
DWIDTH 12 0
BBX 12 12 0 -2
BITMAP
0000
1fc0
3fe0
3fa0
3fe0
2f20
2fa0
7ff0
3be0
32e0
2220
3fe0
ENDCHAR
STARTCHAR 02-08-70
ENCODING 10342
SWIDTH 960 0
DWIDTH 12 0
BBX 12 12 0 -2
BITMAP
0000
23c0
23e0
23e0
7be0
7fe0
7ff0
7ff0
7ff0
77e0
0ff0
0c40
ENDCHAR
STARTCHAR 02-08-71
ENCODING 10343
SWIDTH 960 0
DWIDTH 12 0
BBX 12 12 0 -2
BITMAP
0000
27e0
27e0
23e0
7fe0
7bf0
7bc0
7be0
7ff0
7ff0
07f0
0760
ENDCHAR
STARTCHAR 02-08-72
ENCODING 10344
SWIDTH 960 0
DWIDTH 12 0
BBX 12 12 0 -2
BITMAP
0000
2ff0
3ff0
2ff0
7f70
7ff0
7ff0
7ff0
7ff0
77f0
07e0
0c30
ENDCHAR
STARTCHAR 02-08-73
ENCODING 10345
SWIDTH 960 0
DWIDTH 12 0
BBX 12 12 0 -2
BITMAP
0000
2ef0
2ef0
2ff0
7ff0
7f40
7ff0
7ff0
7f70
7f60
1f70
1ff0
ENDCHAR
STARTCHAR 02-08-74
ENCODING 10346
SWIDTH 960 0
DWIDTH 12 0
BBX 12 12 0 -2
BITMAP
0000
2320
2330
3ff0
7f70
7fa0
7fa0
7ff0
7ff0
79f0
1ff0
1af0
ENDCHAR
STARTCHAR 02-08-75
ENCODING 10347
SWIDTH 960 0
DWIDTH 12 0
BBX 12 12 0 -2
BITMAP
0000
3fe0
3fe0
1ac0
36c0
1ec0
1a40
0a40
3fe0
0200
0200
7ff0
ENDCHAR
STARTCHAR 02-08-76
ENCODING 10348
SWIDTH 960 0
DWIDTH 12 0
BBX 12 12 0 -2
BITMAP
0000
1a40
12c0
36c0
1e40
1f40
3fe0
2ca0
27a0
27a0
3ca0
3fe0
ENDCHAR
STARTCHAR 02-08-77
ENCODING 10349
SWIDTH 960 0
DWIDTH 12 0
BBX 12 12 0 -2
BITMAP
0000
1a40
36c0
1ac0
3fe0
2fa0
2fa0
3fe0
3fc0
3f60
3fb0
7f30
ENDCHAR
STARTCHAR 02-08-78
ENCODING 10350
SWIDTH 960 0
DWIDTH 12 0
BBX 12 12 0 -2
BITMAP
0000
07c0
7fc0
1240
1240
1fc0
1240
1e40
7240
4640
0650
0c70
ENDCHAR
STARTCHAR 02-08-79
ENCODING 10351
SWIDTH 960 0
DWIDTH 12 0
BBX 12 12 0 -2
BITMAP
0000
1fc0
1040
1040
1fc0
1040
1000
1fe0
1020
1020
1fe0
1020
ENDCHAR
STARTCHAR 02-08-80
ENCODING 10352
SWIDTH 960 0
DWIDTH 12 0
BBX 12 12 0 -2
BITMAP
0000
3fe0
0200
0200
3fe0
2220
2220
2220
2220
22c0
0200
0200
ENDCHAR
STARTCHAR 02-08-81
ENCODING 10353
SWIDTH 960 0
DWIDTH 12 0
BBX 12 12 0 -2
BITMAP
0000
10c0
1080
7de0
5520
5520
5520
5520
5920
1120
1330
1630
ENDCHAR
STARTCHAR 02-08-82
ENCODING 10354
SWIDTH 960 0
DWIDTH 12 0
BBX 12 12 0 -2
BITMAP
0000
1ac0
1a40
17f0
3f80
10f0
12e0
3fe0
2220
2220
22c0
0200
ENDCHAR
STARTCHAR 02-08-83
ENCODING 10355
SWIDTH 960 0
DWIDTH 12 0
BBX 12 12 0 -2
BITMAP
0000
1040
1080
7df0
5510
5510
55f0
5510
5910
1110
11f0
1110
ENDCHAR
STARTCHAR 02-08-84
ENCODING 10356
SWIDTH 960 0
DWIDTH 12 0
BBX 12 12 0 -2
BITMAP
0000
0200
1a80
32e0
2220
3fe0
2f20
2fa0
3ea0
3ae0
2220
20e0
ENDCHAR
STARTCHAR 02-08-85
ENCODING 10357
SWIDTH 960 0
DWIDTH 12 0
BBX 12 12 0 -2
BITMAP
0000
0200
7ff0
0480
24a0
4990
0200
3fe0
2220
2220
22c0
0200
ENDCHAR
STARTCHAR 02-08-86
ENCODING 10358
SWIDTH 960 0
DWIDTH 12 0
BBX 12 12 0 -2
BITMAP
0000
19e0
3fe0
3d40
3d20
7f30
3160
6700
3fe0
2220
22c0
0200
ENDCHAR
STARTCHAR 02-08-87
ENCODING 10359
SWIDTH 960 0
DWIDTH 12 0
BBX 12 12 0 -2
BITMAP
0000
1080
13f0
7c90
54a0
57f0
54a0
55f0
5b10
11f0
1110
11f0
ENDCHAR
STARTCHAR 02-08-88
ENCODING 10360
SWIDTH 960 0
DWIDTH 12 0
BBX 12 12 0 -2
BITMAP
0000
12a0
17f0
7ea0
56e0
57f0
5480
57f0
59c0
12a0
1490
1080
ENDCHAR
STARTCHAR 02-08-89
ENCODING 10361
SWIDTH 960 0
DWIDTH 12 0
BBX 12 12 0 -2
BITMAP
0000
13f0
12d0
7da0
5720
5650
57f0
5400
5bf0
12a0
1290
1590
ENDCHAR
STARTCHAR 02-08-90
ENCODING 10362
SWIDTH 960 0
DWIDTH 12 0
BBX 12 12 0 -2
BITMAP
0000
17f0
1140
7ff0
5550
57f0
5400
57e0
5800
17f0
12a0
1590
ENDCHAR
STARTCHAR 02-08-91
ENCODING 10363
SWIDTH 960 0
DWIDTH 12 0
BBX 12 12 0 -2
BITMAP
0000
17f0
17f0
7fb0
57b0
57f0
56f0
57f0
5af0
16b0
13b0
17f0
ENDCHAR
STARTCHAR 02-08-92
ENCODING 10364
SWIDTH 960 0
DWIDTH 12 0
BBX 12 12 0 -2
BITMAP
0000
3df0
3df0
7ea0
3ee0
7fe0
7fe0
1fc0
1fc0
1fc0
3fe0
22e0
ENDCHAR
STARTCHAR 02-08-93
ENCODING 10365
SWIDTH 960 0
DWIDTH 12 0
BBX 12 12 0 -2
BITMAP
0000
13e0
13e0
7fe0
57f0
57f0
57f0
57f0
5bf0
13f0
17f0
1630
ENDCHAR
STARTCHAR 02-08-94
ENCODING 10366
SWIDTH 960 0
DWIDTH 12 0
BBX 12 12 0 -2
BITMAP
0000
2240
2ff0
7fe0
7ff0
7df0
7ff0
7ff0
7e40
2670
2c70
39b0
ENDCHAR
STARTCHAR 02-12-01
ENCODING 11297
SWIDTH 960 0
DWIDTH 12 0
BBX 12 12 0 -2
BITMAP
0000
2080
2ff0
7fb0
6fb0
6ff0
6ff0
6ff0
7ff0
2eb0
2bb0
27f0
ENDCHAR
STARTCHAR 02-12-02
ENCODING 11298
SWIDTH 960 0
DWIDTH 12 0
BBX 12 12 0 -2
BITMAP
0000
25f0
2ff0
7fe0
7fe0
7ff0
7ff0
7ff0
7fe0
26c0
23e0
2e70
ENDCHAR
STARTCHAR 02-12-03
ENCODING 11299
SWIDTH 960 0
DWIDTH 12 0
BBX 12 12 0 -2
BITMAP
0000
0200
3ff0
24c0
24c0
2ff0
29e0
39e0
2bf0
2af0
4ef0
48c0
ENDCHAR
STARTCHAR 02-12-04
ENCODING 11300
SWIDTH 960 0
DWIDTH 12 0
BBX 12 12 0 -2
BITMAP
0000
0200
3ff0
28c0
2bf0
3ec0
2be0
2d70
2fe0
29c0
49e0
4b70
ENDCHAR
STARTCHAR 02-12-05
ENCODING 11301
SWIDTH 960 0
DWIDTH 12 0
BBX 12 12 0 -2
BITMAP
0000
0200
3ff0
2980
3ff0
2de0
2fe0
3dc0
3fb0
3ce0
5d90
57f0
ENDCHAR
STARTCHAR 02-12-06
ENCODING 11302
SWIDTH 960 0
DWIDTH 12 0
BBX 12 12 0 -2
BITMAP
0000
0200
3ff0
2000
3fe0
27c0
2380
2ff0
2ff0
2fe0
58e0
5070
ENDCHAR
STARTCHAR 02-12-07
ENCODING 11303
SWIDTH 960 0
DWIDTH 12 0
BBX 12 12 0 -2
BITMAP
0000
0200
3ff0
2440
3ff0
2440
2000
2fe0
2920
2fe0
4920
4fe0
ENDCHAR
STARTCHAR 02-12-08
ENCODING 11304
SWIDTH 960 0
DWIDTH 12 0
BBX 12 12 0 -2
BITMAP
0000
0200
3ff0
2fe0
3fe0
3b60
3fe0
3fe0
2560
25f0
4df0
49f0
ENDCHAR
STARTCHAR 02-12-09
ENCODING 11305
SWIDTH 960 0
DWIDTH 12 0
BBX 12 12 0 -2
BITMAP
0000
1ff0
3ff0
3ef0
3ff0
3530
3fb0
25e0
3fe0
2ee0
5be0
5bb0
ENDCHAR
STARTCHAR 02-12-10
ENCODING 11306
SWIDTH 960 0
DWIDTH 12 0
BBX 12 12 0 -2
BITMAP
0000
0200
3ff0
2fe0
2fe0
2fe0
2fe0
2fe0
3fe0
3ff0
4c60
4c70
ENDCHAR
STARTCHAR 02-12-11
ENCODING 11307
SWIDTH 960 0
DWIDTH 12 0
BBX 12 12 0 -2
BITMAP
0000
77f0
1410
25d0
7550
1550
55d0
5510
6550
24d0
3430
4ff0
ENDCHAR
STARTCHAR 02-12-12
ENCODING 11308
SWIDTH 960 0
DWIDTH 12 0
BBX 12 12 0 -2
BITMAP
0000
77f0
1550
2550
75d0
1550
55d0
5550
6550
27f0
3000
4ff0
ENDCHAR
STARTCHAR 02-12-13
ENCODING 11309
SWIDTH 960 0
DWIDTH 12 0
BBX 12 12 0 -2
BITMAP
0000
0200
7ff0
0480
24a0
4990
1000
0880
7ff0
0880
1080
6080
ENDCHAR
STARTCHAR 02-12-14
ENCODING 11310
SWIDTH 960 0
DWIDTH 12 0
BBX 12 12 0 -2
BITMAP
0000
0140
0120
7ff0
0100
0100
7f00
0080
3c80
0090
7e50
0030
ENDCHAR
STARTCHAR 02-12-15
ENCODING 11311
SWIDTH 960 0
DWIDTH 12 0
BBX 12 12 0 -2
BITMAP
0000
7df0
0410
0410
3cf0
2080
2080
3cf0
2490
0410
0820
30c0
ENDCHAR
STARTCHAR 02-12-16
ENCODING 11312
SWIDTH 960 0
DWIDTH 12 0
BBX 12 12 0 -2
BITMAP
0000
7880
0880
0bf0
7a90
4290
4290
7a90
4a90
0ae0
1080
6080
ENDCHAR
STARTCHAR 02-12-17
ENCODING 11313
SWIDTH 960 0
DWIDTH 12 0
BBX 12 12 0 -2
BITMAP
0000
7a00
0a00
0bf0
7a90
44a0
4080
78c0
4940
0920
1220
6410
ENDCHAR
STARTCHAR 02-12-18
ENCODING 11314
SWIDTH 960 0
DWIDTH 12 0
BBX 12 12 0 -2
BITMAP
0000
79e0
09f0
0ff0
7bf0
41e0
43f0
7bf0
4bf0
0bf0
13f0
65d0
ENDCHAR
STARTCHAR 02-12-19
ENCODING 11315
SWIDTH 960 0
DWIDTH 12 0
BBX 12 12 0 -2
BITMAP
0000
1820
1840
7f80
2410
2c20
78c0
1810
1820
3dc0
6600
43f0
ENDCHAR
STARTCHAR 02-12-20
ENCODING 11316
SWIDTH 960 0
DWIDTH 12 0
BBX 12 12 0 -2
BITMAP
0000
3720
3740
7f80
1f10
7f20
7f40
7f80
7f10
7f20
7540
7780
ENDCHAR
STARTCHAR 02-12-21
ENCODING 11317
SWIDTH 960 0
DWIDTH 12 0
BBX 12 12 0 -2
BITMAP
0000
1080
1080
2940
4a20
15d0
3000
57e0
1120
1120
11c0
1100
ENDCHAR
STARTCHAR 02-12-22
ENCODING 11318
SWIDTH 960 0
DWIDTH 12 0
BBX 12 12 0 -2
BITMAP
0000
1080
12e0
2a80
4ff0
1380
33b0
56b0
11e0
11c0
1180
1700
ENDCHAR
STARTCHAR 02-12-23
ENCODING 11319
SWIDTH 960 0
DWIDTH 12 0
BBX 12 12 0 -2
BITMAP
0000
1080
17f0
2be0
48a0
17f0
30a0
53e0
1080
12e0
1280
15f0
ENDCHAR
STARTCHAR 02-12-24
ENCODING 11320
SWIDTH 960 0
DWIDTH 12 0
BBX 12 12 0 -2
BITMAP
0000
1680
13e0
2bf0
4ca0
13e0
3280
5bf0
1480
17f0
1480
1bf0
ENDCHAR
STARTCHAR 02-12-25
ENCODING 11321
SWIDTH 960 0
DWIDTH 12 0
BBX 12 12 0 -2
BITMAP
0000
1080
17f0
2940
4ff0
12a0
33e0
52a0
13e0
1080
13e0
17f0
ENDCHAR
STARTCHAR 02-12-26
ENCODING 11322
SWIDTH 960 0
DWIDTH 12 0
BBX 12 12 0 -2
BITMAP
0000
0200
0200
0200
0b00
0a80
1280
2200
0200
0200
0200
0200
ENDCHAR
STARTCHAR 02-12-27
ENCODING 11323
SWIDTH 960 0
DWIDTH 12 0
BBX 12 12 0 -2
BITMAP
0000
0000
0400
0400
0440
2620
2510
2490
4480
4400
0c00
0000
ENDCHAR
STARTCHAR 02-12-28
ENCODING 11324
SWIDTH 960 0
DWIDTH 12 0
BBX 12 12 0 -2
BITMAP
0000
1080
1080
1bf0
5890
5890
5090
1090
1090
1110
1110
1260
ENDCHAR
STARTCHAR 02-12-29
ENCODING 11325
SWIDTH 960 0
DWIDTH 12 0
BBX 12 12 0 -2
BITMAP
0000
13f0
1010
1810
5810
5bf0
5210
1200
1200
1210
1210
11f0
ENDCHAR
STARTCHAR 02-12-30
ENCODING 11326
SWIDTH 960 0
DWIDTH 12 0
BBX 12 12 0 -2
BITMAP
0000
00a0
0090
7ff0
1080
0880
0880
1280
3140
3150
5250
0e30
ENDCHAR
STARTCHAR 02-12-31
ENCODING 11327
SWIDTH 960 0
DWIDTH 12 0
BBX 12 12 0 -2
BITMAP
0000
13e0
1080
1880
5880
5880
57f0
1080
1080
1080
1080
1080
ENDCHAR
STARTCHAR 02-12-32
ENCODING 11328
SWIDTH 960 0
DWIDTH 12 0
BBX 12 12 0 -2
BITMAP
0000
1200
1200
1bf0
5c00
5be0
5040
1080
1100
1200
1210
11f0
ENDCHAR
STARTCHAR 02-12-33
ENCODING 11329
SWIDTH 960 0
DWIDTH 12 0
BBX 12 12 0 -2
BITMAP
0000
3fe0
0200
3fc0
0440
0840
7ff0
0000
0220
2910
2850
47c0
ENDCHAR
STARTCHAR 02-12-34
ENCODING 11330
SWIDTH 960 0
DWIDTH 12 0
BBX 12 12 0 -2
BITMAP
0000
1080
1080
1ff0
5880
5fe0
5220
1240
1180
1080
1140
1630
ENDCHAR
STARTCHAR 02-12-35
ENCODING 11331
SWIDTH 960 0
DWIDTH 12 0
BBX 12 12 0 -2
BITMAP
0000
1060
1380
1a80
5a80
5a80
53f0
1240
1240
1250
1330
1610
ENDCHAR
STARTCHAR 02-12-36
ENCODING 11332
SWIDTH 960 0
DWIDTH 12 0
BBX 12 12 0 -2
BITMAP
0000
10a0
10c0
1b80
5890
5a90
5290
1290
13f0
1080
1090
1070
ENDCHAR
STARTCHAR 02-12-37
ENCODING 11333
SWIDTH 960 0
DWIDTH 12 0
BBX 12 12 0 -2
BITMAP
0000
1080
1080
1ff0
5800
5bc0
5240
1240
1240
1250
1250
1430
ENDCHAR
STARTCHAR 02-12-38
ENCODING 11334
SWIDTH 960 0
DWIDTH 12 0
BBX 12 12 0 -2
BITMAP
0000
0200
3fe0
3fe0
3fe0
7ff0
3ae0
6230
1260
13f0
32e0
2e00
ENDCHAR
STARTCHAR 02-12-39
ENCODING 11335
SWIDTH 960 0
DWIDTH 12 0
BBX 12 12 0 -2
BITMAP
0000
1080
1080
18f0
5880
5880
53f0
1210
1210
1210
13f0
1210
ENDCHAR
STARTCHAR 02-12-40
ENCODING 11336
SWIDTH 960 0
DWIDTH 12 0
BBX 12 12 0 -2
BITMAP
0000
1280
1280
1be0
5c80
5880
57f0
1080
1140
1140
1220
1410
ENDCHAR
STARTCHAR 02-12-41
ENCODING 11337
SWIDTH 960 0
DWIDTH 12 0
BBX 12 12 0 -2
BITMAP
0000
1840
1ff0
3440
6640
2240
2040
20c0
0b20
2930
2c50
67c0
ENDCHAR
STARTCHAR 02-12-42
ENCODING 11338
SWIDTH 960 0
DWIDTH 12 0
BBX 12 12 0 -2
BITMAP
0000
1160
1100
1a00
5cf0
5920
5220
1620
1220
1220
1220
1260
ENDCHAR
STARTCHAR 02-12-43
ENCODING 11339
SWIDTH 960 0
DWIDTH 12 0
BBX 12 12 0 -2
BITMAP
0000
1140
1150
1d50
5b60
5940
5160
1350
1540
1140
1250
1430
ENDCHAR
STARTCHAR 02-12-44
ENCODING 11340
SWIDTH 960 0
DWIDTH 12 0
BBX 12 12 0 -2
BITMAP
0000
3fc0
0880
3fe0
2220
3fe0
2220
3fe0
4220
2920
2850
47d0
ENDCHAR
STARTCHAR 02-12-45
ENCODING 11341
SWIDTH 960 0
DWIDTH 12 0
BBX 12 12 0 -2
BITMAP
0000
11e0
7bc0
13f0
1a40
7240
1640
3240
0a00
2920
2850
47d0
ENDCHAR
STARTCHAR 02-12-46
ENCODING 11342
SWIDTH 960 0
DWIDTH 12 0
BBX 12 12 0 -2
BITMAP
0000
1120
10c0
1f60
5920
5ff0
5280
17f0
1290
1290
12e0
1080
ENDCHAR
STARTCHAR 02-12-47
ENCODING 11343
SWIDTH 960 0
DWIDTH 12 0
BBX 12 12 0 -2
BITMAP
0000
1400
37e0
2930
2120
2540
2d60
2300
0200
2920
2850
47d0
ENDCHAR
STARTCHAR 02-12-48
ENCODING 11344
SWIDTH 960 0
DWIDTH 12 0
BBX 12 12 0 -2
BITMAP
0000
0200
7ff0
3fe0
3fe0
3d60
3fe0
7ff0
0200
2920
2850
47d0
ENDCHAR
STARTCHAR 02-12-49
ENCODING 11345
SWIDTH 960 0
DWIDTH 12 0
BBX 12 12 0 -2
BITMAP
0000
1080
17f0
1c10
5be0
5800
57f0
1080
12a0
1490
1890
1380
ENDCHAR
STARTCHAR 02-12-50
ENCODING 11346
SWIDTH 960 0
DWIDTH 12 0
BBX 12 12 0 -2
BITMAP
0000
1140
1140
1f70
5940
5940
5770
1140
1140
1770
1240
1440
ENDCHAR
STARTCHAR 02-12-51
ENCODING 11347
SWIDTH 960 0
DWIDTH 12 0
BBX 12 12 0 -2
BITMAP
0000
1080
13f0
1d50
5940
5a40
5430
1000
13e0
1080
1080
17f0
ENDCHAR
STARTCHAR 02-12-52
ENCODING 11348
SWIDTH 960 0
DWIDTH 12 0
BBX 12 12 0 -2
BITMAP
0000
13e0
12a0
1be0
5aa0
5be0
5080
17f0
11c0
12a0
1490
1080
ENDCHAR
STARTCHAR 02-12-53
ENCODING 11349
SWIDTH 960 0
DWIDTH 12 0
BBX 12 12 0 -2
BITMAP
0000
17f0
1090
1ad0
5920
5ed0
5000
17f0
1090
12d0
1320
14d0
ENDCHAR
STARTCHAR 02-12-54
ENCODING 11350
SWIDTH 960 0
DWIDTH 12 0
BBX 12 12 0 -2
BITMAP
0000
1060
1380
1a70
5bc0
5a50
5730
13e0
1220
13e0
1220
13e0
ENDCHAR
STARTCHAR 02-12-55
ENCODING 11351
SWIDTH 960 0
DWIDTH 12 0
BBX 12 12 0 -2
BITMAP
0000
1510
12a0
1bf0
5a90
5bf0
5290
13f0
1080
17f0
1080
1080
ENDCHAR
STARTCHAR 02-12-56
ENCODING 11352
SWIDTH 960 0
DWIDTH 12 0
BBX 12 12 0 -2
BITMAP
0000
13f0
1490
1ff0
5880
5bf0
5290
13f0
1290
13f0
17f0
1080
ENDCHAR
STARTCHAR 02-12-57
ENCODING 11353
SWIDTH 960 0
DWIDTH 12 0
BBX 12 12 0 -2
BITMAP
0000
12a0
17f0
1aa0
5ae0
5bf0
5080
17f0
11c0
12a0
1490
1080
ENDCHAR
STARTCHAR 02-12-58
ENCODING 11354
SWIDTH 960 0
DWIDTH 12 0
BBX 12 12 0 -2
BITMAP
0000
17f0
1080
1900
5ff0
5d50
55d0
1550
15d0
1550
1550
17f0
ENDCHAR
STARTCHAR 02-12-59
ENCODING 11355
SWIDTH 960 0
DWIDTH 12 0
BBX 12 12 0 -2
BITMAP
0000
13e0
1220
1be0
5e20
5fe0
53f0
1790
1590
17d0
17f0
17f0
ENDCHAR
STARTCHAR 02-12-60
ENCODING 11356
SWIDTH 960 0
DWIDTH 12 0
BBX 12 12 0 -2
BITMAP
0000
13e0
1220
1be0
5a20
5ff0
5200
17f0
1950
1250
1490
1360
ENDCHAR
STARTCHAR 02-12-61
ENCODING 11357
SWIDTH 960 0
DWIDTH 12 0
BBX 12 12 0 -2
BITMAP
0000
1fc0
3fe0
2fa0
3f00
3dc0
3fe0
1fc0
0200
2920
2850
47d0
ENDCHAR
STARTCHAR 02-12-62
ENCODING 11358
SWIDTH 960 0
DWIDTH 12 0
BBX 12 12 0 -2
BITMAP
0000
17f0
17f0
1ff0
5d50
5d50
55d0
1180
17f0
1140
1360
1630
ENDCHAR
STARTCHAR 02-12-63
ENCODING 11359
SWIDTH 960 0
DWIDTH 12 0
BBX 12 12 0 -2
BITMAP
0000
1240
17f0
1a40
5be0
5fe0
53e0
13e0
1080
17f0
1080
1080
ENDCHAR
STARTCHAR 02-12-64
ENCODING 11360
SWIDTH 960 0
DWIDTH 12 0
BBX 12 12 0 -2
BITMAP
0000
1fe0
3fc0
7fe0
1fa0
7ff0
7ff0
3fe0
3fe0
2a20
2950
47d0
ENDCHAR
STARTCHAR 02-12-65
ENCODING 11361
SWIDTH 960 0
DWIDTH 12 0
BBX 12 12 0 -2
BITMAP
0000
3fe0
3fe0
2f60
2fe0
3fa0
2fe0
3f60
3fe0
2a20
2950
47d0
ENDCHAR
STARTCHAR 02-12-66
ENCODING 11362
SWIDTH 960 0
DWIDTH 12 0
BBX 12 12 0 -2
BITMAP
0000
10f0
13e0
1ab0
5ef0
5c10
57f0
1410
1770
1730
1410
17f0
ENDCHAR
STARTCHAR 02-12-67
ENCODING 11363
SWIDTH 960 0
DWIDTH 12 0
BBX 12 12 0 -2
BITMAP
0000
2480
2f80
34f0
7f20
74a0
6fa0
2440
2640
2aa0
3290
2710
ENDCHAR
STARTCHAR 02-12-68
ENCODING 11364
SWIDTH 960 0
DWIDTH 12 0
BBX 12 12 0 -2
BITMAP
0000
1fe0
3fe0
2780
3fe0
3ee0
3fc0
2cf0
0280
2920
2850
47d0
ENDCHAR
STARTCHAR 02-12-69
ENCODING 11365
SWIDTH 960 0
DWIDTH 12 0
BBX 12 12 0 -2
BITMAP
0000
27f0
3ff0
4ff0
67e0
07f0
37f0
67f0
6200
2920
2850
47d0
ENDCHAR
STARTCHAR 02-12-70
ENCODING 11366
SWIDTH 960 0
DWIDTH 12 0
BBX 12 12 0 -2
BITMAP
0000
1080
13e0
1aa0
5ff0
5a20
53e0
1220
13e0
1220
13e0
1630
ENDCHAR
STARTCHAR 02-12-71
ENCODING 11367
SWIDTH 960 0
DWIDTH 12 0
BBX 12 12 0 -2
BITMAP
0000
17f0
17f0
1ff0
5ff0
5ff0
57f0
17f0
13b0
17b0
1670
13c0
ENDCHAR
STARTCHAR 02-12-72
ENCODING 11368
SWIDTH 960 0
DWIDTH 12 0
BBX 12 12 0 -2
BITMAP
0000
1880
7ff0
3de0
3fe0
7ec0
7fe0
7f30
0200
2920
2850
47d0
ENDCHAR
STARTCHAR 02-12-73
ENCODING 11369
SWIDTH 960 0
DWIDTH 12 0
BBX 12 12 0 -2
BITMAP
0000
1080
17f0
1880
5ff0
5a20
53e0
1140
17f0
13e0
1220
13e0
ENDCHAR
STARTCHAR 02-12-74
ENCODING 11370
SWIDTH 960 0
DWIDTH 12 0
BBX 12 12 0 -2
BITMAP
0000
3de0
3de0
3fe0
7ff0
7ff0
0c40
1cc0
0200
2920
2850
47d0
ENDCHAR
STARTCHAR 02-12-75
ENCODING 11371
SWIDTH 960 0
DWIDTH 12 0
BBX 12 12 0 -2
BITMAP
0000
1c80
3fe0
1de0
1fe0
1cc0
3fe0
0730
0200
2920
2850
47d0
ENDCHAR
STARTCHAR 02-12-76
ENCODING 11372
SWIDTH 960 0
DWIDTH 12 0
BBX 12 12 0 -2
BITMAP
0000
1080
17f0
1d50
5fe0
5a30
53f0
1220
13e0
12a0
1490
1590
ENDCHAR
STARTCHAR 02-12-77
ENCODING 11373
SWIDTH 960 0
DWIDTH 12 0
BBX 12 12 0 -2
BITMAP
0000
17e0
7fe0
13e0
3ff0
3fe0
77f0
53e0
13e0
2a20
2950
47d0
ENDCHAR
STARTCHAR 02-12-78
ENCODING 11374
SWIDTH 960 0
DWIDTH 12 0
BBX 12 12 0 -2
BITMAP
0000
7ff0
7ee0
7ff0
7fe0
7ec0
7ee0
57a0
5720
2a20
2950
47d0
ENDCHAR
STARTCHAR 02-12-79
ENCODING 11375
SWIDTH 960 0
DWIDTH 12 0
BBX 12 12 0 -2
BITMAP
0000
2af0
2c90
3960
77f0
7a50
6f60
2af0
2fc0
22c0
25c0
2930
ENDCHAR
STARTCHAR 02-12-80
ENCODING 11376
SWIDTH 960 0
DWIDTH 12 0
BBX 12 12 0 -2
BITMAP
0000
7a20
3e20
7ff0
36a0
7fe0
3ea0
3e20
3ee0
2a20
2950
47d0
ENDCHAR
STARTCHAR 02-12-81
ENCODING 11377
SWIDTH 960 0
DWIDTH 12 0
BBX 12 12 0 -2
BITMAP
0000
17f0
17f0
1bf0
5ff0
5ff0
57f0
17f0
13e0
13e0
13e0
13e0
ENDCHAR
STARTCHAR 02-12-82
ENCODING 11378
SWIDTH 960 0
DWIDTH 12 0
BBX 12 12 0 -2
BITMAP
0000
0880
3ea0
0890
7ff0
0080
00a0
00a0
0040
00d0
0350
0c30
ENDCHAR
STARTCHAR 02-12-83
ENCODING 11379
SWIDTH 960 0
DWIDTH 12 0
BBX 12 12 0 -2
BITMAP
0000
18a0
7890
78f0
7f80
18a0
78a0
78a0
7840
7850
78b0
5f10
ENDCHAR
STARTCHAR 02-12-84
ENCODING 11380
SWIDTH 960 0
DWIDTH 12 0
BBX 12 12 0 -2
BITMAP
0000
3aa0
7890
7ef0
2780
66a0
3ca0
18a0
3e40
1850
3cb0
6710
ENDCHAR
STARTCHAR 02-12-85
ENCODING 11381
SWIDTH 960 0
DWIDTH 12 0
BBX 12 12 0 -2
BITMAP
0000
7ea0
7e90
64f0
6f80
7ea0
7ea0
7ea0
7e40
7e50
62b0
7f10
ENDCHAR
STARTCHAR 02-12-86
ENCODING 11382
SWIDTH 960 0
DWIDTH 12 0
BBX 12 12 0 -2
BITMAP
0000
01e0
3fc0
3fe0
3ff0
3ff0
2200
3ff0
6fa0
7de0
6ee0
1e70
ENDCHAR
STARTCHAR 02-12-87
ENCODING 11383
SWIDTH 960 0
DWIDTH 12 0
BBX 12 12 0 -2
BITMAP
0000
0200
0200
1f80
0200
0200
0380
1e00
0200
0200
0200
0e00
ENDCHAR
STARTCHAR 02-12-88
ENCODING 11384
SWIDTH 960 0
DWIDTH 12 0
BBX 12 12 0 -2
BITMAP
0000
1080
1080
7c80
1080
10c0
1ca0
7090
1080
1080
1080
3080
ENDCHAR
STARTCHAR 02-12-89
ENCODING 11385
SWIDTH 960 0
DWIDTH 12 0
BBX 12 12 0 -2
BITMAP
0000
13c0
1040
7a40
1240
1240
1a40
7240
1220
1220
1420
3410
ENDCHAR
STARTCHAR 02-12-90
ENCODING 11386
SWIDTH 960 0
DWIDTH 12 0
BBX 12 12 0 -2
BITMAP
0000
1080
1280
7ab0
12d0
1390
1e90
7290
12a0
1200
1210
31f0
ENDCHAR
STARTCHAR 02-12-91
ENCODING 11387
SWIDTH 960 0
DWIDTH 12 0
BBX 12 12 0 -2
BITMAP
0000
17f0
17f0
7ac0
12c0
12c0
1ac0
72c0
12c0
12c0
16d0
3470
ENDCHAR
STARTCHAR 02-12-92
ENCODING 11388
SWIDTH 960 0
DWIDTH 12 0
BBX 12 12 0 -2
BITMAP
0000
1200
1200
7bf0
1290
14a0
1880
70c0
1140
1120
1220
3410
ENDCHAR
STARTCHAR 02-12-93
ENCODING 11389
SWIDTH 960 0
DWIDTH 12 0
BBX 12 12 0 -2
BITMAP
0000
17c0
17e0
7920
1120
1160
1ff0
7120
1120
1120
17f0
37f0
ENDCHAR
STARTCHAR 02-12-94
ENCODING 11390
SWIDTH 960 0
DWIDTH 12 0
BBX 12 12 0 -2
BITMAP
0000
13f0
1200
7a00
13f0
1210
1a10
7320
12e0
1240
14a0
3510
ENDCHAR
STARTCHAR 02-13-01
ENCODING 11553
SWIDTH 960 0
DWIDTH 12 0
BBX 12 12 0 -2
BITMAP
0000
1060
1380
7880
17e0
1080
1880
77f0
1080
1080
1080
3300
ENDCHAR
STARTCHAR 02-13-02
ENCODING 11554
SWIDTH 960 0
DWIDTH 12 0
BBX 12 12 0 -2
BITMAP
0000
17f0
1080
7880
17f0
1490
1c90
7550
1630
1410
1410
3470
ENDCHAR
STARTCHAR 02-13-03
ENCODING 11555
SWIDTH 960 0
DWIDTH 12 0
BBX 12 12 0 -2
BITMAP
0000
1080
1080
7ff0
1410
1200
1a60
7380
1200
1200
1210
31f0
ENDCHAR
STARTCHAR 02-13-04
ENCODING 11556
SWIDTH 960 0
DWIDTH 12 0
BBX 12 12 0 -2
BITMAP
0000
1de0
1520
2520
7550
0910
11f0
6e00
3fe0
7ff0
0100
0e00
ENDCHAR
STARTCHAR 02-13-05
ENCODING 11557
SWIDTH 960 0
DWIDTH 12 0
BBX 12 12 0 -2
BITMAP
0000
1100
17f0
7d10
17f0
1510
1ff0
7120
10a0
10c0
1150
3630
ENDCHAR
STARTCHAR 02-13-06
ENCODING 11558
SWIDTH 960 0
DWIDTH 12 0
BBX 12 12 0 -2
BITMAP
0000
17f0
1100
7940
1220
17d0
1890
7080
13e0
1080
1080
37f0
ENDCHAR
STARTCHAR 02-13-07
ENCODING 11559
SWIDTH 960 0
DWIDTH 12 0
BBX 12 12 0 -2
BITMAP
0000
1080
1080
7ff0
1220
1220
1d50
7140
1280
11c0
1240
3430
ENDCHAR
STARTCHAR 02-13-08
ENCODING 11560
SWIDTH 960 0
DWIDTH 12 0
BBX 12 12 0 -2
BITMAP
0000
19e0
7ff0
3730
3d30
3ff0
7180
0e00
3fe0
7ff0
0100
0e00
ENDCHAR
STARTCHAR 02-13-09
ENCODING 11561
SWIDTH 960 0
DWIDTH 12 0
BBX 12 12 0 -2
BITMAP
0000
1080
17e0
7880
17e0
1100
1ff0
7120
17f0
1320
12a0
3460
ENDCHAR
STARTCHAR 02-13-10
ENCODING 11562
SWIDTH 960 0
DWIDTH 12 0
BBX 12 12 0 -2
BITMAP
0000
1510
17b0
7ff0
17f0
1510
1fe0
7330
1330
1230
1620
34e0
ENDCHAR
STARTCHAR 02-13-11
ENCODING 11563
SWIDTH 960 0
DWIDTH 12 0
BBX 12 12 0 -2
BITMAP
0000
1080
3aa0
66b0
2fb0
1be0
7180
0e00
3fe0
7ff0
0100
0e00
ENDCHAR
STARTCHAR 02-13-12
ENCODING 11564
SWIDTH 960 0
DWIDTH 12 0
BBX 12 12 0 -2
BITMAP
0000
17e0
17e0
7be0
1080
17f0
1a40
7340
17f0
1240
1640
3440
ENDCHAR
STARTCHAR 02-13-13
ENCODING 11565
SWIDTH 960 0
DWIDTH 12 0
BBX 12 12 0 -2
BITMAP
0000
1730
11c0
7a40
1740
11f0
19c0
75c0
12c0
12f0
1500
34f0
ENDCHAR
STARTCHAR 02-13-14
ENCODING 11566
SWIDTH 960 0
DWIDTH 12 0
BBX 12 12 0 -2
BITMAP
0000
1070
13e0
7eb0
16f0
1490
1bf0
7360
1360
13c0
11e0
3330
ENDCHAR
STARTCHAR 02-13-15
ENCODING 11567
SWIDTH 960 0
DWIDTH 12 0
BBX 12 12 0 -2
BITMAP
0000
1080
1280
7ff0
1480
1580
1ff0
7080
13e0
1220
1220
33e0
ENDCHAR
STARTCHAR 02-13-16
ENCODING 11568
SWIDTH 960 0
DWIDTH 12 0
BBX 12 12 0 -2
BITMAP
0000
10a0
1090
7ff0
1080
14a0
1aa0
71c0
12c0
14a0
1090
3380
ENDCHAR
STARTCHAR 02-13-17
ENCODING 11569
SWIDTH 960 0
DWIDTH 12 0
BBX 12 12 0 -2
BITMAP
0000
12a0
1290
7c90
13f0
1210
1bf0
7210
13f0
1210
1210
3270
ENDCHAR
STARTCHAR 02-13-18
ENCODING 11570
SWIDTH 960 0
DWIDTH 12 0
BBX 12 12 0 -2
BITMAP
0000
1060
1380
7880
17f0
11c0
1ea0
73f0
1120
1130
1210
3460
ENDCHAR
STARTCHAR 02-13-19
ENCODING 11571
SWIDTH 960 0
DWIDTH 12 0
BBX 12 12 0 -2
BITMAP
0000
1080
17f0
7880
17f0
1490
1ff0
7490
17f0
1080
17f0
3080
ENDCHAR
STARTCHAR 02-13-20
ENCODING 11572
SWIDTH 960 0
DWIDTH 12 0
BBX 12 12 0 -2
BITMAP
0000
1240
17f0
7be0
13e0
17f0
1c80
74f0
14e0
14e0
15f0
3170
ENDCHAR
STARTCHAR 02-13-21
ENCODING 11573
SWIDTH 960 0
DWIDTH 12 0
BBX 12 12 0 -2
BITMAP
0000
1080
1140
7a20
17f0
1080
1ff0
7490
17f0
1080
1140
3630
ENDCHAR
STARTCHAR 02-13-22
ENCODING 11574
SWIDTH 960 0
DWIDTH 12 0
BBX 12 12 0 -2
BITMAP
0000
1080
17f0
7d20
1520
17f0
1fa0
77e0
16e0
1620
1620
32e0
ENDCHAR
STARTCHAR 02-13-23
ENCODING 11575
SWIDTH 960 0
DWIDTH 12 0
BBX 12 12 0 -2
BITMAP
0000
1080
1140
7a20
17f0
1000
1ff0
7550
17f0
1550
1550
3570
ENDCHAR
STARTCHAR 02-13-24
ENCODING 11576
SWIDTH 960 0
DWIDTH 12 0
BBX 12 12 0 -2
BITMAP
0000
10f0
13e0
7eb0
17f0
11b0
1ff0
71b0
17f0
17e0
1080
3380
ENDCHAR
STARTCHAR 02-13-25
ENCODING 11577
SWIDTH 960 0
DWIDTH 12 0
BBX 12 12 0 -2
BITMAP
0000
1080
17e0
7e60
1260
1740
1ff0
73f0
12f0
12f0
13b0
3070
ENDCHAR
STARTCHAR 02-13-26
ENCODING 11578
SWIDTH 960 0
DWIDTH 12 0
BBX 12 12 0 -2
BITMAP
0000
3de0
7df0
7ca0
7ce0
7de0
3fb0
0f00
3fe0
7ff0
0100
0e00
ENDCHAR
STARTCHAR 02-13-27
ENCODING 11579
SWIDTH 960 0
DWIDTH 12 0
BBX 12 12 0 -2
BITMAP
0000
1360
1160
7ff0
17f0
1140
1d50
7550
1770
1770
1140
37f0
ENDCHAR
STARTCHAR 02-13-28
ENCODING 11580
SWIDTH 960 0
DWIDTH 12 0
BBX 12 12 0 -2
BITMAP
0000
10f0
17e0
7ff0
17f0
17f0
1eb0
77f0
14b0
17f0
1080
3080
ENDCHAR
STARTCHAR 02-13-29
ENCODING 11581
SWIDTH 960 0
DWIDTH 12 0
BBX 12 12 0 -2
BITMAP
0000
1200
17e0
7ff0
13b0
17f0
1fa0
70e0
1380
16b0
1670
33d0
ENDCHAR
STARTCHAR 02-13-30
ENCODING 11582
SWIDTH 960 0
DWIDTH 12 0
BBX 12 12 0 -2
BITMAP
0000
1220
17f0
7be0
13e0
13e0
1a20
77f0
1540
1770
1600
37f0
ENDCHAR
STARTCHAR 02-13-31
ENCODING 11583
SWIDTH 960 0
DWIDTH 12 0
BBX 12 12 0 -2
BITMAP
0000
1180
13c0
7e60
17f0
13c0
1be0
73e0
1240
17f0
1240
3640
ENDCHAR
STARTCHAR 02-13-32
ENCODING 11584
SWIDTH 960 0
DWIDTH 12 0
BBX 12 12 0 -2
BITMAP
0000
17f0
17f0
7be0
13e0
13e0
1be0
77f0
1340
11c0
1760
37f0
ENDCHAR
STARTCHAR 02-13-33
ENCODING 11585
SWIDTH 960 0
DWIDTH 12 0
BBX 12 12 0 -2
BITMAP
0000
78d0
72f0
7ef0
3ac0
39e0
5330
1f80
3fe0
7ff0
0100
0e00
ENDCHAR
STARTCHAR 02-13-34
ENCODING 11586
SWIDTH 960 0
DWIDTH 12 0
BBX 12 12 0 -2
BITMAP
0000
1080
17f0
7d50
1750
1770
1ec0
71e0
17f0
13c0
1660
3430
ENDCHAR
STARTCHAR 02-13-35
ENCODING 11587
SWIDTH 960 0
DWIDTH 12 0
BBX 12 12 0 -2
BITMAP
0000
12a0
17f0
7aa0
12e0
13f0
1880
77f0
11c0
12a0
1490
3080
ENDCHAR
STARTCHAR 02-13-36
ENCODING 11588
SWIDTH 960 0
DWIDTH 12 0
BBX 12 12 0 -2
BITMAP
0000
1080
13f0
7aa0
1540
13f0
1e40
73f0
1240
13f0
1240
33f0
ENDCHAR
STARTCHAR 02-13-37
ENCODING 11589
SWIDTH 960 0
DWIDTH 12 0
BBX 12 12 0 -2
BITMAP
0000
1080
17f0
7a20
13e0
1000
1ff0
7410
15d0
1550
15d0
3530
ENDCHAR
STARTCHAR 02-13-38
ENCODING 11590
SWIDTH 960 0
DWIDTH 12 0
BBX 12 12 0 -2
BITMAP
0000
1440
17e0
7d30
1730
15f0
1f00
73f0
1330
1730
17e0
35f0
ENDCHAR
STARTCHAR 02-13-39
ENCODING 11591
SWIDTH 960 0
DWIDTH 12 0
BBX 12 12 0 -2
BITMAP
0000
1720
17f0
7fe0
13e0
17f0
1e20
75a0
17f0
13e0
16b0
3490
ENDCHAR
STARTCHAR 02-13-40
ENCODING 11592
SWIDTH 960 0
DWIDTH 12 0
BBX 12 12 0 -2
BITMAP
0000
10f0
17e0
7d30
15b0
1010
1fe0
7430
1770
1770
1430
37f0
ENDCHAR
STARTCHAR 02-13-41
ENCODING 11593
SWIDTH 960 0
DWIDTH 12 0
BBX 12 12 0 -2
BITMAP
0000
1490
12a0
7ff0
1410
13e0
1a20
73e0
1080
13e0
1080
37f0
ENDCHAR
STARTCHAR 02-13-42
ENCODING 11594
SWIDTH 960 0
DWIDTH 12 0
BBX 12 12 0 -2
BITMAP
0000
1080
17f0
7940
17f0
1370
1ff0
73e0
17f0
1550
17b0
3430
ENDCHAR
STARTCHAR 02-13-43
ENCODING 11595
SWIDTH 960 0
DWIDTH 12 0
BBX 12 12 0 -2
BITMAP
0000
1080
17f0
7bc0
17e0
17f0
1ff0
76c0
17e0
17e0
17d0
3770
ENDCHAR
STARTCHAR 02-13-44
ENCODING 11596
SWIDTH 960 0
DWIDTH 12 0
BBX 12 12 0 -2
BITMAP
0000
17f0
17f0
7de0
1520
15e0
1fe0
77f0
17f0
17f0
17f0
37f0
ENDCHAR
STARTCHAR 02-13-45
ENCODING 11597
SWIDTH 960 0
DWIDTH 12 0
BBX 12 12 0 -2
BITMAP
0000
17f0
17f0
7ff0
1550
17f0
1be0
73e0
17f0
12a0
16b0
3790
ENDCHAR
STARTCHAR 02-13-46
ENCODING 11598
SWIDTH 960 0
DWIDTH 12 0
BBX 12 12 0 -2
BITMAP
0000
1740
17f0
7af0
17f0
17f0
1af0
77f0
17a0
12f0
12f0
31f0
ENDCHAR
STARTCHAR 02-13-47
ENCODING 11599
SWIDTH 960 0
DWIDTH 12 0
BBX 12 12 0 -2
BITMAP
0000
14b0
16a0
7ff0
17f0
17e0
1be0
73e0
17e0
17e0
17f0
3380
ENDCHAR
STARTCHAR 02-13-48
ENCODING 11600
SWIDTH 960 0
DWIDTH 12 0
BBX 12 12 0 -2
BITMAP
0000
17c0
17a0
7ff0
17e0
1460
1ff0
7430
17f0
14f0
17b0
3570
ENDCHAR
STARTCHAR 02-13-49
ENCODING 11601
SWIDTH 960 0
DWIDTH 12 0
BBX 12 12 0 -2
BITMAP
0000
17e0
1780
7ff0
13e0
17f0
1bc0
77f0
17f0
17f0
17f0
3430
ENDCHAR
STARTCHAR 02-13-50
ENCODING 11602
SWIDTH 960 0
DWIDTH 12 0
BBX 12 12 0 -2
BITMAP
0000
14b0
16a0
7ff0
17f0
17e0
1be0
77f0
14b0
17f0
14b0
37f0
ENDCHAR
STARTCHAR 02-13-51
ENCODING 11603
SWIDTH 960 0
DWIDTH 12 0
BBX 12 12 0 -2
BITMAP
0000
14c0
17f0
7ea0
1280
17f0
1aa0
76a0
17f0
11c0
13e0
3670
ENDCHAR
STARTCHAR 02-13-52
ENCODING 11604
SWIDTH 960 0
DWIDTH 12 0
BBX 12 12 0 -2
BITMAP
0000
1280
17f0
7fe0
17e0
17f0
1ff0
77f0
16f0
13f0
13b0
3070
ENDCHAR
STARTCHAR 02-13-53
ENCODING 11605
SWIDTH 960 0
DWIDTH 12 0
BBX 12 12 0 -2
BITMAP
0000
1640
17e0
7b80
13b0
17f0
19f0
7640
13e0
1240
1640
3640
ENDCHAR
STARTCHAR 02-13-54
ENCODING 11606
SWIDTH 960 0
DWIDTH 12 0
BBX 12 12 0 -2
BITMAP
0000
1770
1770
7ff0
17f0
17f0
19d0
7190
17f0
13e0
16b0
3490
ENDCHAR
STARTCHAR 02-13-55
ENCODING 11607
SWIDTH 960 0
DWIDTH 12 0
BBX 12 12 0 -2
BITMAP
0000
13c0
13e0
7be0
13e0
17e0
1ff0
77f0
17f0
17e0
17f0
3420
ENDCHAR
STARTCHAR 02-13-56
ENCODING 11608
SWIDTH 960 0
DWIDTH 12 0
BBX 12 12 0 -2
BITMAP
0000
3cf0
7df0
7ef0
7ff0
7df0
3ff0
0f80
3fe0
7ff0
0100
0e00
ENDCHAR
STARTCHAR 02-13-57
ENCODING 11609
SWIDTH 960 0
DWIDTH 12 0
BBX 12 12 0 -2
BITMAP
0000
10c0
17f0
7db0
17f0
17f0
1ff0
77f0
17f0
17d0
1630
33f0
ENDCHAR
STARTCHAR 02-13-58
ENCODING 11610
SWIDTH 960 0
DWIDTH 12 0
BBX 12 12 0 -2
BITMAP
0000
10c0
10e0
7ff0
17d0
13f0
1fe0
77e0
17e0
13c0
13b0
35f0
ENDCHAR
STARTCHAR 02-13-59
ENCODING 11611
SWIDTH 960 0
DWIDTH 12 0
BBX 12 12 0 -2
BITMAP
0000
17a0
14b0
7ff0
17f0
17f0
1ff0
77f0
13f0
13e0
17e0
3380
ENDCHAR
STARTCHAR 02-13-60
ENCODING 11612
SWIDTH 960 0
DWIDTH 12 0
BBX 12 12 0 -2
BITMAP
0000
1240
17f0
7d70
17f0
1770
1f70
7770
1770
1770
1150
3370
ENDCHAR
STARTCHAR 02-13-61
ENCODING 11613
SWIDTH 960 0
DWIDTH 12 0
BBX 12 12 0 -2
BITMAP
0000
17f0
17f0
7ff0
17f0
17f0
1ff0
77f0
17f0
17f0
13f0
30b0
ENDCHAR
STARTCHAR 02-13-62
ENCODING 11614
SWIDTH 960 0
DWIDTH 12 0
BBX 12 12 0 -2
BITMAP
0000
1760
17f0
7ff0
17f0
17f0
1fe0
75b0
17f0
17f0
17e0
37f0
ENDCHAR
STARTCHAR 02-13-63
ENCODING 11615
SWIDTH 960 0
DWIDTH 12 0
BBX 12 12 0 -2
BITMAP
0000
15f0
17f0
7fe0
17e0
17f0
1ff0
77f0
17e0
13c0
13e0
3770
ENDCHAR
STARTCHAR 02-13-64
ENCODING 11616
SWIDTH 960 0
DWIDTH 12 0
BBX 12 12 0 -2
BITMAP
0000
17e0
17f0
7ff0
1260
14f0
1ee0
77f0
17e0
13f0
17e0
37f0
ENDCHAR
STARTCHAR 02-13-65
ENCODING 11617
SWIDTH 960 0
DWIDTH 12 0
BBX 12 12 0 -2
BITMAP
0000
1840
7ff0
3c40
3ff0
6710
7e90
7ca0
7c40
7c60
0490
0d10
ENDCHAR
STARTCHAR 02-13-66
ENCODING 11618
SWIDTH 960 0
DWIDTH 12 0
BBX 12 12 0 -2
BITMAP
0000
7c80
7c80
38f0
3320
7f20
1ea0
30c0
3040
7060
5090
7310
ENDCHAR
STARTCHAR 02-13-67
ENCODING 11619
SWIDTH 960 0
DWIDTH 12 0
BBX 12 12 0 -2
BITMAP
0000
3c80
3c80
38f0
3920
2b20
7ea0
7cc0
7c40
6460
6490
7f10
ENDCHAR
STARTCHAR 02-13-68
ENCODING 11620
SWIDTH 960 0
DWIDTH 12 0
BBX 12 12 0 -2
BITMAP
0000
1080
3c80
7cf0
7d20
7f20
7ea0
1cc0
1c40
3460
2c90
6f10
ENDCHAR
STARTCHAR 02-13-69
ENCODING 11621
SWIDTH 960 0
DWIDTH 12 0
BBX 12 12 0 -2
BITMAP
0000
7e40
7e70
5c40
55f0
5d10
7e90
7ea0
7e40
7e60
7e90
7f10
ENDCHAR
STARTCHAR 02-13-70
ENCODING 11622
SWIDTH 960 0
DWIDTH 12 0
BBX 12 12 0 -2
BITMAP
0000
3c80
7e80
7ef0
3f20
7f20
7ea0
3cc0
7e40
7e60
3e90
1910
ENDCHAR
STARTCHAR 02-13-71
ENCODING 11623
SWIDTH 960 0
DWIDTH 12 0
BBX 12 12 0 -2
BITMAP
0000
3df0
3df0
7fc0
3ce0
7ff0
3ff0
3ff0
2f60
3ff0
6fe0
7d70
ENDCHAR
STARTCHAR 02-13-72
ENCODING 11624
SWIDTH 960 0
DWIDTH 12 0
BBX 12 12 0 -2
BITMAP
0000
3440
6c70
7e40
6ff0
6d10
7e90
7ea0
7e40
0e60
7890
1910
ENDCHAR
STARTCHAR 02-13-73
ENCODING 11625
SWIDTH 960 0
DWIDTH 12 0
BBX 12 12 0 -2
BITMAP
0000
7ff0
7ff0
2f80
0f80
78f0
7ff0
1fc0
1fc0
1fc0
7ff0
7fc0
ENDCHAR
STARTCHAR 02-13-74
ENCODING 11626
SWIDTH 960 0
DWIDTH 12 0
BBX 12 12 0 -2
BITMAP
0000
7620
7ec0
7e80
7ef0
1ca0
7ea0
42a0
7ea0
1920
3e20
7820
ENDCHAR
STARTCHAR 02-13-75
ENCODING 11627
SWIDTH 960 0
DWIDTH 12 0
BBX 12 12 0 -2
BITMAP
0000
3620
6ec0
7680
7af0
76a0
7ea0
6ea0
42a0
6ea0
2920
7e20
ENDCHAR
STARTCHAR 02-13-76
ENCODING 11628
SWIDTH 960 0
DWIDTH 12 0
BBX 12 12 0 -2
BITMAP
0000
7e20
7ec0
7e80
7ef0
7ea0
7ea0
7ea0
7ea0
7ea0
7f20
7e20
ENDCHAR
STARTCHAR 02-13-77
ENCODING 11629
SWIDTH 960 0
DWIDTH 12 0
BBX 12 12 0 -2
BITMAP
0000
1100
1100
7ff0
1200
1df0
1420
1440
27f0
2440
2440
48c0
ENDCHAR
STARTCHAR 02-13-78
ENCODING 11630
SWIDTH 960 0
DWIDTH 12 0
BBX 12 12 0 -2
BITMAP
0000
1100
1100
7ff0
1260
1dc0
1500
15f0
2540
2740
2640
4a40
ENDCHAR
STARTCHAR 02-13-79
ENCODING 11631
SWIDTH 960 0
DWIDTH 12 0
BBX 12 12 0 -2
BITMAP
0000
7ff0
7ff0
3fe0
3fe0
3fe0
3fe0
2620
7ff0
0fc0
1840
71c0
ENDCHAR
STARTCHAR 02-13-80
ENCODING 11632
SWIDTH 960 0
DWIDTH 12 0
BBX 12 12 0 -2
BITMAP
0000
2740
21f0
79f0
2650
39f0
2d40
2df0
2a40
2bf0
4a40
55f0
ENDCHAR
STARTCHAR 02-13-81
ENCODING 11633
SWIDTH 960 0
DWIDTH 12 0
BBX 12 12 0 -2
BITMAP
0000
0200
0200
03e0
0200
7ff0
0000
1fc0
1040
1fc0
1040
1fc0
ENDCHAR
STARTCHAR 02-13-82
ENCODING 11634
SWIDTH 960 0
DWIDTH 12 0
BBX 12 12 0 -2
BITMAP
0000
1fc0
1040
1fc0
1040
1fc0
1040
0200
7ff0
0200
0d80
7070
ENDCHAR
STARTCHAR 02-13-83
ENCODING 11635
SWIDTH 960 0
DWIDTH 12 0
BBX 12 12 0 -2
BITMAP
0000
0200
2220
3fe0
0200
7ff0
0000
1fc0
1040
1fc0
1040
1fc0
ENDCHAR
STARTCHAR 02-13-84
ENCODING 11636
SWIDTH 960 0
DWIDTH 12 0
BBX 12 12 0 -2
BITMAP
0000
0080
7880
4ff0
4a20
7e60
4bc0
49c0
7980
4bc0
0660
0c30
ENDCHAR
STARTCHAR 02-13-85
ENCODING 11637
SWIDTH 960 0
DWIDTH 12 0
BBX 12 12 0 -2
BITMAP
0000
03f0
7a00
4a00
4bf0
7a10
4a10
4b20
7ae0
4440
04a0
0910
ENDCHAR
STARTCHAR 02-13-86
ENCODING 11638
SWIDTH 960 0
DWIDTH 12 0
BBX 12 12 0 -2
BITMAP
0000
0070
7be0
4bf0
4bf0
7a10
4bf0
4a00
7a00
4a00
0600
0c00
ENDCHAR
STARTCHAR 02-13-87
ENCODING 11639
SWIDTH 960 0
DWIDTH 12 0
BBX 12 12 0 -2
BITMAP
0000
0080
7880
4ff0
4900
7940
4a40
4e80
79a0
4920
03d0
0c10
ENDCHAR
STARTCHAR 02-13-88
ENCODING 11640
SWIDTH 960 0
DWIDTH 12 0
BBX 12 12 0 -2
BITMAP
0000
1fc0
1fc0
1fc0
1fc0
0c80
1bc0
7ff0
7ff0
7ff0
1880
3080
ENDCHAR
STARTCHAR 02-13-89
ENCODING 11641
SWIDTH 960 0
DWIDTH 12 0
BBX 12 12 0 -2
BITMAP
0000
07f0
7800
4be0
4a20
7a20
4be0
4a20
7be0
4220
0000
07f0
ENDCHAR
STARTCHAR 02-13-90
ENCODING 11642
SWIDTH 960 0
DWIDTH 12 0
BBX 12 12 0 -2
BITMAP
0000
1fc0
1fc0
1fc0
1fc0
0c00
3fe0
6fb0
6fb0
68b0
6fb0
6730
ENDCHAR
STARTCHAR 02-13-91
ENCODING 11643
SWIDTH 960 0
DWIDTH 12 0
BBX 12 12 0 -2
BITMAP
0000
0240
7a40
4ff0
4a40
7a40
4a40
4ff0
7800
4a40
0220
0420
ENDCHAR
STARTCHAR 02-13-92
ENCODING 11644
SWIDTH 960 0
DWIDTH 12 0
BBX 12 12 0 -2
BITMAP
0000
0200
3fe0
3fe0
0500
7ff0
0880
17c0
7470
17c0
1440
17c0
ENDCHAR
STARTCHAR 02-13-93
ENCODING 11645
SWIDTH 960 0
DWIDTH 12 0
BBX 12 12 0 -2
BITMAP
0000
1240
0a80
3fe0
0500
7ff0
1040
37e0
5450
17c0
1440
17c0
ENDCHAR
STARTCHAR 02-13-94
ENCODING 11646
SWIDTH 960 0
DWIDTH 12 0
BBX 12 12 0 -2
BITMAP
0000
0180
79c0
4bc0
4ff0
7be0
4be0
48c0
7be0
4be0
0220
03e0
ENDCHAR
STARTCHAR 02-14-01
ENCODING 11809
SWIDTH 960 0
DWIDTH 12 0
BBX 12 12 0 -2
BITMAP
0000
03e0
7a20
4be0
4a20
7be0
4a20
4be0
7b60
4150
0250
0c30
ENDCHAR
STARTCHAR 02-14-02
ENCODING 11810
SWIDTH 960 0
DWIDTH 12 0
BBX 12 12 0 -2
BITMAP
0000
0470
74e0
5e80
5ff0
74a0
57a0
5ca0
74a0
55a0
0520
0d20
ENDCHAR
STARTCHAR 02-14-03
ENCODING 11811
SWIDTH 960 0
DWIDTH 12 0
BBX 12 12 0 -2
BITMAP
0000
1fc0
1fc0
1fc0
1fc0
19c0
79f0
69f0
79f0
69f0
7930
3b70
ENDCHAR
STARTCHAR 02-14-04
ENCODING 11812
SWIDTH 960 0
DWIDTH 12 0
BBX 12 12 0 -2
BITMAP
0000
3df0
2510
4910
7df0
5510
5510
7d10
29f0
2910
2810
47f0
ENDCHAR
STARTCHAR 02-14-05
ENCODING 11813
SWIDTH 960 0
DWIDTH 12 0
BBX 12 12 0 -2
BITMAP
0000
02c0
7ac0
5ff0
5ef0
5ff0
7ff0
5ef0
5ff0
7ff0
0260
0670
ENDCHAR
STARTCHAR 02-14-06
ENCODING 11814
SWIDTH 960 0
DWIDTH 12 0
BBX 12 12 0 -2
BITMAP
0000
0100
79e0
5fe0
5fe0
5c60
7fe0
5c20
5fe0
7ff0
0100
0100
ENDCHAR
STARTCHAR 02-14-07
ENCODING 11815
SWIDTH 960 0
DWIDTH 12 0
BBX 12 12 0 -2
BITMAP
0000
0080
7fe0
5820
5a20
5f60
7fd0
5990
5ff0
7880
0080
0080
ENDCHAR
STARTCHAR 02-14-08
ENCODING 11816
SWIDTH 960 0
DWIDTH 12 0
BBX 12 12 0 -2
BITMAP
0000
07e0
7ff0
5df0
5ff0
5ff0
7cb0
5ff0
5e70
7ff0
0c30
0c70
ENDCHAR
STARTCHAR 02-14-09
ENCODING 11817
SWIDTH 960 0
DWIDTH 12 0
BBX 12 12 0 -2
BITMAP
0000
0100
7ff0
5bc0
5be0
5ff0
7eb0
5be0
5aa0
7be0
0090
00f0
ENDCHAR
STARTCHAR 02-14-10
ENCODING 11818
SWIDTH 960 0
DWIDTH 12 0
BBX 12 12 0 -2
BITMAP
0000
06c0
74c0
5bf0
52c0
56c0
7de0
5cc0
54c0
74c0
05f0
05f0
ENDCHAR
STARTCHAR 02-14-11
ENCODING 11819
SWIDTH 960 0
DWIDTH 12 0
BBX 12 12 0 -2
BITMAP
0000
03c0
7be0
5ff0
5ff0
5be0
7be0
5be0
5be0
7e40
0ff0
0040
ENDCHAR
STARTCHAR 02-14-12
ENCODING 11820
SWIDTH 960 0
DWIDTH 12 0
BBX 12 12 0 -2
BITMAP
0000
03e0
7a20
4be0
4a20
7be0
4a80
4be0
7c80
43e0
0080
07f0
ENDCHAR
STARTCHAR 02-14-13
ENCODING 11821
SWIDTH 960 0
DWIDTH 12 0
BBX 12 12 0 -2
BITMAP
0000
0080
7fe0
5be0
5be0
5ff0
7a60
5ff0
5e30
7be0
0220
03e0
ENDCHAR
STARTCHAR 02-14-14
ENCODING 11822
SWIDTH 960 0
DWIDTH 12 0
BBX 12 12 0 -2
BITMAP
0000
1fc0
1fc0
1fc0
1fc0
1580
3de0
18c0
3fe0
39f0
2da0
65b0
ENDCHAR
STARTCHAR 02-14-15
ENCODING 11823
SWIDTH 960 0
DWIDTH 12 0
BBX 12 12 0 -2
BITMAP
0000
0180
7be0
5bf0
5bf0
5bf0
7ae0
5ae0
5be0
7ff0
0080
0080
ENDCHAR
STARTCHAR 02-14-16
ENCODING 11824
SWIDTH 960 0
DWIDTH 12 0
BBX 12 12 0 -2
BITMAP
0000
07f0
7ff0
5de0
5fe0
5da0
7ff0
5ff0
5f30
7df0
07f0
07f0
ENDCHAR
STARTCHAR 02-14-17
ENCODING 11825
SWIDTH 960 0
DWIDTH 12 0
BBX 12 12 0 -2
BITMAP
0000
07f0
7ff0
5bc0
5fe0
5ff0
7fe0
5ff0
5ff0
7ff0
03e0
0e70
ENDCHAR
STARTCHAR 02-14-18
ENCODING 11826
SWIDTH 960 0
DWIDTH 12 0
BBX 12 12 0 -2
BITMAP
0000
0240
7fc0
5470
5ff0
5f70
7f70
5f70
5f20
7f70
0970
0bf0
ENDCHAR
STARTCHAR 02-14-19
ENCODING 11827
SWIDTH 960 0
DWIDTH 12 0
BBX 12 12 0 -2
BITMAP
0000
03f0
7bf0
4bf0
4be0
4bf0
7be0
49e0
4ff0
7bf0
0230
03f0
ENDCHAR
STARTCHAR 02-14-20
ENCODING 11828
SWIDTH 960 0
DWIDTH 12 0
BBX 12 12 0 -2
BITMAP
0000
7de0
7de0
7df0
7ff0
79f0
7ff0
1fc0
1fc0
1fc0
1040
1fc0
ENDCHAR
STARTCHAR 02-14-21
ENCODING 11829
SWIDTH 960 0
DWIDTH 12 0
BBX 12 12 0 -2
BITMAP
0000
0ff0
7ff0
5ff0
5bb0
5ff0
7fe0
5ff0
5fe0
7ff0
0fd0
0770
ENDCHAR
STARTCHAR 02-14-22
ENCODING 11830
SWIDTH 960 0
DWIDTH 12 0
BBX 12 12 0 -2
BITMAP
0000
1fc0
1fc0
1fc0
1fc0
1fc0
3fc0
0300
7ff0
7ff0
0200
0e00
ENDCHAR
STARTCHAR 02-14-23
ENCODING 11831
SWIDTH 960 0
DWIDTH 12 0
BBX 12 12 0 -2
BITMAP
0000
3de0
7de0
7de0
7fe0
3ad0
7ff0
0f80
1fc0
1fc0
1040
1fc0
ENDCHAR
STARTCHAR 02-14-24
ENCODING 11832
SWIDTH 960 0
DWIDTH 12 0
BBX 12 12 0 -2
BITMAP
0000
13f0
1230
7ff0
1230
13f0
7ff0
37d0
2fd0
6bd0
7ff0
45f0
ENDCHAR
STARTCHAR 02-14-25
ENCODING 11833
SWIDTH 960 0
DWIDTH 12 0
BBX 12 12 0 -2
BITMAP
0000
3080
7ff0
7d90
7dd0
7f50
7ff0
7dd0
7fd0
7f70
7c10
5c30
ENDCHAR
STARTCHAR 02-14-26
ENCODING 11834
SWIDTH 960 0
DWIDTH 12 0
BBX 12 12 0 -2
BITMAP
0000
37e0
7fe0
7be0
7a20
7ff0
7900
7ff0
7a60
7bc0
79e0
5f70
ENDCHAR
STARTCHAR 02-14-27
ENCODING 11835
SWIDTH 960 0
DWIDTH 12 0
BBX 12 12 0 -2
BITMAP
0000
00e0
7ff0
5bb0
5bf0
6fb0
47b0
5bf0
5bb0
7fb0
01b0
0370
ENDCHAR
STARTCHAR 02-14-28
ENCODING 11836
SWIDTH 960 0
DWIDTH 12 0
BBX 12 12 0 -2
BITMAP
0000
13e0
1080
7c80
13f0
3900
3500
57e0
5020
1020
1020
10c0
ENDCHAR
STARTCHAR 02-14-29
ENCODING 11837
SWIDTH 960 0
DWIDTH 12 0
BBX 12 12 0 -2
BITMAP
0000
1100
1100
7fc0
13c0
3940
3740
5740
53c0
1340
1250
1070
ENDCHAR
STARTCHAR 02-14-30
ENCODING 11838
SWIDTH 960 0
DWIDTH 12 0
BBX 12 12 0 -2
BITMAP
0000
13f0
13f0
7d40
1140
3940
3540
5540
5140
1340
1250
1270
ENDCHAR
STARTCHAR 02-14-31
ENCODING 11839
SWIDTH 960 0
DWIDTH 12 0
BBX 12 12 0 -2
BITMAP
0000
11f0
1010
7c20
1040
3840
37f0
5440
5040
1040
1040
11c0
ENDCHAR
STARTCHAR 02-14-32
ENCODING 11840
SWIDTH 960 0
DWIDTH 12 0
BBX 12 12 0 -2
BITMAP
0000
1020
10c0
7f80
1080
38f0
3780
5480
5080
1090
1090
1070
ENDCHAR
STARTCHAR 02-14-33
ENCODING 11841
SWIDTH 960 0
DWIDTH 12 0
BBX 12 12 0 -2
BITMAP
0000
1080
1280
7eb0
12d0
3b90
3690
5690
52a0
1200
1210
11f0
ENDCHAR
STARTCHAR 02-14-34
ENCODING 11842
SWIDTH 960 0
DWIDTH 12 0
BBX 12 12 0 -2
BITMAP
0000
1080
1080
7df0
1110
3a10
3520
54a0
5040
1080
1100
1600
ENDCHAR
STARTCHAR 02-14-35
ENCODING 11843
SWIDTH 960 0
DWIDTH 12 0
BBX 12 12 0 -2
BITMAP
0000
1240
1260
7e20
1270
3a40
37c0
55c0
5080
11c0
13e0
1270
ENDCHAR
STARTCHAR 02-14-36
ENCODING 11844
SWIDTH 960 0
DWIDTH 12 0
BBX 12 12 0 -2
BITMAP
0000
1080
1080
7ff0
1080
3aa0
36a0
56a0
52b0
10b0
10b0
1080
ENDCHAR
STARTCHAR 02-14-37
ENCODING 11845
SWIDTH 960 0
DWIDTH 12 0
BBX 12 12 0 -2
BITMAP
0000
1100
1100
7df0
1110
3aa0
3480
5480
50c0
1140
1120
1210
ENDCHAR
STARTCHAR 02-14-38
ENCODING 11846
SWIDTH 960 0
DWIDTH 12 0
BBX 12 12 0 -2
BITMAP
0000
10a0
10c0
7f80
1090
3a90
3690
5690
53f0
1080
1090
1070
ENDCHAR
STARTCHAR 02-14-39
ENCODING 11847
SWIDTH 960 0
DWIDTH 12 0
BBX 12 12 0 -2
BITMAP
0000
1060
1380
7e80
1280
3a80
37f0
5240
5240
1250
1330
1610
ENDCHAR
STARTCHAR 02-14-40
ENCODING 11848
SWIDTH 960 0
DWIDTH 12 0
BBX 12 12 0 -2
BITMAP
0000
13e0
1040
7e40
1240
3bf0
34c0
54c0
5140
1140
1240
14c0
ENDCHAR
STARTCHAR 02-14-41
ENCODING 11849
SWIDTH 960 0
DWIDTH 12 0
BBX 12 12 0 -2
BITMAP
0000
10c0
10c0
7ff0
10c0
79e0
79e0
79e0
7bf0
56f0
56f0
10c0
ENDCHAR
STARTCHAR 02-14-42
ENCODING 11850
SWIDTH 960 0
DWIDTH 12 0
BBX 12 12 0 -2
BITMAP
0000
0880
7ff0
0880
3ff0
2210
4200
7ff0
0700
0a80
1240
6230
ENDCHAR
STARTCHAR 02-14-43
ENCODING 11851
SWIDTH 960 0
DWIDTH 12 0
BBX 12 12 0 -2
BITMAP
0000
1180
1040
7f80
1090
38d0
37e0
55c0
51a0
12a0
1490
1190
ENDCHAR
STARTCHAR 02-14-44
ENCODING 11852
SWIDTH 960 0
DWIDTH 12 0
BBX 12 12 0 -2
BITMAP
0000
17f0
1080
7ac0
12a0
3ca0
37f0
5480
5080
1080
1080
1080
ENDCHAR
STARTCHAR 02-14-45
ENCODING 11853
SWIDTH 960 0
DWIDTH 12 0
BBX 12 12 0 -2
BITMAP
0000
0c40
1bc0
7e60
1fe0
1040
1fc0
0200
7ff0
0700
1ac0
6230
ENDCHAR
STARTCHAR 02-14-46
ENCODING 11854
SWIDTH 960 0
DWIDTH 12 0
BBX 12 12 0 -2
BITMAP
0000
1080
1080
7d40
1220
3bd0
3400
57e0
5120
1120
11c0
1100
ENDCHAR
STARTCHAR 02-14-47
ENCODING 11855
SWIDTH 960 0
DWIDTH 12 0
BBX 12 12 0 -2
BITMAP
0000
12a0
1290
7c90
13f0
3880
3480
57f0
5080
1080
1080
1080
ENDCHAR
STARTCHAR 02-14-48
ENCODING 11856
SWIDTH 960 0
DWIDTH 12 0
BBX 12 12 0 -2
BITMAP
0000
1200
3a00
67f0
2200
1b00
71e0
0200
7ff0
0700
1ac0
6230
ENDCHAR
STARTCHAR 02-14-49
ENCODING 11857
SWIDTH 960 0
DWIDTH 12 0
BBX 12 12 0 -2
BITMAP
0000
13f0
1290
7e90
13f0
3a90
3690
53f0
5290
1080
1080
1080
ENDCHAR
STARTCHAR 02-14-50
ENCODING 11858
SWIDTH 960 0
DWIDTH 12 0
BBX 12 12 0 -2
BITMAP
0000
1080
1080
7ff0
1290
3bf0
3690
5290
53f0
1290
1080
1080
ENDCHAR
STARTCHAR 02-14-51
ENCODING 11859
SWIDTH 960 0
DWIDTH 12 0
BBX 12 12 0 -2
BITMAP
0000
0200
7ff0
0700
0a80
1240
6fb0
0000
3fe0
1240
6230
0e00
ENDCHAR
STARTCHAR 02-14-52
ENCODING 11860
SWIDTH 960 0
DWIDTH 12 0
BBX 12 12 0 -2
BITMAP
0000
13f0
1210
7e10
1210
3bf0
3750
5540
5140
1150
1250
1430
ENDCHAR
STARTCHAR 02-14-53
ENCODING 11861
SWIDTH 960 0
DWIDTH 12 0
BBX 12 12 0 -2
BITMAP
0000
1100
1100
7ff0
1140
3a40
37f0
5640
5240
1240
1240
13f0
ENDCHAR
STARTCHAR 02-14-54
ENCODING 11862
SWIDTH 960 0
DWIDTH 12 0
BBX 12 12 0 -2
BITMAP
0000
1080
13e0
7c30
13e0
38c0
3480
57f0
5080
1080
1080
1380
ENDCHAR
STARTCHAR 02-14-55
ENCODING 11863
SWIDTH 960 0
DWIDTH 12 0
BBX 12 12 0 -2
BITMAP
0000
1080
13f0
7c10
1040
3840
37f0
5240
5140
1140
1040
10c0
ENDCHAR
STARTCHAR 02-14-56
ENCODING 11864
SWIDTH 960 0
DWIDTH 12 0
BBX 12 12 0 -2
BITMAP
0000
1080
10f0
7d10
12a0
3840
3780
54f0
5110
12a0
1040
1380
ENDCHAR
STARTCHAR 02-14-57
ENCODING 11865
SWIDTH 960 0
DWIDTH 12 0
BBX 12 12 0 -2
BITMAP
0000
1210
1120
7bf0
1120
3920
37f0
5520
5120
1120
1120
1220
ENDCHAR
STARTCHAR 02-14-58
ENCODING 11866
SWIDTH 960 0
DWIDTH 12 0
BBX 12 12 0 -2
BITMAP
0000
17f0
1080
7d00
13f0
3ad0
36d0
56d0
52d0
12d0
12d0
1230
ENDCHAR
STARTCHAR 02-14-59
ENCODING 11867
SWIDTH 960 0
DWIDTH 12 0
BBX 12 12 0 -2
BITMAP
0000
1090
13f0
7ca0
13f0
3880
3500
57f0
5040
1040
1040
11c0
ENDCHAR
STARTCHAR 02-14-60
ENCODING 11868
SWIDTH 960 0
DWIDTH 12 0
BBX 12 12 0 -2
BITMAP
0000
10a0
13e0
7ca0
10c0
3bf0
3500
5320
55c0
1110
1110
10f0
ENDCHAR
STARTCHAR 02-14-61
ENCODING 11869
SWIDTH 960 0
DWIDTH 12 0
BBX 12 12 0 -2
BITMAP
0000
10a0
1090
7ff0
1080
3880
3740
5640
5250
1350
1430
1010
ENDCHAR
STARTCHAR 02-14-62
ENCODING 11870
SWIDTH 960 0
DWIDTH 12 0
BBX 12 12 0 -2
BITMAP
0000
0200
7ff0
0480
24a0
2890
5190
0200
7ff0
0700
1ac0
6230
ENDCHAR
STARTCHAR 02-14-63
ENCODING 11871
SWIDTH 960 0
DWIDTH 12 0
BBX 12 12 0 -2
BITMAP
0000
1080
1290
7aa0
11a0
3880
37f0
5540
5140
1150
1250
1430
ENDCHAR
STARTCHAR 02-14-64
ENCODING 11872
SWIDTH 960 0
DWIDTH 12 0
BBX 12 12 0 -2
BITMAP
0000
11e0
1240
7c80
13f0
3a00
37e0
5320
5320
15d0
1510
10f0
ENDCHAR
STARTCHAR 02-14-65
ENCODING 11873
SWIDTH 960 0
DWIDTH 12 0
BBX 12 12 0 -2
BITMAP
0000
1080
17f0
7d10
1100
3900
37f0
5240
5440
1380
1240
1430
ENDCHAR
STARTCHAR 02-14-66
ENCODING 11874
SWIDTH 960 0
DWIDTH 12 0
BBX 12 12 0 -2
BITMAP
0000
0200
03e0
1fc0
1fc0
1fc0
1040
1fc0
7ff0
0700
1ac0
6230
ENDCHAR
STARTCHAR 02-14-67
ENCODING 11875
SWIDTH 960 0
DWIDTH 12 0
BBX 12 12 0 -2
BITMAP
0000
1180
1180
7e70
1230
3a30
3770
5630
5230
1230
13f0
13e0
ENDCHAR
STARTCHAR 02-14-68
ENCODING 11876
SWIDTH 960 0
DWIDTH 12 0
BBX 12 12 0 -2
BITMAP
0000
13c0
13e0
7db0
1190
3b30
37e0
57f0
53e0
13f0
12b0
1080
ENDCHAR
STARTCHAR 02-14-69
ENCODING 11877
SWIDTH 960 0
DWIDTH 12 0
BBX 12 12 0 -2
BITMAP
0000
13f0
1290
7ff0
1290
3bf0
3690
5480
53f0
1090
1110
1660
ENDCHAR
STARTCHAR 02-14-70
ENCODING 11878
SWIDTH 960 0
DWIDTH 12 0
BBX 12 12 0 -2
BITMAP
0000
1040
1240
7ff0
13f0
3b50
3640
54f0
5220
1260
1240
10c0
ENDCHAR
STARTCHAR 02-14-71
ENCODING 11879
SWIDTH 960 0
DWIDTH 12 0
BBX 12 12 0 -2
BITMAP
0000
13f0
13f0
7dc0
13e0
3bf0
34c0
5480
53f0
1230
1230
13f0
ENDCHAR
STARTCHAR 02-14-72
ENCODING 11880
SWIDTH 960 0
DWIDTH 12 0
BBX 12 12 0 -2
BITMAP
0000
13f0
13f0
7d40
1370
3950
3550
5550
5370
1340
1240
1240
ENDCHAR
STARTCHAR 02-14-73
ENCODING 11881
SWIDTH 960 0
DWIDTH 12 0
BBX 12 12 0 -2
BITMAP
0000
0200
3fe0
0e80
1ec0
7670
1fc0
72f0
32c0
1f80
1fc0
3ee0
ENDCHAR
STARTCHAR 02-14-74
ENCODING 11882
SWIDTH 960 0
DWIDTH 12 0
BBX 12 12 0 -2
BITMAP
0000
10a0
1090
7bf0
1080
34a0
3aa0
55c0
52c0
14a0
1090
1380
ENDCHAR
STARTCHAR 02-14-75
ENCODING 11883
SWIDTH 960 0
DWIDTH 12 0
BBX 12 12 0 -2
BITMAP
0000
12c0
12e0
7fe0
12c0
3ad0
3770
5480
53e0
13e0
13f0
13f0
ENDCHAR
STARTCHAR 02-14-76
ENCODING 11884
SWIDTH 960 0
DWIDTH 12 0
BBX 12 12 0 -2
BITMAP
0000
13f0
1210
7e10
13f0
3a10
37f0
5610
5210
13f0
1120
1210
ENDCHAR
STARTCHAR 02-14-77
ENCODING 11885
SWIDTH 960 0
DWIDTH 12 0
BBX 12 12 0 -2
BITMAP
0000
1750
1550
7d50
1750
3250
3b50
5550
5550
1510
1910
1330
ENDCHAR
STARTCHAR 02-14-78
ENCODING 11886
SWIDTH 960 0
DWIDTH 12 0
BBX 12 12 0 -2
BITMAP
0000
13e0
1220
7fe0
1220
3be0
3620
57e0
5360
1150
1250
1430
ENDCHAR
STARTCHAR 02-14-79
ENCODING 11887
SWIDTH 960 0
DWIDTH 12 0
BBX 12 12 0 -2
BITMAP
0000
1080
13e0
7eb0
12b0
3bf0
37f0
5590
5090
13f0
1080
1080
ENDCHAR
STARTCHAR 02-14-80
ENCODING 11888
SWIDTH 960 0
DWIDTH 12 0
BBX 12 12 0 -2
BITMAP
0000
11e0
1120
7e40
13f0
3a90
3690
57f0
5140
1150
1250
1430
ENDCHAR
STARTCHAR 02-14-81
ENCODING 11889
SWIDTH 960 0
DWIDTH 12 0
BBX 12 12 0 -2
BITMAP
0000
1080
13f0
7ca0
12a0
3aa0
37f0
55d0
53c0
1340
1260
1230
ENDCHAR
STARTCHAR 02-14-82
ENCODING 11890
SWIDTH 960 0
DWIDTH 12 0
BBX 12 12 0 -2
BITMAP
0000
13f0
1000
7ff0
1210
3a10
37f0
5220
5220
1120
1140
13f0
ENDCHAR
STARTCHAR 02-14-83
ENCODING 11891
SWIDTH 960 0
DWIDTH 12 0
BBX 12 12 0 -2
BITMAP
0000
11c0
11e0
7ff0
13e0
3be0
37f0
57f0
5360
11c0
13e0
1370
ENDCHAR
STARTCHAR 02-14-84
ENCODING 11892
SWIDTH 960 0
DWIDTH 12 0
BBX 12 12 0 -2
BITMAP
0000
1270
12e0
7e40
1040
3bf0
37c0
57c0
53c0
12f0
1380
11f0
ENDCHAR
STARTCHAR 02-14-85
ENCODING 11893
SWIDTH 960 0
DWIDTH 12 0
BBX 12 12 0 -2
BITMAP
0000
12e0
13f0
7ef0
13f0
3be0
37f0
56f0
52f0
12f0
12b0
1330
ENDCHAR
STARTCHAR 02-14-86
ENCODING 11894
SWIDTH 960 0
DWIDTH 12 0
BBX 12 12 0 -2
BITMAP
0000
7ff0
7ff0
1f80
3fe0
64f0
0d80
0200
7ff0
0700
1ac0
6230
ENDCHAR
STARTCHAR 02-14-87
ENCODING 11895
SWIDTH 960 0
DWIDTH 12 0
BBX 12 12 0 -2
BITMAP
0000
10c0
13e0
7cc0
1230
3bf0
3630
5600
53f0
1140
1350
1270
ENDCHAR
STARTCHAR 02-14-88
ENCODING 11896
SWIDTH 960 0
DWIDTH 12 0
BBX 12 12 0 -2
BITMAP
0000
1240
13f0
7fe0
13e0
3bf0
3680
56f0
52e0
12e0
13f0
1170
ENDCHAR
STARTCHAR 02-14-89
ENCODING 11897
SWIDTH 960 0
DWIDTH 12 0
BBX 12 12 0 -2
BITMAP
0000
1140
13f0
7d40
1220
3a20
37f0
56e0
52a0
12e0
1220
12e0
ENDCHAR
STARTCHAR 02-14-90
ENCODING 11898
SWIDTH 960 0
DWIDTH 12 0
BBX 12 12 0 -2
BITMAP
0000
1900
7be0
7bf0
7bb0
39b0
7b20
12e0
7ff0
0700
1ac0
6230
ENDCHAR
STARTCHAR 02-14-91
ENCODING 11899
SWIDTH 960 0
DWIDTH 12 0
BBX 12 12 0 -2
BITMAP
0000
13e0
1380
7ff0
13e0
3bf0
37f0
57f0
53c0
13c0
13f0
10b0
ENDCHAR
STARTCHAR 02-14-92
ENCODING 11900
SWIDTH 960 0
DWIDTH 12 0
BBX 12 12 0 -2
BITMAP
0000
1070
1380
7e20
1290
3850
3480
57f0
50c0
11a0
1290
1080
ENDCHAR
STARTCHAR 02-14-93
ENCODING 11901
SWIDTH 960 0
DWIDTH 12 0
BBX 12 12 0 -2
BITMAP
0000
13e0
1220
7fe0
1220
3be0
37f0
5420
53f0
1220
1120
10e0
ENDCHAR
STARTCHAR 02-14-94
ENCODING 11902
SWIDTH 960 0
DWIDTH 12 0
BBX 12 12 0 -2
BITMAP
0000
13e0
1200
7fe0
1200
3be0
3600
57f0
52a0
1240
13a0
1610
ENDCHAR
STARTCHAR 02-15-01
ENCODING 12065
SWIDTH 960 0
DWIDTH 12 0
BBX 12 12 0 -2
BITMAP
0000
13f0
13c0
7ff0
1230
3bf0
36c0
57f0
52c0
12c0
13e0
1330
ENDCHAR
STARTCHAR 02-15-02
ENCODING 12066
SWIDTH 960 0
DWIDTH 12 0
BBX 12 12 0 -2
BITMAP
0000
1120
13f0
7d20
1120
3bf0
3400
55e0
5120
11e0
1120
11e0
ENDCHAR
STARTCHAR 02-15-03
ENCODING 12067
SWIDTH 960 0
DWIDTH 12 0
BBX 12 12 0 -2
BITMAP
0000
1020
1120
7ff0
1220
3b60
3470
55f0
53e0
1320
1320
1020
ENDCHAR
STARTCHAR 02-15-04
ENCODING 12068
SWIDTH 960 0
DWIDTH 12 0
BBX 12 12 0 -2
BITMAP
0000
12a0
10b0
7ff0
11c0
3bf0
3660
57f0
5270
12c0
1230
13e0
ENDCHAR
STARTCHAR 02-15-05
ENCODING 12069
SWIDTH 960 0
DWIDTH 12 0
BBX 12 12 0 -2
BITMAP
0000
17f0
1500
7df0
1710
3d90
37a0
5560
5540
17a0
1d10
1110
ENDCHAR
STARTCHAR 02-15-06
ENCODING 12070
SWIDTH 960 0
DWIDTH 12 0
BBX 12 12 0 -2
BITMAP
0000
10e0
10e0
7ff0
10b0
39c0
3780
54f0
5140
1140
1150
1370
ENDCHAR
STARTCHAR 02-15-07
ENCODING 12071
SWIDTH 960 0
DWIDTH 12 0
BBX 12 12 0 -2
BITMAP
0000
13e0
1220
7fe0
1220
3be0
3620
53e0
5220
17f0
1220
1410
ENDCHAR
STARTCHAR 02-15-08
ENCODING 12072
SWIDTH 960 0
DWIDTH 12 0
BBX 12 12 0 -2
BITMAP
0000
1060
1380
7c80
13f0
3940
3620
5490
5280
12e0
14d0
1190
ENDCHAR
STARTCHAR 02-15-09
ENCODING 12073
SWIDTH 960 0
DWIDTH 12 0
BBX 12 12 0 -2
BITMAP
0000
1080
13f0
7d40
1220
3a10
37e0
5000
53f0
12a0
1290
1590
ENDCHAR
STARTCHAR 02-15-10
ENCODING 12074
SWIDTH 960 0
DWIDTH 12 0
BBX 12 12 0 -2
BITMAP
0000
13f0
13f0
7ff0
13f0
3bf0
37e0
57f0
5060
13f0
10c0
11c0
ENDCHAR
STARTCHAR 02-15-11
ENCODING 12075
SWIDTH 960 0
DWIDTH 12 0
BBX 12 12 0 -2
BITMAP
0000
13f0
13f0
7ff0
13f0
3bf0
37e0
57f0
53e0
11e0
13a0
13f0
ENDCHAR
STARTCHAR 02-15-12
ENCODING 12076
SWIDTH 960 0
DWIDTH 12 0
BBX 12 12 0 -2
BITMAP
0000
7ff0
7ff0
3d20
3d20
3d20
2ce0
22e0
7ff0
0700
1ac0
6230
ENDCHAR
STARTCHAR 02-15-13
ENCODING 12077
SWIDTH 960 0
DWIDTH 12 0
BBX 12 12 0 -2
BITMAP
0000
17f0
1140
7ff0
1550
37f0
3900
57f0
5120
13c0
1160
1610
ENDCHAR
STARTCHAR 02-15-14
ENCODING 12078
SWIDTH 960 0
DWIDTH 12 0
BBX 12 12 0 -2
BITMAP
0000
11f0
1140
79f0
1350
3bf0
3750
57f0
5240
12c0
12a0
1310
ENDCHAR
STARTCHAR 02-15-15
ENCODING 12079
SWIDTH 960 0
DWIDTH 12 0
BBX 12 12 0 -2
BITMAP
0000
13e0
1220
7fe0
1220
3be0
37f0
5790
5190
13d0
13f0
13f0
ENDCHAR
STARTCHAR 02-15-16
ENCODING 12080
SWIDTH 960 0
DWIDTH 12 0
BBX 12 12 0 -2
BITMAP
0000
1070
1050
7ff0
13c0
3850
37d0
57f0
53e0
11f0
1270
11b0
ENDCHAR
STARTCHAR 02-15-17
ENCODING 12081
SWIDTH 960 0
DWIDTH 12 0
BBX 12 12 0 -2
BITMAP
0000
13e0
1240
7d80
13f0
3aa0
34c0
5580
57f0
11c0
12a0
1490
ENDCHAR
STARTCHAR 02-15-18
ENCODING 12082
SWIDTH 960 0
DWIDTH 12 0
BBX 12 12 0 -2
BITMAP
0000
10e0
13c0
7ff0
13f0
3be0
36b0
57e0
5220
13e0
1220
13e0
ENDCHAR
STARTCHAR 02-15-19
ENCODING 12083
SWIDTH 960 0
DWIDTH 12 0
BBX 12 12 0 -2
BITMAP
0000
17f0
1090
7bf0
1040
3bf0
35b0
56d0
51b0
12d0
1090
1320
ENDCHAR
STARTCHAR 02-15-20
ENCODING 12084
SWIDTH 960 0
DWIDTH 12 0
BBX 12 12 0 -2
BITMAP
0000
0200
3fe0
78f0
3f60
3fe0
7ff0
18c0
0f80
7ff0
3fc0
72f0
ENDCHAR
STARTCHAR 02-15-21
ENCODING 12085
SWIDTH 960 0
DWIDTH 12 0
BBX 12 12 0 -2
BITMAP
0000
18c0
7ee0
3ca0
3db0
7f20
7ff0
18b0
7ee0
7c40
7ee0
5bb0
ENDCHAR
STARTCHAR 02-15-22
ENCODING 12086
SWIDTH 960 0
DWIDTH 12 0
BBX 12 12 0 -2
BITMAP
0000
21f0
3ff0
78f0
7fb0
3cf0
3ff0
67f0
7ff0
0700
1ac0
6230
ENDCHAR
STARTCHAR 02-15-23
ENCODING 12087
SWIDTH 960 0
DWIDTH 12 0
BBX 12 12 0 -2
BITMAP
0000
10c0
7ec0
3de0
7fb0
67e0
7fe0
64c0
3de0
7ff0
12f0
10c0
ENDCHAR
STARTCHAR 02-15-24
ENCODING 12088
SWIDTH 960 0
DWIDTH 12 0
BBX 12 12 0 -2
BITMAP
0000
13f0
13e0
7ff0
13f0
3be0
3790
55f0
53e0
13f0
13f0
13f0
ENDCHAR
STARTCHAR 02-15-25
ENCODING 12089
SWIDTH 960 0
DWIDTH 12 0
BBX 12 12 0 -2
BITMAP
0000
1100
13f0
7d50
13d0
3bf0
36c0
57f0
52c0
13f0
12c0
13f0
ENDCHAR
STARTCHAR 02-15-26
ENCODING 12090
SWIDTH 960 0
DWIDTH 12 0
BBX 12 12 0 -2
BITMAP
0000
3140
7d60
7fe0
7fe0
7bc0
7ff0
7eb0
7ff0
7fe0
7fe0
5ca0
ENDCHAR
STARTCHAR 02-15-27
ENCODING 12091
SWIDTH 960 0
DWIDTH 12 0
BBX 12 12 0 -2
BITMAP
0000
1080
13e0
7c80
13f0
3940
37a0
5420
53e0
12a0
12a0
17f0
ENDCHAR
STARTCHAR 02-15-28
ENCODING 12092
SWIDTH 960 0
DWIDTH 12 0
BBX 12 12 0 -2
BITMAP
0000
7ff0
7ff0
1fc0
3fe0
6fb0
7ff0
7ff0
7ff0
7ff0
7ef0
7270
ENDCHAR
STARTCHAR 02-15-29
ENCODING 12093
SWIDTH 960 0
DWIDTH 12 0
BBX 12 12 0 -2
BITMAP
0000
3de0
7df0
6530
7df0
18c0
7ff0
19c0
3de0
3de0
7af0
5ad0
ENDCHAR
STARTCHAR 02-15-30
ENCODING 12094
SWIDTH 960 0
DWIDTH 12 0
BBX 12 12 0 -2
BITMAP
0000
3fe0
3fe0
1fc0
3fe0
7ff0
1fc0
1fc0
3fc0
0fc0
3fe0
7270
ENDCHAR
STARTCHAR 02-15-31
ENCODING 12095
SWIDTH 960 0
DWIDTH 12 0
BBX 12 12 0 -2
BITMAP
0000
1080
17f0
7c10
13e0
3bf0
3690
57f0
5290
13f0
1140
1630
ENDCHAR
STARTCHAR 02-15-32
ENCODING 12096
SWIDTH 960 0
DWIDTH 12 0
BBX 12 12 0 -2
BITMAP
0000
2260
27f0
7fe0
23e0
37f0
7ec0
03f0
7ff0
0700
1ac0
6230
ENDCHAR
STARTCHAR 02-15-33
ENCODING 12097
SWIDTH 960 0
DWIDTH 12 0
BBX 12 12 0 -2
BITMAP
0000
13e0
1080
7ff0
16b0
3aa0
3400
57e0
5020
17f0
1020
13e0
ENDCHAR
STARTCHAR 02-15-34
ENCODING 12098
SWIDTH 960 0
DWIDTH 12 0
BBX 12 12 0 -2
BITMAP
0000
13e0
13f0
7ff0
13f0
3bb0
37e0
57f0
53f0
13f0
13f0
1150
ENDCHAR
STARTCHAR 02-15-35
ENCODING 12099
SWIDTH 960 0
DWIDTH 12 0
BBX 12 12 0 -2
BITMAP
0000
1200
13f0
7fe0
11e0
39e0
3520
57f0
53f0
13f0
13f0
13f0
ENDCHAR
STARTCHAR 02-15-36
ENCODING 12100
SWIDTH 960 0
DWIDTH 12 0
BBX 12 12 0 -2
BITMAP
0000
1080
13f0
7c90
13f0
3b60
3620
57f0
53a0
13a0
13a0
1360
ENDCHAR
STARTCHAR 02-15-37
ENCODING 12101
SWIDTH 960 0
DWIDTH 12 0
BBX 12 12 0 -2
BITMAP
0000
1080
1120
7fd0
12a0
3bd0
36a0
5710
50d0
1320
1040
1380
ENDCHAR
STARTCHAR 02-15-38
ENCODING 12102
SWIDTH 960 0
DWIDTH 12 0
BBX 12 12 0 -2
BITMAP
0000
1080
1290
7ff0
1280
3bf0
3680
57f0
5280
13f0
1280
13f0
ENDCHAR
STARTCHAR 02-15-39
ENCODING 12103
SWIDTH 960 0
DWIDTH 12 0
BBX 12 12 0 -2
BITMAP
0000
09e0
6ff0
7be0
7fa0
2ff0
2b20
6960
7ff0
0700
1ac0
6230
ENDCHAR
STARTCHAR 02-15-40
ENCODING 12104
SWIDTH 960 0
DWIDTH 12 0
BBX 12 12 0 -2
BITMAP
0000
12f0
13f0
7ff0
1360
3bc0
37b0
57f0
5230
12f0
1270
1270
ENDCHAR
STARTCHAR 02-15-41
ENCODING 12105
SWIDTH 960 0
DWIDTH 12 0
BBX 12 12 0 -2
BITMAP
0000
13f0
13e0
7ff0
13f0
39e0
35e0
55e0
53e0
13f0
13f0
11f0
ENDCHAR
STARTCHAR 02-15-42
ENCODING 12106
SWIDTH 960 0
DWIDTH 12 0
BBX 12 12 0 -2
BITMAP
0000
13e0
1220
7fe0
1220
37f0
3d50
57f0
53e0
1220
11c0
1670
ENDCHAR
STARTCHAR 02-15-43
ENCODING 12107
SWIDTH 960 0
DWIDTH 12 0
BBX 12 12 0 -2
BITMAP
0000
10c0
12e0
7df0
13f0
3be0
36e0
5780
53f0
13a0
13b0
1090
ENDCHAR
STARTCHAR 02-15-44
ENCODING 12108
SWIDTH 960 0
DWIDTH 12 0
BBX 12 12 0 -2
BITMAP
0000
1080
17f0
7d40
17f0
3550
3ff0
5540
55f0
1540
15d0
1a30
ENDCHAR
STARTCHAR 02-15-45
ENCODING 12109
SWIDTH 960 0
DWIDTH 12 0
BBX 12 12 0 -2
BITMAP
0000
10e0
10e0
7ff0
13f0
3be0
36e0
57f0
53f0
13f0
11f0
13f0
ENDCHAR
STARTCHAR 02-15-46
ENCODING 12110
SWIDTH 960 0
DWIDTH 12 0
BBX 12 12 0 -2
BITMAP
0000
1240
13f0
7fe0
13f0
3bf0
37f0
57e0
53f0
10d0
11f0
1130
ENDCHAR
STARTCHAR 02-15-47
ENCODING 12111
SWIDTH 960 0
DWIDTH 12 0
BBX 12 12 0 -2
BITMAP
0000
1070
13f0
7fc0
13c0
3be0
37a0
57e0
53e0
13f0
13f0
13f0
ENDCHAR
STARTCHAR 02-15-48
ENCODING 12112
SWIDTH 960 0
DWIDTH 12 0
BBX 12 12 0 -2
BITMAP
0000
13e0
1020
7ff0
1020
37f0
3a50
5370
5420
17f0
1220
1160
ENDCHAR
STARTCHAR 02-15-49
ENCODING 12113
SWIDTH 960 0
DWIDTH 12 0
BBX 12 12 0 -2
BITMAP
0000
1240
17e0
7cd0
1340
37f0
3840
57b0
54a0
17e0
14b0
1790
ENDCHAR
STARTCHAR 02-15-50
ENCODING 12114
SWIDTH 960 0
DWIDTH 12 0
BBX 12 12 0 -2
BITMAP
0000
1770
1550
7f70
1000
3be0
36a0
57e0
52a0
13e0
17f0
1080
ENDCHAR
STARTCHAR 02-15-51
ENCODING 12115
SWIDTH 960 0
DWIDTH 12 0
BBX 12 12 0 -2
BITMAP
0000
1fc0
3fe0
7ff0
7ff0
1540
3fe0
3fe0
3fe0
39e0
7ff0
5ad0
ENDCHAR
STARTCHAR 02-15-52
ENCODING 12116
SWIDTH 960 0
DWIDTH 12 0
BBX 12 12 0 -2
BITMAP
0000
1490
12a0
7ff0
12a0
3490
3ba0
56f0
57a0
11f0
1220
1420
ENDCHAR
STARTCHAR 02-15-53
ENCODING 12117
SWIDTH 960 0
DWIDTH 12 0
BBX 12 12 0 -2
BITMAP
0000
1770
1550
7f70
1550
3f70
35d0
5550
55d0
1550
15d0
1530
ENDCHAR
STARTCHAR 02-15-54
ENCODING 12118
SWIDTH 960 0
DWIDTH 12 0
BBX 12 12 0 -2
BITMAP
0000
1060
13a0
7ec0
17f0
39c0
36a0
57f0
52a0
13e0
12a0
13e0
ENDCHAR
STARTCHAR 02-15-55
ENCODING 12119
SWIDTH 960 0
DWIDTH 12 0
BBX 12 12 0 -2
BITMAP
0000
13e0
1080
7ff0
16b0
32a0
3880
57e0
5000
17f0
1120
17d0
ENDCHAR
STARTCHAR 02-15-56
ENCODING 12120
SWIDTH 960 0
DWIDTH 12 0
BBX 12 12 0 -2
BITMAP
0000
12c0
3cc0
0780
7ee0
7780
7ef0
1ef0
7ff0
0700
1ac0
6230
ENDCHAR
STARTCHAR 02-15-57
ENCODING 12121
SWIDTH 960 0
DWIDTH 12 0
BBX 12 12 0 -2
BITMAP
0000
1360
1270
7ff0
13f0
3880
36b0
57f0
52b0
13f0
12f0
13f0
ENDCHAR
STARTCHAR 02-15-58
ENCODING 12122
SWIDTH 960 0
DWIDTH 12 0
BBX 12 12 0 -2
BITMAP
0000
11e0
1120
7de0
13f0
3bd0
37f0
57f0
53f0
11e0
13f0
12d0
ENDCHAR
STARTCHAR 02-15-59
ENCODING 12123
SWIDTH 960 0
DWIDTH 12 0
BBX 12 12 0 -2
BITMAP
0000
33f0
7ff0
77f0
7bf0
7bf0
7ff0
63f0
7ff0
7ff0
7ef0
7270
ENDCHAR
STARTCHAR 02-15-60
ENCODING 12124
SWIDTH 960 0
DWIDTH 12 0
BBX 12 12 0 -2
BITMAP
0000
1240
13e0
7ff0
13f0
3be0
37f0
57f0
53e0
13e0
13e0
13e0
ENDCHAR
STARTCHAR 02-15-61
ENCODING 12125
SWIDTH 960 0
DWIDTH 12 0
BBX 12 12 0 -2
BITMAP
0000
13e0
13f0
7ff0
13f0
3be0
37f0
57f0
53f0
13f0
13e0
13f0
ENDCHAR
STARTCHAR 02-15-62
ENCODING 12126
SWIDTH 960 0
DWIDTH 12 0
BBX 12 12 0 -2
BITMAP
0000
13e0
1080
7ff0
16b0
32a0
3880
57e0
52a0
13e0
12a0
13e0
ENDCHAR
STARTCHAR 02-15-63
ENCODING 12127
SWIDTH 960 0
DWIDTH 12 0
BBX 12 12 0 -2
BITMAP
0000
13f0
13f0
7d50
13f0
3be0
37f0
57f0
53f0
13f0
13e0
1230
ENDCHAR
STARTCHAR 02-15-64
ENCODING 12128
SWIDTH 960 0
DWIDTH 12 0
BBX 12 12 0 -2
BITMAP
0000
13e0
13f0
7ff0
13e0
3bf0
37f0
5760
53f0
13f0
13e0
1080
ENDCHAR
STARTCHAR 02-15-65
ENCODING 12129
SWIDTH 960 0
DWIDTH 12 0
BBX 12 12 0 -2
BITMAP
0000
1080
12b0
7ff0
10a0
3be0
37e0
55f0
53e0
13e0
13e0
13f0
ENDCHAR
STARTCHAR 02-15-66
ENCODING 12130
SWIDTH 960 0
DWIDTH 12 0
BBX 12 12 0 -2
BITMAP
0000
1080
13f0
7df0
13f0
3be0
3760
57f0
53e0
13e0
13b0
1190
ENDCHAR
STARTCHAR 02-15-67
ENCODING 12131
SWIDTH 960 0
DWIDTH 12 0
BBX 12 12 0 -2
BITMAP
0000
13e0
13e0
7ff0
13f0
38d0
36e0
57f0
53f0
13f0
1150
1170
ENDCHAR
STARTCHAR 02-15-68
ENCODING 12132
SWIDTH 960 0
DWIDTH 12 0
BBX 12 12 0 -2
BITMAP
0000
1230
13f0
7eb0
13f0
3bb0
37b0
57f0
53f0
13f0
1310
11f0
ENDCHAR
STARTCHAR 02-15-69
ENCODING 12133
SWIDTH 960 0
DWIDTH 12 0
BBX 12 12 0 -2
BITMAP
0000
13f0
13f0
7ff0
13e0
3bf0
37f0
57f0
53f0
13f0
13f0
13b0
ENDCHAR
STARTCHAR 02-15-70
ENCODING 12134
SWIDTH 960 0
DWIDTH 12 0
BBX 12 12 0 -2
BITMAP
0000
1fc0
1fc0
1fc0
3fe0
7df0
7df0
7df0
3fe0
3fe0
3ee0
3260
ENDCHAR
STARTCHAR 02-15-71
ENCODING 12135
SWIDTH 960 0
DWIDTH 12 0
BBX 12 12 0 -2
BITMAP
0000
3fe0
3fe0
1fc0
7ff0
7fd0
7ed0
3fe0
1fc0
1fc0
7ff0
7270
ENDCHAR
STARTCHAR 02-15-72
ENCODING 12136
SWIDTH 960 0
DWIDTH 12 0
BBX 12 12 0 -2
BITMAP
0000
13f0
13f0
7ff0
13f0
3bf0
37f0
57f0
53f0
13f0
13e0
1330
ENDCHAR
STARTCHAR 02-15-73
ENCODING 12137
SWIDTH 960 0
DWIDTH 12 0
BBX 12 12 0 -2
BITMAP
0000
13f0
13f0
7dc0
13f0
3be0
37f0
57f0
53f0
13e0
12b0
1090
ENDCHAR
STARTCHAR 02-15-74
ENCODING 12138
SWIDTH 960 0
DWIDTH 12 0
BBX 12 12 0 -2
BITMAP
0000
11c0
11e0
7de0
13f0
39e0
35e0
55e0
51e0
11e0
13e0
13f0
ENDCHAR
STARTCHAR 02-15-75
ENCODING 12139
SWIDTH 960 0
DWIDTH 12 0
BBX 12 12 0 -2
BITMAP
0000
12e0
13f0
7ff0
13f0
3bb0
36f0
57b0
52e0
13e0
12f0
13b0
ENDCHAR
STARTCHAR 02-15-76
ENCODING 12140
SWIDTH 960 0
DWIDTH 12 0
BBX 12 12 0 -2
BITMAP
0000
14c0
7fe0
3de0
7de0
7ff0
7fe0
7cc0
3e80
7ff0
3ee0
3260
ENDCHAR
STARTCHAR 02-15-77
ENCODING 12141
SWIDTH 960 0
DWIDTH 12 0
BBX 12 12 0 -2
BITMAP
0000
12e0
13f0
7ff0
12f0
3bd0
37f0
55d0
51f0
11e0
11b0
11d0
ENDCHAR
STARTCHAR 02-15-78
ENCODING 12142
SWIDTH 960 0
DWIDTH 12 0
BBX 12 12 0 -2
BITMAP
0000
1120
17f0
7aa0
17f0
33b0
3aa0
57b0
52a0
13b0
12a0
1290
ENDCHAR
STARTCHAR 02-15-79
ENCODING 12143
SWIDTH 960 0
DWIDTH 12 0
BBX 12 12 0 -2
BITMAP
0000
7ff0
7fe0
73f0
7bf0
7ff0
7bf0
67f0
6ff0
0fe0
7ff0
7270
ENDCHAR
STARTCHAR 02-15-80
ENCODING 12144
SWIDTH 960 0
DWIDTH 12 0
BBX 12 12 0 -2
BITMAP
0000
1070
13f0
7af0
13f0
33d0
3bf0
5bd0
53f0
1370
1370
13f0
ENDCHAR
STARTCHAR 02-15-81
ENCODING 12145
SWIDTH 960 0
DWIDTH 12 0
BBX 12 12 0 -2
BITMAP
0000
13f0
13f0
7ff0
13f0
3bf0
37f0
57f0
53e0
13f0
1080
13f0
ENDCHAR
STARTCHAR 02-15-82
ENCODING 12146
SWIDTH 960 0
DWIDTH 12 0
BBX 12 12 0 -2
BITMAP
0000
17f0
1550
7ff0
12a0
34f0
3ea0
55f0
57a0
12f0
17a0
1af0
ENDCHAR
STARTCHAR 02-15-83
ENCODING 12147
SWIDTH 960 0
DWIDTH 12 0
BBX 12 12 0 -2
BITMAP
0000
17f0
12a0
7be0
17f0
3540
3ff0
5550
57f0
17e0
1690
1b70
ENDCHAR
STARTCHAR 02-15-84
ENCODING 12148
SWIDTH 960 0
DWIDTH 12 0
BBX 12 12 0 -2
BITMAP
0000
17f0
1770
7ff0
1370
37f0
3ff0
5ff0
53f0
13f0
13e0
1630
ENDCHAR
STARTCHAR 02-15-85
ENCODING 12149
SWIDTH 960 0
DWIDTH 12 0
BBX 12 12 0 -2
BITMAP
0000
17f0
17f0
7bd0
1790
37f0
3f50
5f70
57d0
17f0
17d0
17f0
ENDCHAR
STARTCHAR 02-15-86
ENCODING 12150
SWIDTH 960 0
DWIDTH 12 0
BBX 12 12 0 -2
BITMAP
0000
17f0
17f0
7ff0
17f0
37f0
3ff0
5ff0
57f0
17f0
17f0
16f0
ENDCHAR
STARTCHAR 02-15-87
ENCODING 12151
SWIDTH 960 0
DWIDTH 12 0
BBX 12 12 0 -2
BITMAP
0000
1900
1900
7df0
1910
1aa0
7c80
1080
34c0
3540
3d20
7e10
ENDCHAR
STARTCHAR 02-15-88
ENCODING 12152
SWIDTH 960 0
DWIDTH 12 0
BBX 12 12 0 -2
BITMAP
0000
1100
1100
7df0
1110
12a0
3c80
0080
7cc0
6540
6520
7e10
ENDCHAR
STARTCHAR 02-15-89
ENCODING 12153
SWIDTH 960 0
DWIDTH 12 0
BBX 12 12 0 -2
BITMAP
0000
1880
7c80
3cf0
3c90
3f60
3c40
7c40
7c60
7ca0
7c90
6710
ENDCHAR
STARTCHAR 02-15-90
ENCODING 12154
SWIDTH 960 0
DWIDTH 12 0
BBX 12 12 0 -2
BITMAP
0000
1880
7c80
7cf0
7c90
6760
6440
6440
7c60
6ca0
7c90
5b10
ENDCHAR
STARTCHAR 02-15-91
ENCODING 12155
SWIDTH 960 0
DWIDTH 12 0
BBX 12 12 0 -2
BITMAP
0000
1200
13e0
1300
7ff0
1fc0
1fc0
1240
7ff0
7ff0
3240
60c0
ENDCHAR
STARTCHAR 02-15-92
ENCODING 12156
SWIDTH 960 0
DWIDTH 12 0
BBX 12 12 0 -2
BITMAP
0000
13f0
13f0
73f0
73f0
7fe0
73f0
73f0
73f0
73f0
7fe0
7330
ENDCHAR
STARTCHAR 02-15-93
ENCODING 12157
SWIDTH 960 0
DWIDTH 12 0
BBX 12 12 0 -2
BITMAP
0000
0200
03e0
0300
0fc0
1c40
3cc0
06c0
0380
0300
0e00
1c00
ENDCHAR
STARTCHAR 02-15-94
ENCODING 12158
SWIDTH 960 0
DWIDTH 12 0
BBX 12 12 0 -2
BITMAP
0000
7dc0
13c0
1240
3e70
2600
27e0
5b30
0be0
11c0
21e0
4770
ENDCHAR
STARTCHAR 02-78-01
ENCODING 28193
SWIDTH 960 0
DWIDTH 12 0
BBX 12 12 0 -2
BITMAP
0000
7fe0
17e0
1980
3bc0
2ef0
2ef0
5ff0
17f0
1380
27f0
4ff0
ENDCHAR
STARTCHAR 02-78-02
ENCODING 28194
SWIDTH 960 0
DWIDTH 12 0
BBX 12 12 0 -2
BITMAP
0000
7980
13c0
1e70
3ff0
2bc0
2ff0
5df0
17e0
1220
2660
4ff0
ENDCHAR
STARTCHAR 02-78-03
ENCODING 28195
SWIDTH 960 0
DWIDTH 12 0
BBX 12 12 0 -2
BITMAP
0000
11c0
7de0
4520
7f30
4520
7ff0
41b0
4ce0
7cc0
4de0
7f30
ENDCHAR
STARTCHAR 02-78-04
ENCODING 28196
SWIDTH 960 0
DWIDTH 12 0
BBX 12 12 0 -2
BITMAP
0000
26c0
3ce0
6ea0
7fb0
3d20
3df0
7cb0
3ce0
3c40
24e0
2db0
ENDCHAR
STARTCHAR 02-78-05
ENCODING 28197
SWIDTH 960 0
DWIDTH 12 0
BBX 12 12 0 -2
BITMAP
0000
12c0
3ee0
1ca0
1db0
7f20
3df0
7cb0
64e0
3c40
24e0
3db0
ENDCHAR
STARTCHAR 02-78-06
ENCODING 28198
SWIDTH 960 0
DWIDTH 12 0
BBX 12 12 0 -2
BITMAP
0000
71c0
6de0
6d20
6f30
4700
7fe0
7db0
7de0
7cc0
7de0
5730
ENDCHAR
STARTCHAR 02-78-07
ENCODING 28199
SWIDTH 960 0
DWIDTH 12 0
BBX 12 12 0 -2
BITMAP
0000
31e0
6ff0
7f70
7ff0
7ff0
7ff0
7ff0
7ef0
7fe0
3a70
7bd0
ENDCHAR
STARTCHAR 02-78-08
ENCODING 28200
SWIDTH 960 0
DWIDTH 12 0
BBX 12 12 0 -2
BITMAP
0000
7fe0
7eb0
7fe0
7ee0
7ee0
3ea0
7ff0
1240
3ae0
2ea0
7ff0
ENDCHAR
STARTCHAR 02-78-09
ENCODING 28201
SWIDTH 960 0
DWIDTH 12 0
BBX 12 12 0 -2
BITMAP
0000
1f00
7fe0
3fe0
3fe0
1ff0
7ff0
7fe0
3fe0
3fe0
1d50
79f0
ENDCHAR
STARTCHAR 02-78-10
ENCODING 28202
SWIDTH 960 0
DWIDTH 12 0
BBX 12 12 0 -2
BITMAP
0000
7c70
7fe0
7880
78e0
6b80
7880
69f0
6f80
7880
6890
08f0
ENDCHAR
STARTCHAR 02-78-11
ENCODING 28203
SWIDTH 960 0
DWIDTH 12 0
BBX 12 12 0 -2
BITMAP
0000
1870
7050
23f0
3950
6150
23f0
3960
6330
2270
3690
1ff0
ENDCHAR
STARTCHAR 02-78-12
ENCODING 28204
SWIDTH 960 0
DWIDTH 12 0
BBX 12 12 0 -2
BITMAP
0000
2080
22a0
7ff0
2dd0
2700
3be0
71c0
27e0
27f0
2f90
60f0
ENDCHAR
STARTCHAR 02-78-13
ENCODING 28205
SWIDTH 960 0
DWIDTH 12 0
BBX 12 12 0 -2
BITMAP
0000
1a00
73e0
26f0
3bf0
61f0
23f0
39f0
63f0
2020
30f0
1ff0
ENDCHAR
STARTCHAR 02-78-14
ENCODING 28206
SWIDTH 960 0
DWIDTH 12 0
BBX 12 12 0 -2
BITMAP
0000
3c80
3df0
7fe0
7ff0
3fb0
7ff0
6780
6fc0
6fc0
7ff0
5ff0
ENDCHAR
STARTCHAR 02-78-15
ENCODING 28207
SWIDTH 960 0
DWIDTH 12 0
BBX 12 12 0 -2
BITMAP
0000
1ff0
77f0
23f0
3ff0
67f0
23e0
3be0
63e0
21e0
37f0
1ff0
ENDCHAR
STARTCHAR 02-78-16
ENCODING 28208
SWIDTH 960 0
DWIDTH 12 0
BBX 12 12 0 -2
BITMAP
0000
3e70
3e60
7f30
7ff0
7fa0
7fb0
7fe0
7fa0
3e20
2a30
7fb0
ENDCHAR
STARTCHAR 02-78-17
ENCODING 28209
SWIDTH 960 0
DWIDTH 12 0
BBX 12 12 0 -2
BITMAP
0000
0200
0100
0100
0800
0400
0200
0080
0100
0200
0400
0400
ENDCHAR
STARTCHAR 02-78-18
ENCODING 28210
SWIDTH 960 0
DWIDTH 12 0
BBX 12 12 0 -2
BITMAP
0000
3fc0
3fe0
0380
7e60
0ec0
1f80
1b80
32c0
7260
6230
0600
ENDCHAR
STARTCHAR 02-78-19
ENCODING 28211
SWIDTH 960 0
DWIDTH 12 0
BBX 12 12 0 -2
BITMAP
0000
0200
2220
3260
1ac0
0680
0f80
1fc0
7260
4230
0200
0e00
ENDCHAR
STARTCHAR 02-78-20
ENCODING 28212
SWIDTH 960 0
DWIDTH 12 0
BBX 12 12 0 -2
BITMAP
0000
2380
1080
1080
4080
2080
20c0
0140
1140
2220
4420
4810
ENDCHAR
STARTCHAR 02-78-21
ENCODING 28213
SWIDTH 960 0
DWIDTH 12 0
BBX 12 12 0 -2
BITMAP
0000
2100
1100
17c0
4140
2140
2140
0140
1240
2250
4450
4830
ENDCHAR
STARTCHAR 02-78-22
ENCODING 28214
SWIDTH 960 0
DWIDTH 12 0
BBX 12 12 0 -2
BITMAP
0000
2100
1100
17c0
4fc0
2140
2740
0340
13c0
26c0
4e50
4c70
ENDCHAR
STARTCHAR 02-78-23
ENCODING 28215
SWIDTH 960 0
DWIDTH 12 0
BBX 12 12 0 -2
BITMAP
0000
27c0
1fc0
1240
4240
2340
27c0
0240
1240
2260
4630
4c30
ENDCHAR
STARTCHAR 02-78-24
ENCODING 28216
SWIDTH 960 0
DWIDTH 12 0
BBX 12 12 0 -2
BITMAP
0000
2380
1080
17f0
4490
2490
24d0
0530
1630
2410
4410
4470
ENDCHAR
STARTCHAR 02-78-25
ENCODING 28217
SWIDTH 960 0
DWIDTH 12 0
BBX 12 12 0 -2
BITMAP
0000
23e0
1000
1000
4000
27f0
2100
0100
1140
2220
43d0
4410
ENDCHAR
STARTCHAR 02-78-26
ENCODING 28218
SWIDTH 960 0
DWIDTH 12 0
BBX 12 12 0 -2
BITMAP
0000
27f0
1ff0
1810
4bd0
2340
2240
0240
1240
2240
4650
4c70
ENDCHAR
STARTCHAR 02-78-27
ENCODING 28219
SWIDTH 960 0
DWIDTH 12 0
BBX 12 12 0 -2
BITMAP
0000
2100
17c0
1140
4350
2650
2eb0
0180
17e0
2080
4080
4080
ENDCHAR
STARTCHAR 02-78-28
ENCODING 28220
SWIDTH 960 0
DWIDTH 12 0
BBX 12 12 0 -2
BITMAP
0000
27f0
1ff0
1080
44e0
24b0
24b0
05b0
17f0
2030
4020
40e0
ENDCHAR
STARTCHAR 02-78-29
ENCODING 28221
SWIDTH 960 0
DWIDTH 12 0
BBX 12 12 0 -2
BITMAP
0000
2200
1200
13f0
4750
2550
2f50
03d0
16d0
2c90
41b0
4170
ENDCHAR
STARTCHAR 02-78-30
ENCODING 28222
SWIDTH 960 0
DWIDTH 12 0
BBX 12 12 0 -2
BITMAP
0000
3fe0
3fe0
7ff0
7ff0
1cc0
7af0
1ec0
0f80
0f80
7ef0
7e70
ENDCHAR
STARTCHAR 02-78-31
ENCODING 28223
SWIDTH 960 0
DWIDTH 12 0
BBX 12 12 0 -2
BITMAP
0000
20a0
10b0
1ff0
4080
22a0
22a0
02a0
16b0
24b0
4cb0
4080
ENDCHAR
STARTCHAR 02-78-32
ENCODING 28224
SWIDTH 960 0
DWIDTH 12 0
BBX 12 12 0 -2
BITMAP
0000
27e0
17f0
1430
47f0
2770
2670
0770
17f0
2430
4430
4470
ENDCHAR
STARTCHAR 02-78-33
ENCODING 28225
SWIDTH 960 0
DWIDTH 12 0
BBX 12 12 0 -2
BITMAP
0000
2640
1e40
1bf0
4ef0
2e50
2a50
0a50
1e50
2ad0
48f0
49f0
ENDCHAR
STARTCHAR 02-78-34
ENCODING 28226
SWIDTH 960 0
DWIDTH 12 0
BBX 12 12 0 -2
BITMAP
0000
2100
1100
1ff0
42c0
2640
2760
0d30
1320
2220
43f0
4fb0
ENDCHAR
STARTCHAR 02-78-35
ENCODING 28227
SWIDTH 960 0
DWIDTH 12 0
BBX 12 12 0 -2
BITMAP
0000
2100
1770
1550
4550
2550
2550
0550
1750
2f70
4140
4340
ENDCHAR
STARTCHAR 02-78-36
ENCODING 28228
SWIDTH 960 0
DWIDTH 12 0
BBX 12 12 0 -2
BITMAP
0000
22c0
12c0
1ed0
4ff0
2ec0
2ec0
0ec0
1ec0
2ec0
4fd0
4f70
ENDCHAR
STARTCHAR 02-78-37
ENCODING 28229
SWIDTH 960 0
DWIDTH 12 0
BBX 12 12 0 -2
BITMAP
0000
2070
17e0
14c0
44c0
27f0
24c0
04c0
1740
2f60
4fb0
47b0
ENDCHAR
STARTCHAR 02-78-38
ENCODING 28230
SWIDTH 960 0
DWIDTH 12 0
BBX 12 12 0 -2
BITMAP
0000
2280
1280
13f0
4480
2880
2080
03e0
1080
2080
4080
47f0
ENDCHAR
STARTCHAR 02-78-39
ENCODING 28231
SWIDTH 960 0
DWIDTH 12 0
BBX 12 12 0 -2
BITMAP
0000
2080
1080
1ff0
4810
2bd0
2040
0240
1240
2260
4620
4c30
ENDCHAR
STARTCHAR 02-78-40
ENCODING 28232
SWIDTH 960 0
DWIDTH 12 0
BBX 12 12 0 -2
BITMAP
0000
2220
1220
17f0
47f0
2c20
2da0
05a0
1420
2420
4420
44e0
ENDCHAR
STARTCHAR 02-78-41
ENCODING 28233
SWIDTH 960 0
DWIDTH 12 0
BBX 12 12 0 -2
BITMAP
0000
27c0
17e0
1120
4360
26c0
2ff0
0550
1550
2550
4dd0
4ff0
ENDCHAR
STARTCHAR 02-78-42
ENCODING 28234
SWIDTH 960 0
DWIDTH 12 0
BBX 12 12 0 -2
BITMAP
0000
2080
13e0
13b0
43b0
22f0
2ff0
07b0
12b0
22b0
46b0
4c70
ENDCHAR
STARTCHAR 02-78-43
ENCODING 28235
SWIDTH 960 0
DWIDTH 12 0
BBX 12 12 0 -2
BITMAP
0000
2100
1100
1ff0
4200
23f0
2660
0e40
13f0
2240
4240
42c0
ENDCHAR
STARTCHAR 02-78-44
ENCODING 28236
SWIDTH 960 0
DWIDTH 12 0
BBX 12 12 0 -2
BITMAP
0000
2380
1140
1220
4410
23e0
2080
0080
13e0
2080
4080
47f0
ENDCHAR
STARTCHAR 02-78-45
ENCODING 28237
SWIDTH 960 0
DWIDTH 12 0
BBX 12 12 0 -2
BITMAP
0000
27f0
1ff0
1180
47e0
2430
2430
0430
17f0
2430
4430
47f0
ENDCHAR
STARTCHAR 02-78-46
ENCODING 28238
SWIDTH 960 0
DWIDTH 12 0
BBX 12 12 0 -2
BITMAP
0000
2100
1ff0
1300
43e0
2630
2ff0
0230
13f0
23f0
4230
4270
ENDCHAR
STARTCHAR 02-78-47
ENCODING 28239
SWIDTH 960 0
DWIDTH 12 0
BBX 12 12 0 -2
BITMAP
0000
2770
1f70
1220
4220
2760
2ef0
0220
1220
2620
4c20
4c20
ENDCHAR
STARTCHAR 02-78-48
ENCODING 28240
SWIDTH 960 0
DWIDTH 12 0
BBX 12 12 0 -2
BITMAP
0000
1de0
7df0
3ef0
3eb0
79b0
0b60
0630
3fe0
1fc0
7af0
6e30
ENDCHAR
STARTCHAR 02-78-49
ENCODING 28241
SWIDTH 960 0
DWIDTH 12 0
BBX 12 12 0 -2
BITMAP
0000
2080
13e0
1080
4080
27f0
2080
0080
13e0
2080
4080
47f0
ENDCHAR
STARTCHAR 02-78-50
ENCODING 28242
SWIDTH 960 0
DWIDTH 12 0
BBX 12 12 0 -2
BITMAP
0000
2180
13c0
17f0
4fb0
23e0
2060
00c0
17e0
27e0
4420
47e0
ENDCHAR
STARTCHAR 02-78-51
ENCODING 28243
SWIDTH 960 0
DWIDTH 12 0
BBX 12 12 0 -2
BITMAP
0000
27e0
17f0
1430
4430
27f0
2080
0280
12e0
2680
4f80
4df0
ENDCHAR
STARTCHAR 02-78-52
ENCODING 28244
SWIDTH 960 0
DWIDTH 12 0
BBX 12 12 0 -2
BITMAP
0000
2760
13e0
1760
4f20
2ff0
2280
07f0
1cb0
24b0
44b0
44a0
ENDCHAR
STARTCHAR 02-78-53
ENCODING 28245
SWIDTH 960 0
DWIDTH 12 0
BBX 12 12 0 -2
BITMAP
0000
2330
1ff0
16f0
4ff0
26f0
26f0
07f0
1ff0
2e30
4230
4270
ENDCHAR
STARTCHAR 02-78-54
ENCODING 28246
SWIDTH 960 0
DWIDTH 12 0
BBX 12 12 0 -2
BITMAP
0000
27e0
1420
17e0
4420
27e0
2420
07e0
16a0
2290
4490
4870
ENDCHAR
STARTCHAR 02-78-55
ENCODING 28247
SWIDTH 960 0
DWIDTH 12 0
BBX 12 12 0 -2
BITMAP
0000
2230
1260
1fc0
42a0
2730
2fe0
0fc0
1a10
2230
4260
43c0
ENDCHAR
STARTCHAR 02-78-56
ENCODING 28248
SWIDTH 960 0
DWIDTH 12 0
BBX 12 12 0 -2
BITMAP
0000
27e0
17f0
17b0
4fb0
2320
2260
0080
12c0
2630
4f30
4de0
ENDCHAR
STARTCHAR 02-78-57
ENCODING 28249
SWIDTH 960 0
DWIDTH 12 0
BBX 12 12 0 -2
BITMAP
0000
2130
17f0
1160
4ff0
27e0
27e0
06c0
1ff0
27f0
4080
4380
ENDCHAR
STARTCHAR 02-78-58
ENCODING 28250
SWIDTH 960 0
DWIDTH 12 0
BBX 12 12 0 -2
BITMAP
0000
2080
1ff0
1080
47e0
25b0
24b0
07f0
13c0
23e0
4eb0
4490
ENDCHAR
STARTCHAR 02-78-59
ENCODING 28251
SWIDTH 960 0
DWIDTH 12 0
BBX 12 12 0 -2
BITMAP
0000
2200
1220
17f0
4f90
2600
2fe0
0580
1ff0
23c0
4660
4c30
ENDCHAR
STARTCHAR 02-78-60
ENCODING 28252
SWIDTH 960 0
DWIDTH 12 0
BBX 12 12 0 -2
BITMAP
0000
23c0
13e0
13e0
43e0
23e0
2000
07f0
1080
2080
4ff0
47f0
ENDCHAR
STARTCHAR 02-78-61
ENCODING 28253
SWIDTH 960 0
DWIDTH 12 0
BBX 12 12 0 -2
BITMAP
0000
2100
1320
13f0
47f0
2360
26b0
0380
12d0
23b0
40e0
43c0
ENDCHAR
STARTCHAR 02-78-62
ENCODING 28254
SWIDTH 960 0
DWIDTH 12 0
BBX 12 12 0 -2
BITMAP
0000
2770
1f70
1550
4b30
2dd0
27e0
0760
1360
21c0
43e0
4e70
ENDCHAR
STARTCHAR 02-78-63
ENCODING 28255
SWIDTH 960 0
DWIDTH 12 0
BBX 12 12 0 -2
BITMAP
0000
21e0
1fc0
1300
4ff0
26e0
2ff0
0d20
1fe0
27c0
4df0
4730
ENDCHAR
STARTCHAR 02-78-64
ENCODING 28256
SWIDTH 960 0
DWIDTH 12 0
BBX 12 12 0 -2
BITMAP
0000
2300
1ff0
16d0
4fd0
26d0
27d0
07d0
1ed0
2ef0
4200
4200
ENDCHAR
STARTCHAR 02-78-65
ENCODING 28257
SWIDTH 960 0
DWIDTH 12 0
BBX 12 12 0 -2
BITMAP
0000
2080
1ff0
1810
4bf0
2220
23e0
0200
13e0
23f0
4230
43f0
ENDCHAR
STARTCHAR 02-78-66
ENCODING 28258
SWIDTH 960 0
DWIDTH 12 0
BBX 12 12 0 -2
BITMAP
0000
2790
1ff0
1ff0
4fb0
2930
2ff0
0ff0
1fd0
2fd0
4b90
4130
ENDCHAR
STARTCHAR 02-78-67
ENCODING 28259
SWIDTH 960 0
DWIDTH 12 0
BBX 12 12 0 -2
BITMAP
0000
2080
17e0
1430
4600
23f0
27f0
07f0
1ff0
22e0
46d0
4c70
ENDCHAR
STARTCHAR 02-78-68
ENCODING 28260
SWIDTH 960 0
DWIDTH 12 0
BBX 12 12 0 -2
BITMAP
0000
23c0
13e0
13e0
4220
23e0
27e0
07e0
1ff0
2240
4240
40c0
ENDCHAR
STARTCHAR 02-78-69
ENCODING 28261
SWIDTH 960 0
DWIDTH 12 0
BBX 12 12 0 -2
BITMAP
0000
2260
1260
1ff0
4240
2240
2ff0
0640
1240
2640
4c40
4c40
ENDCHAR
STARTCHAR 02-78-70
ENCODING 28262
SWIDTH 960 0
DWIDTH 12 0
BBX 12 12 0 -2
BITMAP
0000
27e0
17f0
17f0
47e0
24c0
26f0
07f0
14c0
26f0
4ef0
4bf0
ENDCHAR
STARTCHAR 02-78-71
ENCODING 28263
SWIDTH 960 0
DWIDTH 12 0
BBX 12 12 0 -2
BITMAP
0000
2080
1ff0
17e0
47e0
2ff0
22e0
0fb0
13e0
2ff0
4080
4080
ENDCHAR
STARTCHAR 02-78-72
ENCODING 28264
SWIDTH 960 0
DWIDTH 12 0
BBX 12 12 0 -2
BITMAP
0000
23c0
13e0
13e0
4220
23e0
27e0
0180
1ff0
27f0
43e0
4e70
ENDCHAR
STARTCHAR 02-78-73
ENCODING 28265
SWIDTH 960 0
DWIDTH 12 0
BBX 12 12 0 -2
BITMAP
0000
23e0
13f0
13f0
43f0
2230
23e0
07f0
1410
27f0
4410
47f0
ENDCHAR
STARTCHAR 02-78-74
ENCODING 28266
SWIDTH 960 0
DWIDTH 12 0
BBX 12 12 0 -2
BITMAP
0000
22c0
12c0
1ff0
4af0
2ff0
2ff0
0af0
1ff0
2ff0
4660
4c70
ENDCHAR
STARTCHAR 02-78-75
ENCODING 28267
SWIDTH 960 0
DWIDTH 12 0
BBX 12 12 0 -2
BITMAP
0000
2080
17e0
17f0
4ff0
2640
2770
01e0
1360
27c0
41e0
4f70
ENDCHAR
STARTCHAR 02-78-76
ENCODING 28268
SWIDTH 960 0
DWIDTH 12 0
BBX 12 12 0 -2
BITMAP
0000
2080
1ff0
10a0
42a0
26a0
27f0
0df0
13c0
23e0
4eb0
4490
ENDCHAR
STARTCHAR 02-78-77
ENCODING 28269
SWIDTH 960 0
DWIDTH 12 0
BBX 12 12 0 -2
BITMAP
0000
2240
1ff0
1340
42c0
27f0
24b0
05b0
1ff0
23c0
4660
4c30
ENDCHAR
STARTCHAR 02-78-78
ENCODING 28270
SWIDTH 960 0
DWIDTH 12 0
BBX 12 12 0 -2
BITMAP
0000
2260
1260
1ff0
4180
27f0
2430
07f0
1430
27f0
4430
47f0
ENDCHAR
STARTCHAR 02-78-79
ENCODING 28271
SWIDTH 960 0
DWIDTH 12 0
BBX 12 12 0 -2
BITMAP
0000
27c0
1fe0
1be0
4fa0
2fe0
2fe0
0fe0
1920
29e0
4bf0
4b30
ENDCHAR
STARTCHAR 02-78-80
ENCODING 28272
SWIDTH 960 0
DWIDTH 12 0
BBX 12 12 0 -2
BITMAP
0000
2080
1ff0
1660
4260
2ff0
2890
07f0
14b0
24b0
44a0
4080
ENDCHAR
STARTCHAR 02-78-81
ENCODING 28273
SWIDTH 960 0
DWIDTH 12 0
BBX 12 12 0 -2
BITMAP
0000
2080
1ff0
1b30
4b20
2ff0
2ac0
0af0
1bf0
29e0
4980
4b00
ENDCHAR
STARTCHAR 02-78-82
ENCODING 28274
SWIDTH 960 0
DWIDTH 12 0
BBX 12 12 0 -2
BITMAP
0000
2080
1ff0
1ff0
4bf0
23e0
2220
03e0
1220
23e0
4ff0
47f0
ENDCHAR
STARTCHAR 02-78-83
ENCODING 28275
SWIDTH 960 0
DWIDTH 12 0
BBX 12 12 0 -2
BITMAP
0000
2260
17e0
1080
47e0
2180
2ff0
0180
1ff0
27f0
43e0
4e70
ENDCHAR
STARTCHAR 02-78-84
ENCODING 28276
SWIDTH 960 0
DWIDTH 12 0
BBX 12 12 0 -2
BITMAP
0000
2220
1ff0
17e0
43e0
2260
23e0
0ff0
13e0
26e0
4eb0
4490
ENDCHAR
STARTCHAR 02-78-85
ENCODING 28277
SWIDTH 960 0
DWIDTH 12 0
BBX 12 12 0 -2
BITMAP
0000
2270
12e0
1e40
4f40
2ff0
2a40
0240
12f0
22b0
42b0
42f0
ENDCHAR
STARTCHAR 02-78-86
ENCODING 28278
SWIDTH 960 0
DWIDTH 12 0
BBX 12 12 0 -2
BITMAP
0000
27c0
17e0
17f0
4ff0
27e0
27e0
07e0
1fe0
24c0
47f0
40c0
ENDCHAR
STARTCHAR 02-78-87
ENCODING 28279
SWIDTH 960 0
DWIDTH 12 0
BBX 12 12 0 -2
BITMAP
0000
2180
13c0
17f0
4fb0
23e0
23e0
03e0
13f0
22f0
43e0
4f70
ENDCHAR
STARTCHAR 02-78-88
ENCODING 28280
SWIDTH 960 0
DWIDTH 12 0
BBX 12 12 0 -2
BITMAP
0000
27f0
1ff0
17f0
4430
27f0
2430
07f0
1430
27f0
4620
4c30
ENDCHAR
STARTCHAR 02-78-89
ENCODING 28281
SWIDTH 960 0
DWIDTH 12 0
BBX 12 12 0 -2
BITMAP
0000
2ff0
1ff0
15f0
4f00
2ff0
27e0
07e0
17e0
27e0
4420
44e0
ENDCHAR
STARTCHAR 02-78-90
ENCODING 28282
SWIDTH 960 0
DWIDTH 12 0
BBX 12 12 0 -2
BITMAP
0000
21c0
1660
1ff0
43e0
2320
26e0
06e0
17f0
26f0
4ff0
47f0
ENDCHAR
STARTCHAR 02-78-91
ENCODING 28283
SWIDTH 960 0
DWIDTH 12 0
BBX 12 12 0 -2
BITMAP
0000
2260
1260
1ff0
4720
25f0
27f0
07f0
17f0
2730
4530
4770
ENDCHAR
STARTCHAR 02-78-92
ENCODING 28284
SWIDTH 960 0
DWIDTH 12 0
BBX 12 12 0 -2
BITMAP
0000
2230
1f30
1670
4ff0
2230
22f0
0f70
1230
2230
4f30
4c70
ENDCHAR
STARTCHAR 02-78-93
ENCODING 28285
SWIDTH 960 0
DWIDTH 12 0
BBX 12 12 0 -2
BITMAP
0000
27f0
1430
17f0
44c0
27f0
2450
0630
1ff0
27f0
47f0
47f0
ENDCHAR
STARTCHAR 02-78-94
ENCODING 28286
SWIDTH 960 0
DWIDTH 12 0
BBX 12 12 0 -2
BITMAP
0000
20f0
17e0
1500
47b0
26a0
25e0
0530
15f0
25f0
4530
45f0
ENDCHAR
STARTCHAR 02-79-01
ENCODING 28449
SWIDTH 960 0
DWIDTH 12 0
BBX 12 12 0 -2
BITMAP
0000
2160
1ff0
17e0
47f0
23f0
2ff0
03f0
17e0
26e0
4ef0
4ad0
ENDCHAR
STARTCHAR 02-79-02
ENCODING 28450
SWIDTH 960 0
DWIDTH 12 0
BBX 12 12 0 -2
BITMAP
0000
27f0
1ff0
17e0
47f0
27f0
27e0
0ff0
13e0
26e0
4eb0
4490
ENDCHAR
STARTCHAR 02-79-03
ENCODING 28451
SWIDTH 960 0
DWIDTH 12 0
BBX 12 12 0 -2
BITMAP
0000
2100
17e0
17e0
47e0
27e0
27e0
0140
1ff0
27f0
46e0
4c70
ENDCHAR
STARTCHAR 02-79-04
ENCODING 28452
SWIDTH 960 0
DWIDTH 12 0
BBX 12 12 0 -2
BITMAP
0000
2e40
1ff0
1fd0
4fe0
2f40
2e40
0ff0
1e40
2e40
4040
4040
ENDCHAR
STARTCHAR 02-79-05
ENCODING 28453
SWIDTH 960 0
DWIDTH 12 0
BBX 12 12 0 -2
BITMAP
0000
21c0
1660
1d30
43e0
27b0
2fe0
0770
1770
2330
4770
4730
ENDCHAR
STARTCHAR 02-79-06
ENCODING 28454
SWIDTH 960 0
DWIDTH 12 0
BBX 12 12 0 -2
BITMAP
0000
2400
1fe0
1fc0
4bc0
2fe0
2aa0
0fe0
1fe0
27b0
4ff0
4a50
ENDCHAR
STARTCHAR 02-79-07
ENCODING 28455
SWIDTH 960 0
DWIDTH 12 0
BBX 12 12 0 -2
BITMAP
0000
27f0
1ff0
1960
4be0
2fe0
2be0
0be0
1ac0
2bf0
4ff0
47f0
ENDCHAR
STARTCHAR 02-79-08
ENCODING 28456
SWIDTH 960 0
DWIDTH 12 0
BBX 12 12 0 -2
BITMAP
0000
2240
1640
1ff0
4ff0
2ff0
2ff0
0f20
1f60
2f70
4bf0
46f0
ENDCHAR
STARTCHAR 02-79-09
ENCODING 28457
SWIDTH 960 0
DWIDTH 12 0
BBX 12 12 0 -2
BITMAP
0000
2280
17f0
17b0
4ee0
2ff0
2ff0
0ff0
1ff0
2ff0
4930
4930
ENDCHAR
STARTCHAR 02-79-10
ENCODING 28458
SWIDTH 960 0
DWIDTH 12 0
BBX 12 12 0 -2
BITMAP
0000
20e0
10e0
17f0
47f0
25f0
24f0
07e0
17e0
2ff0
48c0
49c0
ENDCHAR
STARTCHAR 02-79-11
ENCODING 28459
SWIDTH 960 0
DWIDTH 12 0
BBX 12 12 0 -2
BITMAP
0000
2080
1ff0
13c0
43c0
2ff0
2a80
0bf0
1ec0
2bf0
48c0
43f0
ENDCHAR
STARTCHAR 02-79-12
ENCODING 28460
SWIDTH 960 0
DWIDTH 12 0
BBX 12 12 0 -2
BITMAP
0000
27e0
17f0
1ff0
47f0
27e0
27f0
07f0
1ff0
27f0
43c0
47f0
ENDCHAR
STARTCHAR 02-79-13
ENCODING 28461
SWIDTH 960 0
DWIDTH 12 0
BBX 12 12 0 -2
BITMAP
0000
2240
1ff0
13c0
43c0
27f0
24b0
07f0
17e0
27e0
47e0
4ff0
ENDCHAR
STARTCHAR 02-79-14
ENCODING 28462
SWIDTH 960 0
DWIDTH 12 0
BBX 12 12 0 -2
BITMAP
0000
27f0
17e0
17f0
47f0
2560
27b0
07f0
17f0
2ff0
4bf0
4a30
ENDCHAR
STARTCHAR 02-79-15
ENCODING 28463
SWIDTH 960 0
DWIDTH 12 0
BBX 12 12 0 -2
BITMAP
0000
2080
17e0
15f0
4ff0
2000
27e0
07e0
1ff0
2080
47e0
4ff0
ENDCHAR
STARTCHAR 02-79-16
ENCODING 28464
SWIDTH 960 0
DWIDTH 12 0
BBX 12 12 0 -2
BITMAP
0000
27e0
17f0
17f0
47e0
27f0
24b0
07f0
1180
2fb0
4ef0
4bd0
ENDCHAR
STARTCHAR 02-79-17
ENCODING 28465
SWIDTH 960 0
DWIDTH 12 0
BBX 12 12 0 -2
BITMAP
0000
2480
14b0
17f0
4280
27f0
2c80
0ff0
1480
27f0
4480
47f0
ENDCHAR
STARTCHAR 02-79-18
ENCODING 28466
SWIDTH 960 0
DWIDTH 12 0
BBX 12 12 0 -2
BITMAP
0000
2080
1ff0
1260
4ff0
27e0
27f0
07f0
17f0
27f0
47f0
4c70
ENDCHAR
STARTCHAR 02-79-19
ENCODING 28467
SWIDTH 960 0
DWIDTH 12 0
BBX 12 12 0 -2
BITMAP
0000
23c0
17e0
17e0
4ff0
25b0
27e0
0330
17a0
27c0
4ff0
45d0
ENDCHAR
STARTCHAR 02-79-20
ENCODING 28468
SWIDTH 960 0
DWIDTH 12 0
BBX 12 12 0 -2
BITMAP
0000
2240
17e0
1fe0
47e0
27e0
27e0
07e0
1ff0
23e0
4eb0
4490
ENDCHAR
STARTCHAR 02-79-21
ENCODING 28469
SWIDTH 960 0
DWIDTH 12 0
BBX 12 12 0 -2
BITMAP
0000
27e0
17f0
1ff0
47f0
27c0
27f0
07f0
17f0
27f0
4ff0
48f0
ENDCHAR
STARTCHAR 02-79-22
ENCODING 28470
SWIDTH 960 0
DWIDTH 12 0
BBX 12 12 0 -2
BITMAP
0000
2770
1ff0
1ff0
49d0
2770
2240
07f0
1240
2ff0
4260
4e70
ENDCHAR
STARTCHAR 02-79-23
ENCODING 28471
SWIDTH 960 0
DWIDTH 12 0
BBX 12 12 0 -2
BITMAP
0000
2180
1fe0
1bf0
4ff0
27c0
27b0
07e0
1fc0
2360
4f30
4d10
ENDCHAR
STARTCHAR 02-79-24
ENCODING 28472
SWIDTH 960 0
DWIDTH 12 0
BBX 12 12 0 -2
BITMAP
0000
2220
1ff0
1660
4770
2ff0
2aa0
0200
17e0
27e0
4420
47e0
ENDCHAR
STARTCHAR 02-79-25
ENCODING 28473
SWIDTH 960 0
DWIDTH 12 0
BBX 12 12 0 -2
BITMAP
0000
2240
12c0
1ff0
4ae0
2ef0
2ff0
07e0
17e0
27e0
4420
47e0
ENDCHAR
STARTCHAR 02-79-26
ENCODING 28474
SWIDTH 960 0
DWIDTH 12 0
BBX 12 12 0 -2
BITMAP
0000
27e0
17e0
1ff0
4ff0
2ad0
22e0
07f0
1ff0
27f0
42e0
47f0
ENDCHAR
STARTCHAR 02-79-27
ENCODING 28475
SWIDTH 960 0
DWIDTH 12 0
BBX 12 12 0 -2
BITMAP
0000
2770
1ff0
1ff0
4ff0
2c10
2ff0
09d0
19d0
2bd0
4eb0
4830
ENDCHAR
STARTCHAR 02-79-28
ENCODING 28476
SWIDTH 960 0
DWIDTH 12 0
BBX 12 12 0 -2
BITMAP
0000
20c0
1fe0
17f0
4bf0
2de0
27e0
0ff0
17f0
27f0
4c80
4bf0
ENDCHAR
STARTCHAR 02-79-29
ENCODING 28477
SWIDTH 960 0
DWIDTH 12 0
BBX 12 12 0 -2
BITMAP
0000
27f0
1ff0
13e0
43e0
23e0
23a0
03e0
17e0
27e0
4ff0
4ef0
ENDCHAR
STARTCHAR 02-79-30
ENCODING 28478
SWIDTH 960 0
DWIDTH 12 0
BBX 12 12 0 -2
BITMAP
0000
27f0
1ff0
1f50
4ff0
2f20
2fa0
0ff0
1fa0
29f0
4920
4b20
ENDCHAR
STARTCHAR 02-79-31
ENCODING 28479
SWIDTH 960 0
DWIDTH 12 0
BBX 12 12 0 -2
BITMAP
0000
2360
1370
17e0
4fe0
27b0
2ea0
0be0
1ff0
23e0
4eb0
4490
ENDCHAR
STARTCHAR 02-79-32
ENCODING 28480
SWIDTH 960 0
DWIDTH 12 0
BBX 12 12 0 -2
BITMAP
0000
2ff0
1570
1bf0
4ff0
25c0
27e0
06a0
1ff0
21c0
43e0
4e70
ENDCHAR
STARTCHAR 02-79-33
ENCODING 28481
SWIDTH 960 0
DWIDTH 12 0
BBX 12 12 0 -2
BITMAP
0000
2270
1fe0
1dc0
4ff0
2ff0
22f0
0ff0
16f0
2ff0
4ab0
4230
ENDCHAR
STARTCHAR 02-79-34
ENCODING 28482
SWIDTH 960 0
DWIDTH 12 0
BBX 12 12 0 -2
BITMAP
0000
2ce0
1ef0
1ef0
4ff0
2ff0
2ef0
0ee0
1ee0
2ee0
4af0
43b0
ENDCHAR
STARTCHAR 02-79-35
ENCODING 28483
SWIDTH 960 0
DWIDTH 12 0
BBX 12 12 0 -2
BITMAP
0000
26f0
1fa0
1bf0
4fa0
2fe0
2bf0
0fa0
1bf0
2bf0
4fa0
46f0
ENDCHAR
STARTCHAR 02-79-36
ENCODING 28484
SWIDTH 960 0
DWIDTH 12 0
BBX 12 12 0 -2
BITMAP
0000
2730
1ff0
1770
4910
27f0
2480
0ff0
13c0
23e0
4eb0
4490
ENDCHAR
STARTCHAR 02-79-37
ENCODING 28485
SWIDTH 960 0
DWIDTH 12 0
BBX 12 12 0 -2
BITMAP
0000
23c0
13e0
13e0
43e0
27e0
27f0
07f0
17f0
27e0
4ff0
4420
ENDCHAR
STARTCHAR 02-79-38
ENCODING 28486
SWIDTH 960 0
DWIDTH 12 0
BBX 12 12 0 -2
BITMAP
0000
27f0
1ff0
17f0
4ff0
2ff0
27e0
07e0
17f0
2ff0
43e0
4ff0
ENDCHAR
STARTCHAR 02-79-39
ENCODING 28487
SWIDTH 960 0
DWIDTH 12 0
BBX 12 12 0 -2
BITMAP
0000
2710
1f30
1f60
4f50
2f30
2fe0
0fc0
1f10
2730
4fe0
46c0
ENDCHAR
STARTCHAR 02-79-40
ENCODING 28488
SWIDTH 960 0
DWIDTH 12 0
BBX 12 12 0 -2
BITMAP
0000
25b0
1de0
1ff0
45f0
2de0
2ff0
07b0
1ff0
23e0
4eb0
4490
ENDCHAR
STARTCHAR 02-79-41
ENCODING 28489
SWIDTH 960 0
DWIDTH 12 0
BBX 12 12 0 -2
BITMAP
0000
2ff0
13e0
13e0
43e0
2ff0
2e90
07f0
1be0
23e0
4fe0
4ff0
ENDCHAR
STARTCHAR 02-79-42
ENCODING 28490
SWIDTH 960 0
DWIDTH 12 0
BBX 12 12 0 -2
BITMAP
0000
27f0
1ff0
1ff0
49c0
2dc0
2ff0
0ff0
1ff0
2ff0
4be0
4630
ENDCHAR
STARTCHAR 02-79-43
ENCODING 28491
SWIDTH 960 0
DWIDTH 12 0
BBX 12 12 0 -2
BITMAP
0000
2ec0
1fe0
1fb0
4fe0
2ff0
2ee0
07f0
1fe0
2fe0
4ff0
4ff0
ENDCHAR
STARTCHAR 02-79-44
ENCODING 28492
SWIDTH 960 0
DWIDTH 12 0
BBX 12 12 0 -2
BITMAP
0000
2360
1370
17e0
4fe0
27b0
2780
07f0
17e0
27e0
47e0
4ff0
ENDCHAR
STARTCHAR 02-79-45
ENCODING 28493
SWIDTH 960 0
DWIDTH 12 0
BBX 12 12 0 -2
BITMAP
0000
2ef0
1ef0
1ef0
4e70
2e70
2ad0
0ff0
1af0
2bf0
4ef0
4cf0
ENDCHAR
STARTCHAR 02-79-46
ENCODING 28494
SWIDTH 960 0
DWIDTH 12 0
BBX 12 12 0 -2
BITMAP
0000
2180
13e0
1ff0
43c0
2ff0
2ff0
07b0
17f0
27f0
46f0
46f0
ENDCHAR
STARTCHAR 02-79-47
ENCODING 28495
SWIDTH 960 0
DWIDTH 12 0
BBX 12 12 0 -2
BITMAP
0000
21c0
1fe0
17f0
47e0
23f0
2ff0
07f0
1ff0
27f0
42f0
4670
ENDCHAR
STARTCHAR 02-79-48
ENCODING 28496
SWIDTH 960 0
DWIDTH 12 0
BBX 12 12 0 -2
BITMAP
0000
27f0
1ff0
17f0
47f0
27e0
27e0
07f0
1ff0
27f0
47e0
4730
ENDCHAR
STARTCHAR 02-79-49
ENCODING 28497
SWIDTH 960 0
DWIDTH 12 0
BBX 12 12 0 -2
BITMAP
0000
2550
1d70
1ff0
4ff0
2ff0
2ff0
0ff0
1fe0
2fe0
4fe0
4ff0
ENDCHAR
STARTCHAR 02-79-50
ENCODING 28498
SWIDTH 960 0
DWIDTH 12 0
BBX 12 12 0 -2
BITMAP
0000
2ef0
1ff0
1fe0
4fe0
27e0
2ff0
0ff0
1ff0
2ee0
4e60
4fb0
ENDCHAR
STARTCHAR 02-79-51
ENCODING 28499
SWIDTH 960 0
DWIDTH 12 0
BBX 12 12 0 -2
BITMAP
0000
27f0
1ff0
1ff0
4ff0
2ff0
2ff0
0ff0
1ff0
2fe0
4fe0
43f0
ENDCHAR
STARTCHAR 02-79-52
ENCODING 28500
SWIDTH 960 0
DWIDTH 12 0
BBX 12 12 0 -2
BITMAP
0000
2ff0
1ff0
1ff0
4ff0
2ff0
2750
0770
1fd0
2ff0
4fd0
47f0
ENDCHAR
STARTCHAR 02-79-53
ENCODING 28501
SWIDTH 960 0
DWIDTH 12 0
BBX 12 12 0 -2
BITMAP
0000
2f30
1ff0
1ff0
4ff0
2ff0
2ff0
0ff0
19c0
2fc0
47d0
4ff0
ENDCHAR
STARTCHAR 02-79-54
ENCODING 28502
SWIDTH 960 0
DWIDTH 12 0
BBX 12 12 0 -2
BITMAP
0000
0f80
1fc0
0fe0
3f60
7ee0
76f0
7df0
7df0
3ff0
7fe0
7ff0
ENDCHAR
STARTCHAR 02-79-55
ENCODING 28503
SWIDTH 960 0
DWIDTH 12 0
BBX 12 12 0 -2
BITMAP
0000
2f40
1ff0
1f40
4ff0
2fc0
2ff0
0ff0
1ff0
2ff0
4ff0
4ff0
ENDCHAR
STARTCHAR 02-79-56
ENCODING 28504
SWIDTH 960 0
DWIDTH 12 0
BBX 12 12 0 -2
BITMAP
0000
0000
0000
0000
0000
2a40
2520
2490
4490
0000
0000
0000
ENDCHAR
STARTCHAR 02-79-57
ENCODING 28505
SWIDTH 960 0
DWIDTH 12 0
BBX 12 12 0 -2
BITMAP
0000
0220
1220
1640
2580
0880
7070
0900
0900
0910
1110
60f0
ENDCHAR
STARTCHAR 02-79-58
ENCODING 28506
SWIDTH 960 0
DWIDTH 12 0
BBX 12 12 0 -2
BITMAP
0000
1080
1080
1480
57f0
5880
5080
1080
1880
2880
2880
47f0
ENDCHAR
STARTCHAR 02-79-59
ENCODING 28507
SWIDTH 960 0
DWIDTH 12 0
BBX 12 12 0 -2
BITMAP
0000
0200
3ff0
2010
4200
1220
1220
1240
2600
0580
0880
7070
ENDCHAR
STARTCHAR 02-79-60
ENCODING 28508
SWIDTH 960 0
DWIDTH 12 0
BBX 12 12 0 -2
BITMAP
0000
1fe0
1fe0
1100
7ff0
0300
0710
0d10
78f0
6000
2920
4490
ENDCHAR
STARTCHAR 02-79-61
ENCODING 28509
SWIDTH 960 0
DWIDTH 12 0
BBX 12 12 0 -2
BITMAP
0000
1080
1080
17f0
5520
5920
5120
12c0
18c0
2920
2910
4210
ENDCHAR
STARTCHAR 02-79-62
ENCODING 28510
SWIDTH 960 0
DWIDTH 12 0
BBX 12 12 0 -2
BITMAP
0000
1080
1080
17f0
5400
59c0
5140
1140
1940
2950
2a50
4430
ENDCHAR
STARTCHAR 02-79-63
ENCODING 28511
SWIDTH 960 0
DWIDTH 12 0
BBX 12 12 0 -2
BITMAP
0000
0880
7ff0
0880
0f80
0200
1220
1220
2640
0580
0880
7070
ENDCHAR
STARTCHAR 02-79-64
ENCODING 28512
SWIDTH 960 0
DWIDTH 12 0
BBX 12 12 0 -2
BITMAP
0000
17f0
1080
1480
5500
59f0
5310
1310
1d10
2910
29f0
4110
ENDCHAR
STARTCHAR 02-79-65
ENCODING 28513
SWIDTH 960 0
DWIDTH 12 0
BBX 12 12 0 -2
BITMAP
0000
13f0
1210
1610
57d0
5a50
5250
13d0
1a10
2a10
2bf0
4210
ENDCHAR
STARTCHAR 02-79-66
ENCODING 28514
SWIDTH 960 0
DWIDTH 12 0
BBX 12 12 0 -2
BITMAP
0000
13e0
1220
1620
57e0
5a20
5220
1220
1be0
2a20
2800
47f0
ENDCHAR
STARTCHAR 02-79-67
ENCODING 28515
SWIDTH 960 0
DWIDTH 12 0
BBX 12 12 0 -2
BITMAP
0000
0840
1860
3ff0
3000
1fc0
1040
1fc0
1220
2640
0d80
7070
ENDCHAR
STARTCHAR 02-79-68
ENCODING 28516
SWIDTH 960 0
DWIDTH 12 0
BBX 12 12 0 -2
BITMAP
0000
0000
3fe0
7df0
1ae0
3de0
25a0
3ff0
2010
4010
0000
0000
ENDCHAR
STARTCHAR 02-79-69
ENCODING 28517
SWIDTH 960 0
DWIDTH 12 0
BBX 12 12 0 -2
BITMAP
0000
13e0
1220
1620
57e0
5a40
5240
1520
1ca0
2810
2b00
40c0
ENDCHAR
STARTCHAR 02-79-70
ENCODING 28518
SWIDTH 960 0
DWIDTH 12 0
BBX 12 12 0 -2
BITMAP
0000
1210
1120
17f0
5480
5880
53e0
1080
1880
2ff0
2880
4080
ENDCHAR
STARTCHAR 02-79-71
ENCODING 28519
SWIDTH 960 0
DWIDTH 12 0
BBX 12 12 0 -2
BITMAP
0000
1140
1150
1550
5760
5940
5160
1350
1d40
2940
2a50
4430
ENDCHAR
STARTCHAR 02-79-72
ENCODING 28520
SWIDTH 960 0
DWIDTH 12 0
BBX 12 12 0 -2
BITMAP
0000
1080
13e0
1480
5480
5bf0
5080
1080
1be0
2880
2880
47f0
ENDCHAR
STARTCHAR 02-79-73
ENCODING 28521
SWIDTH 960 0
DWIDTH 12 0
BBX 12 12 0 -2
BITMAP
0000
17f0
1000
17e0
5620
5a20
53e0
1220
1be0
2a20
2800
47f0
ENDCHAR
STARTCHAR 02-79-74
ENCODING 28522
SWIDTH 960 0
DWIDTH 12 0
BBX 12 12 0 -2
BITMAP
0000
1080
13e0
1480
5480
5bf0
5140
1360
1d50
2950
2a40
44c0
ENDCHAR
STARTCHAR 02-79-75
ENCODING 28523
SWIDTH 960 0
DWIDTH 12 0
BBX 12 12 0 -2
BITMAP
0000
1fc0
3fe0
7ff0
3fe0
0fc0
3fe0
7820
1fe0
0fc0
2920
4490
ENDCHAR
STARTCHAR 02-79-76
ENCODING 28524
SWIDTH 960 0
DWIDTH 12 0
BBX 12 12 0 -2
BITMAP
0000
13f0
1210
17f0
5400
5bf0
5210
13f0
1a10
2bf0
2a10
4270
ENDCHAR
STARTCHAR 02-79-77
ENCODING 28525
SWIDTH 960 0
DWIDTH 12 0
BBX 12 12 0 -2
BITMAP
0000
12a0
1290
1490
57f0
5a10
53f0
1210
1bf0
2a10
2a10
4270
ENDCHAR
STARTCHAR 02-79-78
ENCODING 28526
SWIDTH 960 0
DWIDTH 12 0
BBX 12 12 0 -2
BITMAP
0000
3de0
71f0
7df0
65e0
7d10
62f0
5220
1640
2580
0880
7070
ENDCHAR
STARTCHAR 02-79-79
ENCODING 28527
SWIDTH 960 0
DWIDTH 12 0
BBX 12 12 0 -2
BITMAP
0000
1100
1220
17d0
5540
5a30
5080
11e0
1b40
2880
2940
4630
ENDCHAR
STARTCHAR 02-79-80
ENCODING 28528
SWIDTH 960 0
DWIDTH 12 0
BBX 12 12 0 -2
BITMAP
0000
19c0
3de0
18c0
3de0
2500
3fc0
08c0
3fc0
1fc0
08d0
0870
ENDCHAR
STARTCHAR 02-79-81
ENCODING 28529
SWIDTH 960 0
DWIDTH 12 0
BBX 12 12 0 -2
BITMAP
0000
1080
10f0
1480
57e0
5a20
53e0
1220
1be0
2880
2ff0
4080
ENDCHAR
STARTCHAR 02-79-82
ENCODING 28530
SWIDTH 960 0
DWIDTH 12 0
BBX 12 12 0 -2
BITMAP
0000
1200
1260
37c0
2f80
18c0
38e0
3ff0
7fe0
18c0
3de0
6730
ENDCHAR
STARTCHAR 02-79-83
ENCODING 28531
SWIDTH 960 0
DWIDTH 12 0
BBX 12 12 0 -2
BITMAP
0000
1140
17f0
1540
5480
5be0
52a0
12a0
1ff0
2880
2940
4230
ENDCHAR
STARTCHAR 02-79-84
ENCODING 28532
SWIDTH 960 0
DWIDTH 12 0
BBX 12 12 0 -2
BITMAP
0000
1080
13f0
1410
57e0
5800
53e0
1220
1be0
2a20
2be0
47f0
ENDCHAR
STARTCHAR 02-79-85
ENCODING 28533
SWIDTH 960 0
DWIDTH 12 0
BBX 12 12 0 -2
BITMAP
0000
1080
1290
17f0
5400
5bf0
5100
13f0
1ad0
2ad0
2ad0
4230
ENDCHAR
STARTCHAR 02-79-86
ENCODING 28534
SWIDTH 960 0
DWIDTH 12 0
BBX 12 12 0 -2
BITMAP
0000
1cc0
3cf0
68f0
3fb0
06e0
7ee0
06e0
3fb0
0000
2920
4490
ENDCHAR
STARTCHAR 02-79-87
ENCODING 28535
SWIDTH 960 0
DWIDTH 12 0
BBX 12 12 0 -2
BITMAP
0000
1070
1380
1690
5a50
5120
52f0
1290
1af0
2a90
2af0
4290
ENDCHAR
STARTCHAR 02-79-88
ENCODING 28536
SWIDTH 960 0
DWIDTH 12 0
BBX 12 12 0 -2
BITMAP
0000
1070
13a0
1290
5650
5880
5330
1210
1b70
2a10
2bf0
4210
ENDCHAR
STARTCHAR 02-79-89
ENCODING 28537
SWIDTH 960 0
DWIDTH 12 0
BBX 12 12 0 -2
BITMAP
0000
13e0
1220
17e0
5620
5be0
5290
11a0
1ff0
2940
2a50
4430
ENDCHAR
STARTCHAR 02-79-90
ENCODING 28538
SWIDTH 960 0
DWIDTH 12 0
BBX 12 12 0 -2
BITMAP
0000
17f0
1140
17f0
5550
5ff0
5000
13e0
1800
2ff0
2aa0
4590
ENDCHAR
STARTCHAR 02-79-91
ENCODING 28539
SWIDTH 960 0
DWIDTH 12 0
BBX 12 12 0 -2
BITMAP
0000
1770
1330
1550
5730
5d50
5080
13e0
1a20
2be0
2a20
43e0
ENDCHAR
STARTCHAR 02-79-92
ENCODING 28540
SWIDTH 960 0
DWIDTH 12 0
BBX 12 12 0 -2
BITMAP
0000
10e0
12f0
15e0
56e0
59b0
52e0
12e0
1ae0
2bf0
2a40
41f0
ENDCHAR
STARTCHAR 02-79-93
ENCODING 28541
SWIDTH 960 0
DWIDTH 12 0
BBX 12 12 0 -2
BITMAP
0000
13f0
12d0
15b0
56d0
58d0
5120
16d0
1860
2990
2860
4380
ENDCHAR
STARTCHAR 02-79-94
ENCODING 28542
SWIDTH 960 0
DWIDTH 12 0
BBX 12 12 0 -2
BITMAP
0000
13f0
13f0
17e0
57e0
5bf0
53e0
13f0
1bf0
2bf0
2be0
4270
ENDCHAR
STARTCHAR 02-80-01
ENCODING 28705
SWIDTH 960 0
DWIDTH 12 0
BBX 12 12 0 -2
BITMAP
0000
13e0
1220
17e0
5a20
57f0
5550
17f0
1be0
2a20
29c0
4670
ENDCHAR
STARTCHAR 02-80-02
ENCODING 28706
SWIDTH 960 0
DWIDTH 12 0
BBX 12 12 0 -2
BITMAP
0000
7ee0
7ff0
7ec0
7ec0
3cc0
3fd0
7f70
3e60
7740
1dc0
78f0
ENDCHAR
STARTCHAR 02-80-03
ENCODING 28707
SWIDTH 960 0
DWIDTH 12 0
BBX 12 12 0 -2
BITMAP
0000
1240
13f0
1640
57e0
5a40
53e0
1240
1bf0
2aa0
2b50
4550
ENDCHAR
STARTCHAR 02-80-04
ENCODING 28708
SWIDTH 960 0
DWIDTH 12 0
BBX 12 12 0 -2
BITMAP
0000
2520
7ff0
2520
3560
7ff0
6530
0200
3660
7740
1dc0
78f0
ENDCHAR
STARTCHAR 02-80-05
ENCODING 28709
SWIDTH 960 0
DWIDTH 12 0
BBX 12 12 0 -2
BITMAP
0000
73c0
33c0
63c0
23c0
3ff0
27e0
6ff0
62a0
36e0
3f80
79f0
ENDCHAR
STARTCHAR 02-80-06
ENCODING 28710
SWIDTH 960 0
DWIDTH 12 0
BBX 12 12 0 -2
BITMAP
0000
1770
17f0
17f0
57f0
5c10
5490
17f0
1f30
2d50
24d0
4430
ENDCHAR
STARTCHAR 02-80-07
ENCODING 28711
SWIDTH 960 0
DWIDTH 12 0
BBX 12 12 0 -2
BITMAP
0000
7ff0
7ff0
3cc0
3fe0
7fe0
6fe0
3da0
7ff0
7d10
2da0
67b0
ENDCHAR
STARTCHAR 02-80-08
ENCODING 28712
SWIDTH 960 0
DWIDTH 12 0
BBX 12 12 0 -2
BITMAP
0000
1240
13f0
16e0
5680
5bf0
53d0
13d0
1bd0
2bd0
29f0
43c0
ENDCHAR
STARTCHAR 02-80-09
ENCODING 28713
SWIDTH 960 0
DWIDTH 12 0
BBX 12 12 0 -2
BITMAP
0000
0000
0000
0060
3f80
0420
2240
1240
1080
0000
0000
0000
ENDCHAR
STARTCHAR 02-80-10
ENCODING 28714
SWIDTH 960 0
DWIDTH 12 0
BBX 12 12 0 -2
BITMAP
0000
0000
0000
00c0
1f00
1440
1220
2220
4000
0000
0000
0000
ENDCHAR
STARTCHAR 02-80-11
ENCODING 28715
SWIDTH 960 0
DWIDTH 12 0
BBX 12 12 0 -2
BITMAP
0000
7e70
7ff0
7ff0
7ff0
7bf0
7ff0
7ff0
6ff0
7ff0
77f0
7f50
ENDCHAR
STARTCHAR 02-80-12
ENCODING 28716
SWIDTH 960 0
DWIDTH 12 0
BBX 12 12 0 -2
BITMAP
0000
0500
1dc0
7ff0
0f80
18c0
7ff0
1640
1fc0
1fc0
1010
1ff0
ENDCHAR
STARTCHAR 02-80-13
ENCODING 28717
SWIDTH 960 0
DWIDTH 12 0
BBX 12 12 0 -2
BITMAP
0000
1dc0
3de0
1fc0
7df0
3fc0
3d80
0700
1fe0
0fe0
03c0
0f80
ENDCHAR
STARTCHAR 02-80-14
ENCODING 28718
SWIDTH 960 0
DWIDTH 12 0
BBX 12 12 0 -2
BITMAP
0000
0080
0080
0480
0280
0280
0180
0280
0480
0480
0080
0080
ENDCHAR
STARTCHAR 02-80-15
ENCODING 28719
SWIDTH 960 0
DWIDTH 12 0
BBX 12 12 0 -2
BITMAP
0000
0a20
2940
2ff0
3880
0880
7be0
2880
2880
2ff0
4880
4880
ENDCHAR
STARTCHAR 02-80-16
ENCODING 28720
SWIDTH 960 0
DWIDTH 12 0
BBX 12 12 0 -2
BITMAP
0000
2880
2ff0
2a20
3ff0
2490
3ff0
2900
29f0
2910
4a10
4c60
ENDCHAR
STARTCHAR 02-80-17
ENCODING 28721
SWIDTH 960 0
DWIDTH 12 0
BBX 12 12 0 -2
BITMAP
0000
2bf0
2bf0
2bf0
3bf0
23f0
3be0
2bf0
2bf0
2bf0
4ff0
4af0
ENDCHAR
STARTCHAR 02-80-18
ENCODING 28722
SWIDTH 960 0
DWIDTH 12 0
BBX 12 12 0 -2
BITMAP
0000
2be0
2bf0
3cb0
4bb0
4bb0
0fb0
19b0
6930
0b30
0a20
0ae0
ENDCHAR
STARTCHAR 02-80-19
ENCODING 28723
SWIDTH 960 0
DWIDTH 12 0
BBX 12 12 0 -2
BITMAP
0000
7de0
7df0
6df0
38e0
7de0
5f30
1600
3fe0
2600
7ff0
0200
ENDCHAR
STARTCHAR 02-80-20
ENCODING 28724
SWIDTH 960 0
DWIDTH 12 0
BBX 12 12 0 -2
BITMAP
0000
1940
3160
6ff0
6080
20c0
3270
1620
3fe0
2600
7ff0
0200
ENDCHAR
STARTCHAR 02-80-21
ENCODING 28725
SWIDTH 960 0
DWIDTH 12 0
BBX 12 12 0 -2
BITMAP
0000
2880
2880
3ff0
4880
4880
0fe0
1a20
6a20
0a20
0be0
0a20
ENDCHAR
STARTCHAR 02-80-22
ENCODING 28726
SWIDTH 960 0
DWIDTH 12 0
BBX 12 12 0 -2
BITMAP
0000
2880
2bf0
3e10
4bf0
4860
0cc0
1bf0
68c0
08c0
08c0
09c0
ENDCHAR
STARTCHAR 02-80-23
ENCODING 28727
SWIDTH 960 0
DWIDTH 12 0
BBX 12 12 0 -2
BITMAP
0000
28c0
2ac0
3ff0
4ac0
48c0
0ff0
1880
6bf0
0a30
0bf0
09e0
ENDCHAR
STARTCHAR 02-80-24
ENCODING 28728
SWIDTH 960 0
DWIDTH 12 0
BBX 12 12 0 -2
BITMAP
0000
3c20
3df0
7fa0
3ee0
1ee0
7ee0
1200
3fc0
3fc0
7ff0
0200
ENDCHAR
STARTCHAR 02-80-25
ENCODING 28729
SWIDTH 960 0
DWIDTH 12 0
BBX 12 12 0 -2
BITMAP
0000
20c0
29e0
7ff0
7ed0
13f0
7860
5060
7ff0
7e30
13f0
11e0
ENDCHAR
STARTCHAR 02-80-26
ENCODING 28730
SWIDTH 960 0
DWIDTH 12 0
BBX 12 12 0 -2
BITMAP
0000
0cc0
0780
0300
0300
0f00
1b80
0780
1e80
1880
0180
0300
ENDCHAR
STARTCHAR 02-80-27
ENCODING 28731
SWIDTH 960 0
DWIDTH 12 0
BBX 12 12 0 -2
BITMAP
0000
0440
0460
7ff0
0800
0cc0
1cc0
1f80
3b80
7380
6ee0
1c70
ENDCHAR
STARTCHAR 02-80-28
ENCODING 28732
SWIDTH 960 0
DWIDTH 12 0
BBX 12 12 0 -2
BITMAP
0000
0a00
4a00
37c0
37c0
5240
1240
3240
5240
1640
1650
6470
ENDCHAR
STARTCHAR 02-80-29
ENCODING 28733
SWIDTH 960 0
DWIDTH 12 0
BBX 12 12 0 -2
BITMAP
0000
0900
4900
37c0
37c0
5140
1340
3140
53c0
13c0
1670
6470
ENDCHAR
STARTCHAR 02-80-30
ENCODING 28734
SWIDTH 960 0
DWIDTH 12 0
BBX 12 12 0 -2
BITMAP
0000
0900
4b20
32e0
37f0
5340
1240
3240
5240
1240
1650
6470
ENDCHAR
STARTCHAR 02-80-31
ENCODING 28735
SWIDTH 960 0
DWIDTH 12 0
BBX 12 12 0 -2
BITMAP
0000
0920
49c0
3700
3120
5520
1520
3520
57e0
1100
1110
60f0
ENDCHAR
STARTCHAR 02-80-32
ENCODING 28736
SWIDTH 960 0
DWIDTH 12 0
BBX 12 12 0 -2
BITMAP
0000
0a80
4a80
33f0
3480
5080
1080
33e0
5080
1080
1080
67f0
ENDCHAR
STARTCHAR 02-80-33
ENCODING 28737
SWIDTH 960 0
DWIDTH 12 0
BBX 12 12 0 -2
BITMAP
0000
0bf0
4910
3110
3110
5210
1460
33f0
5210
1210
13f0
6210
ENDCHAR
STARTCHAR 02-80-34
ENCODING 28738
SWIDTH 960 0
DWIDTH 12 0
BBX 12 12 0 -2
BITMAP
0000
0880
4880
37f0
3490
5490
17f0
3490
5490
1490
17f0
6410
ENDCHAR
STARTCHAR 02-80-35
ENCODING 28739
SWIDTH 960 0
DWIDTH 12 0
BBX 12 12 0 -2
BITMAP
0000
0880
4880
3140
3220
57f0
1080
37f0
5080
12a0
1290
6590
ENDCHAR
STARTCHAR 02-80-36
ENCODING 28740
SWIDTH 960 0
DWIDTH 12 0
BBX 12 12 0 -2
BITMAP
0000
0be0
4800
37f0
33e0
5000
13e0
3000
53e0
1220
13e0
6220
ENDCHAR
STARTCHAR 02-80-37
ENCODING 28741
SWIDTH 960 0
DWIDTH 12 0
BBX 12 12 0 -2
BITMAP
0000
08e0
4880
37f0
34b0
55c0
1780
34f0
5540
1540
1550
6370
ENDCHAR
STARTCHAR 02-80-38
ENCODING 28742
SWIDTH 960 0
DWIDTH 12 0
BBX 12 12 0 -2
BITMAP
0000
7cc0
64e0
7cf0
67f0
7cc0
3cc0
7cc0
7cc0
7ce0
65a0
6f30
ENDCHAR
STARTCHAR 02-80-39
ENCODING 28743
SWIDTH 960 0
DWIDTH 12 0
BBX 12 12 0 -2
BITMAP
0000
0e70
4e70
37f0
3270
57f0
1270
37f0
52f0
12b0
13b0
6370
ENDCHAR
STARTCHAR 02-80-40
ENCODING 28744
SWIDTH 960 0
DWIDTH 12 0
BBX 12 12 0 -2
BITMAP
0000
09e0
4fc0
3560
37e0
5120
17f0
3160
57e0
17c0
1100
6300
ENDCHAR
STARTCHAR 02-80-41
ENCODING 28745
SWIDTH 960 0
DWIDTH 12 0
BBX 12 12 0 -2
BITMAP
0000
0a40
4ff0
3340
3240
57f0
17b0
37f0
52f0
13f0
1030
60e0
ENDCHAR
STARTCHAR 02-80-42
ENCODING 28746
SWIDTH 960 0
DWIDTH 12 0
BBX 12 12 0 -2
BITMAP
0000
0880
4ff0
33c0
33e0
56b0
17f0
33e0
53e0
13e0
17f0
67f0
ENDCHAR
STARTCHAR 02-80-43
ENCODING 28747
SWIDTH 960 0
DWIDTH 12 0
BBX 12 12 0 -2
BITMAP
0000
0fe0
4ff0
37f0
34b0
57f0
17e0
37f0
57f0
17f0
1430
6430
ENDCHAR
STARTCHAR 02-80-44
ENCODING 28748
SWIDTH 960 0
DWIDTH 12 0
BBX 12 12 0 -2
BITMAP
0000
0fe0
4fe0
37f0
37f0
53e0
16c0
3780
57f0
13e0
16b0
6490
ENDCHAR
STARTCHAR 02-80-45
ENCODING 28749
SWIDTH 960 0
DWIDTH 12 0
BBX 12 12 0 -2
BITMAP
0000
16e0
57f0
2230
37f0
54e0
17f0
34f0
56e0
1640
10e0
61b0
ENDCHAR
STARTCHAR 02-80-46
ENCODING 28750
SWIDTH 960 0
DWIDTH 12 0
BBX 12 12 0 -2
BITMAP
0000
0ff0
4ff0
37f0
3220
53e0
1220
33e0
57f0
17f0
1160
6770
ENDCHAR
STARTCHAR 02-80-47
ENCODING 28751
SWIDTH 960 0
DWIDTH 12 0
BBX 12 12 0 -2
BITMAP
0000
3c80
3df0
7fb0
7fb0
3ee0
3ee0
6fb0
0260
7ff0
18c0
78f0
ENDCHAR
STARTCHAR 02-80-48
ENCODING 28752
SWIDTH 960 0
DWIDTH 12 0
BBX 12 12 0 -2
BITMAP
0000
0fc0
4fa0
37f0
37e0
5460
17f0
3430
57f0
14f0
17b0
6570
ENDCHAR
STARTCHAR 02-80-49
ENCODING 28753
SWIDTH 960 0
DWIDTH 12 0
BBX 12 12 0 -2
BITMAP
0000
0980
4bc0
3670
37f0
53c0
17f0
35f0
57e0
1220
1660
67f0
ENDCHAR
STARTCHAR 02-80-50
ENCODING 28754
SWIDTH 960 0
DWIDTH 12 0
BBX 12 12 0 -2
BITMAP
0000
16f0
5ff0
2f70
3ff0
5ff0
1fa0
3ff0
5fe0
19f0
1920
6b20
ENDCHAR
STARTCHAR 02-80-51
ENCODING 28755
SWIDTH 960 0
DWIDTH 12 0
BBX 12 12 0 -2
BITMAP
0000
0bc0
4a40
33c0
3770
5550
1770
3080
57f0
11c0
12a0
6490
ENDCHAR
STARTCHAR 02-80-52
ENCODING 28756
SWIDTH 960 0
DWIDTH 12 0
BBX 12 12 0 -2
BITMAP
0000
17f0
57f0
27f0
37f0
57f0
17f0
35b0
57f0
17f0
14b0
64b0
ENDCHAR
STARTCHAR 02-80-53
ENCODING 28757
SWIDTH 960 0
DWIDTH 12 0
BBX 12 12 0 -2
BITMAP
0000
0ff0
4fc0
37f0
37e0
57f0
17f0
37f0
57e0
17e0
17f0
6550
ENDCHAR
STARTCHAR 02-80-54
ENCODING 28758
SWIDTH 960 0
DWIDTH 12 0
BBX 12 12 0 -2
BITMAP
0000
0ff0
4ff0
33f0
37e0
53c0
17f0
37f0
53f0
13f0
13e0
6630
ENDCHAR
STARTCHAR 02-80-55
ENCODING 28759
SWIDTH 960 0
DWIDTH 12 0
BBX 12 12 0 -2
BITMAP
0000
17f0
57f0
27f0
31c0
55c0
17f0
37f0
57f0
17f0
13e0
6630
ENDCHAR
STARTCHAR 02-80-56
ENCODING 28760
SWIDTH 960 0
DWIDTH 12 0
BBX 12 12 0 -2
BITMAP
0000
16f0
56f0
27f0
37f0
5740
17f0
37f0
5770
1760
1770
6ff0
ENDCHAR
STARTCHAR 02-80-57
ENCODING 28761
SWIDTH 960 0
DWIDTH 12 0
BBX 12 12 0 -2
BITMAP
0000
1080
1080
7ea0
32a0
2290
6c90
39a0
3820
3840
7c80
7f00
ENDCHAR
STARTCHAR 02-80-58
ENCODING 28762
SWIDTH 960 0
DWIDTH 12 0
BBX 12 12 0 -2
BITMAP
0000
3fe0
0200
0280
0240
0240
3fe0
0200
0200
0200
0200
7ff0
ENDCHAR
STARTCHAR 02-80-59
ENCODING 28763
SWIDTH 960 0
DWIDTH 12 0
BBX 12 12 0 -2
BITMAP
0000
0030
7ab0
22b0
22b0
22b0
7ab0
22b0
22b0
3eb0
4630
0430
ENDCHAR
STARTCHAR 02-80-60
ENCODING 28764
SWIDTH 960 0
DWIDTH 12 0
BBX 12 12 0 -2
BITMAP
0000
03e0
7bf0
2030
2030
23f0
7a00
2200
2200
3a10
43f0
01e0
ENDCHAR
STARTCHAR 02-80-61
ENCODING 28765
SWIDTH 960 0
DWIDTH 12 0
BBX 12 12 0 -2
BITMAP
0000
00c0
7a20
2220
2210
2490
7c80
2140
2120
3a20
4270
0f90
ENDCHAR
STARTCHAR 02-80-62
ENCODING 28766
SWIDTH 960 0
DWIDTH 12 0
BBX 12 12 0 -2
BITMAP
0000
0080
7880
27f0
2080
2080
7ff0
2080
2140
3940
4220
0410
ENDCHAR
STARTCHAR 02-80-63
ENCODING 28767
SWIDTH 960 0
DWIDTH 12 0
BBX 12 12 0 -2
BITMAP
0000
03e0
7bf0
2230
23f0
2230
7a30
23f0
2230
3e30
4430
0470
ENDCHAR
STARTCHAR 02-80-64
ENCODING 28768
SWIDTH 960 0
DWIDTH 12 0
BBX 12 12 0 -2
BITMAP
0000
03e0
7880
2080
2080
2080
7be0
2080
2080
3880
4080
07f0
ENDCHAR
STARTCHAR 02-80-65
ENCODING 28769
SWIDTH 960 0
DWIDTH 12 0
BBX 12 12 0 -2
BITMAP
0000
0220
7a20
27f0
2220
2220
7be0
2220
2220
3a20
43e0
0220
ENDCHAR
STARTCHAR 02-80-66
ENCODING 28770
SWIDTH 960 0
DWIDTH 12 0
BBX 12 12 0 -2
BITMAP
0000
0080
7880
20f0
20f0
2080
7880
23f0
2230
3e30
4230
03f0
ENDCHAR
STARTCHAR 02-80-67
ENCODING 28771
SWIDTH 960 0
DWIDTH 12 0
BBX 12 12 0 -2
BITMAP
0000
0080
7880
27f0
2100
2140
7a40
2680
21a0
3920
41d0
0610
ENDCHAR
STARTCHAR 02-80-68
ENCODING 28772
SWIDTH 960 0
DWIDTH 12 0
BBX 12 12 0 -2
BITMAP
0000
0240
7a40
2640
2670
27f0
7e40
2640
2640
3f40
47d0
0670
ENDCHAR
STARTCHAR 02-80-69
ENCODING 28773
SWIDTH 960 0
DWIDTH 12 0
BBX 12 12 0 -2
BITMAP
0000
07f0
7910
2110
2110
2210
7c60
23f0
2210
3a10
43f0
0210
ENDCHAR
STARTCHAR 02-80-70
ENCODING 28774
SWIDTH 960 0
DWIDTH 12 0
BBX 12 12 0 -2
BITMAP
0000
0080
7880
27f0
2490
27f0
7c90
2490
27f0
3c90
4080
0080
ENDCHAR
STARTCHAR 02-80-71
ENCODING 28775
SWIDTH 960 0
DWIDTH 12 0
BBX 12 12 0 -2
BITMAP
0000
0100
7f70
2550
2550
2550
7d50
2550
2750
3f70
4140
0340
ENDCHAR
STARTCHAR 02-80-72
ENCODING 28776
SWIDTH 960 0
DWIDTH 12 0
BBX 12 12 0 -2
BITMAP
0000
7df0
7df0
38e0
38e0
1040
7ff0
0600
0700
0d80
38e0
7070
ENDCHAR
STARTCHAR 02-80-73
ENCODING 28777
SWIDTH 960 0
DWIDTH 12 0
BBX 12 12 0 -2
BITMAP
0000
02c0
7ae0
26f0
26e0
22c0
7ae0
26f0
26e0
3ac0
46d0
0470
ENDCHAR
STARTCHAR 02-80-74
ENCODING 28778
SWIDTH 960 0
DWIDTH 12 0
BBX 12 12 0 -2
BITMAP
0000
00f0
78d0
27f0
24c0
27f0
7df0
25e0
25e0
3fe0
44f0
01b0
ENDCHAR
STARTCHAR 02-80-75
ENCODING 28779
SWIDTH 960 0
DWIDTH 12 0
BBX 12 12 0 -2
BITMAP
0000
0080
7fe0
2430
27e0
2000
7ff0
2340
2240
3a40
4650
0470
ENDCHAR
STARTCHAR 02-80-76
ENCODING 28780
SWIDTH 960 0
DWIDTH 12 0
BBX 12 12 0 -2
BITMAP
0000
03c0
7be0
27f0
27f0
2160
7be0
2300
27f0
3e30
4230
03f0
ENDCHAR
STARTCHAR 02-80-77
ENCODING 28781
SWIDTH 960 0
DWIDTH 12 0
BBX 12 12 0 -2
BITMAP
0000
0200
7ff0
2400
27f0
21b0
7aa0
2280
22e0
3a80
47c0
04f0
ENDCHAR
STARTCHAR 02-80-78
ENCODING 28782
SWIDTH 960 0
DWIDTH 12 0
BBX 12 12 0 -2
BITMAP
0000
00f0
7be0
26b0
27f0
21b0
7ff0
21b0
23f0
3be0
4080
0380
ENDCHAR
STARTCHAR 02-80-79
ENCODING 28783
SWIDTH 960 0
DWIDTH 12 0
BBX 12 12 0 -2
BITMAP
0000
07e0
7ff0
25f0
27f0
27f0
7cb0
27f0
2670
3ff0
4430
0470
ENDCHAR
STARTCHAR 02-80-80
ENCODING 28784
SWIDTH 960 0
DWIDTH 12 0
BBX 12 12 0 -2
BITMAP
0000
7df0
7df0
38e0
38e0
1c40
73f0
0600
7ff0
1f80
7af0
6270
ENDCHAR
STARTCHAR 02-80-81
ENCODING 28785
SWIDTH 960 0
DWIDTH 12 0
BBX 12 12 0 -2
BITMAP
0000
0080
7ff0
27f0
27f0
27b0
7ff0
27f0
23e0
3bf0
46b0
0080
ENDCHAR
STARTCHAR 02-80-82
ENCODING 28786
SWIDTH 960 0
DWIDTH 12 0
BBX 12 12 0 -2
BITMAP
0000
03e0
7b80
23f0
22b0
23f0
7ff0
25d0
24f0
3ff0
4410
0430
ENDCHAR
STARTCHAR 02-80-83
ENCODING 28787
SWIDTH 960 0
DWIDTH 12 0
BBX 12 12 0 -2
BITMAP
0000
0080
7fe0
23e0
23e0
27f0
7a60
27f0
2630
3be0
4220
03e0
ENDCHAR
STARTCHAR 02-80-84
ENCODING 28788
SWIDTH 960 0
DWIDTH 12 0
BBX 12 12 0 -2
BITMAP
0000
03c0
7fc0
27e0
27f0
25f0
7ff0
2630
27f0
3ff0
43e0
0670
ENDCHAR
STARTCHAR 02-80-85
ENCODING 28789
SWIDTH 960 0
DWIDTH 12 0
BBX 12 12 0 -2
BITMAP
0000
03c0
7bc0
23c0
2240
23c0
7ff0
27f0
27f0
3ff0
47a0
03e0
ENDCHAR
STARTCHAR 02-80-86
ENCODING 28790
SWIDTH 960 0
DWIDTH 12 0
BBX 12 12 0 -2
BITMAP
0000
0180
7be0
23e0
23e0
2260
7be0
27f0
23e0
3bc0
47f0
07f0
ENDCHAR
STARTCHAR 02-80-87
ENCODING 28791
SWIDTH 960 0
DWIDTH 12 0
BBX 12 12 0 -2
BITMAP
0000
03f0
7bd0
23f0
27e0
27f0
7ff0
27f0
27f0
3de0
47f0
0630
ENDCHAR
STARTCHAR 02-80-88
ENCODING 28792
SWIDTH 960 0
DWIDTH 12 0
BBX 12 12 0 -2
BITMAP
0000
0080
7fe0
25f0
27f0
27f0
7cf0
24f0
27e0
3fb0
47b0
05f0
ENDCHAR
STARTCHAR 02-80-89
ENCODING 28793
SWIDTH 960 0
DWIDTH 12 0
BBX 12 12 0 -2
BITMAP
0000
02a0
7de0
27e0
23e0
23e0
7be0
23e0
27f0
3be0
46b0
0490
ENDCHAR
STARTCHAR 02-80-90
ENCODING 28794
SWIDTH 960 0
DWIDTH 12 0
BBX 12 12 0 -2
BITMAP
0000
0240
7f40
2670
27f0
26f0
7ff0
2770
2720
3d70
4570
07f0
ENDCHAR
STARTCHAR 02-80-91
ENCODING 28795
SWIDTH 960 0
DWIDTH 12 0
BBX 12 12 0 -2
BITMAP
0000
76c0
7ec0
7ff0
34c0
7ec0
3bf0
7dc0
7ec0
7de0
1920
3330
ENDCHAR
STARTCHAR 02-80-92
ENCODING 28796
SWIDTH 960 0
DWIDTH 12 0
BBX 12 12 0 -2
BITMAP
0000
0360
7fd0
2370
27f0
21c0
7be0
2320
23e0
3a20
4360
07f0
ENDCHAR
STARTCHAR 02-80-93
ENCODING 28797
SWIDTH 960 0
DWIDTH 12 0
BBX 12 12 0 -2
BITMAP
0000
73c0
33c0
63c0
23c0
3ff0
27e0
6ff0
7ff0
7ff0
3fe0
7ff0
ENDCHAR
STARTCHAR 02-80-94
ENCODING 28798
SWIDTH 960 0
DWIDTH 12 0
BBX 12 12 0 -2
BITMAP
0000
0100
7ff0
2740
2660
27f0
7ff0
23e0
23e0
3aa0
46b0
0790
ENDCHAR
STARTCHAR 02-81-01
ENCODING 28961
SWIDTH 960 0
DWIDTH 12 0
BBX 12 12 0 -2
BITMAP
0000
03e0
7fa0
27f0
27f0
27e0
7eb0
2490
27f0
3ff0
44b0
07f0
ENDCHAR
STARTCHAR 02-81-02
ENCODING 28962
SWIDTH 960 0
DWIDTH 12 0
BBX 12 12 0 -2
BITMAP
0000
04f0
7ea0
25f0
2740
25f0
7f40
23f0
2340
3ff0
4600
05f0
ENDCHAR
STARTCHAR 02-81-03
ENCODING 28963
SWIDTH 960 0
DWIDTH 12 0
BBX 12 12 0 -2
BITMAP
0000
0640
7f40
27f0
26f0
27f0
7ff0
2770
2720
3f70
4370
07d0
ENDCHAR
STARTCHAR 02-81-04
ENCODING 28964
SWIDTH 960 0
DWIDTH 12 0
BBX 12 12 0 -2
BITMAP
0000
03c0
7a40
23c0
27e0
25f0
7ff0
27e0
27f0
3be0
46b0
0490
ENDCHAR
STARTCHAR 02-81-05
ENCODING 28965
SWIDTH 960 0
DWIDTH 12 0
BBX 12 12 0 -2
BITMAP
0000
04b0
7ea0
27f0
27f0
27e0
7be0
27f0
24b0
3ff0
44b0
07f0
ENDCHAR
STARTCHAR 02-81-06
ENCODING 28966
SWIDTH 960 0
DWIDTH 12 0
BBX 12 12 0 -2
BITMAP
0000
07e0
7fe0
23e0
27f0
23f0
7bf0
27f0
27f0
3ff0
47f0
0630
ENDCHAR
STARTCHAR 02-81-07
ENCODING 28967
SWIDTH 960 0
DWIDTH 12 0
BBX 12 12 0 -2
BITMAP
0000
07f0
7df0
2770
2770
2180
7fe0
2620
2770
3dd0
47f0
0080
ENDCHAR
STARTCHAR 02-81-08
ENCODING 28968
SWIDTH 960 0
DWIDTH 12 0
BBX 12 12 0 -2
BITMAP
0000
1f40
37e0
3fe0
3fe0
3fe0
7ff0
7ff0
0200
1fc0
02c0
7ff0
ENDCHAR
STARTCHAR 02-81-09
ENCODING 28969
SWIDTH 960 0
DWIDTH 12 0
BBX 12 12 0 -2
BITMAP
0000
07f0
7ff0
27f0
27f0
27e0
7fe0
27f0
27f0
3ff0
47e0
0730
ENDCHAR
STARTCHAR 02-81-10
ENCODING 28970
SWIDTH 960 0
DWIDTH 12 0
BBX 12 12 0 -2
BITMAP
0000
07f0
7ff0
27f0
27f0
2360
7be0
27e0
27e0
3be0
42c0
03f0
ENDCHAR
STARTCHAR 02-81-11
ENCODING 28971
SWIDTH 960 0
DWIDTH 12 0
BBX 12 12 0 -2
BITMAP
0000
1dc0
39c0
7bf0
7ac0
7ff0
78c0
7de0
7fb0
7700
7f80
79f0
ENDCHAR
STARTCHAR 02-81-12
ENCODING 28972
SWIDTH 960 0
DWIDTH 12 0
BBX 12 12 0 -2
BITMAP
0000
7ff0
7d00
4100
69e0
7920
5920
59a0
7960
4120
7db0
7f30
ENDCHAR
STARTCHAR 02-81-13
ENCODING 28973
SWIDTH 960 0
DWIDTH 12 0
BBX 12 12 0 -2
BITMAP
0000
17c0
3060
7ff0
0cc0
19c0
7ff0
1fc0
1fc0
1ec0
1fd0
7ff0
ENDCHAR
STARTCHAR 02-81-14
ENCODING 28974
SWIDTH 960 0
DWIDTH 12 0
BBX 12 12 0 -2
BITMAP
0000
7de0
21e0
21e0
3de0
2500
27f0
3520
2d60
25f0
3410
63f0
ENDCHAR
STARTCHAR 02-81-15
ENCODING 28975
SWIDTH 960 0
DWIDTH 12 0
BBX 12 12 0 -2
BITMAP
0000
1ff0
3d00
3d00
21e0
3d20
2120
7da0
2560
6530
7db0
7310
ENDCHAR
STARTCHAR 02-81-16
ENCODING 28976
SWIDTH 960 0
DWIDTH 12 0
BBX 12 12 0 -2
BITMAP
0000
7c80
23e0
23f0
3ff0
27f0
27d0
37f0
2fe0
27f0
3410
63f0
ENDCHAR
STARTCHAR 02-81-17
ENCODING 28977
SWIDTH 960 0
DWIDTH 12 0
BBX 12 12 0 -2
BITMAP
0000
0080
7a80
5be0
5fe0
5c80
7880
5ff0
5880
7880
0ff0
07f0
ENDCHAR
STARTCHAR 02-81-18
ENCODING 28978
SWIDTH 960 0
DWIDTH 12 0
BBX 12 12 0 -2
BITMAP
0000
7c40
7cc0
35f0
7d40
3c40
7ce0
1c40
3c40
7ff0
1b80
71f0
ENDCHAR
STARTCHAR 02-81-19
ENCODING 28979
SWIDTH 960 0
DWIDTH 12 0
BBX 12 12 0 -2
BITMAP
0000
0600
0400
3ff0
2230
3330
3ff0
2230
3ff0
3ff0
6230
6270
ENDCHAR
STARTCHAR 02-81-20
ENCODING 28980
SWIDTH 960 0
DWIDTH 12 0
BBX 12 12 0 -2
BITMAP
0000
0080
7c80
5480
5480
7c80
5580
5540
7d40
4220
0220
0410
ENDCHAR
STARTCHAR 02-81-21
ENCODING 28981
SWIDTH 960 0
DWIDTH 12 0
BBX 12 12 0 -2
BITMAP
0000
03f0
7c10
5510
5510
7d20
54a0
54c0
7c40
40a0
0120
0610
ENDCHAR
STARTCHAR 02-81-22
ENCODING 28982
SWIDTH 960 0
DWIDTH 12 0
BBX 12 12 0 -2
BITMAP
0000
0110
7d50
5550
5550
7d50
5550
5550
7d50
4250
0210
0410
ENDCHAR
STARTCHAR 02-81-23
ENCODING 28983
SWIDTH 960 0
DWIDTH 12 0
BBX 12 12 0 -2
BITMAP
0000
1930
3360
66c0
3660
1b30
0900
3fe0
2220
3fe0
2220
3fe0
ENDCHAR
STARTCHAR 02-81-24
ENCODING 28984
SWIDTH 960 0
DWIDTH 12 0
BBX 12 12 0 -2
BITMAP
0000
3fe0
2220
3fe0
2220
3fe0
0000
7ff0
0880
0880
1880
7080
ENDCHAR
STARTCHAR 02-81-25
ENCODING 28985
SWIDTH 960 0
DWIDTH 12 0
BBX 12 12 0 -2
BITMAP
0000
01f0
7df0
5500
55e0
7db0
55b0
55e0
7de0
41e0
02e0
05b0
ENDCHAR
STARTCHAR 02-81-26
ENCODING 28986
SWIDTH 960 0
DWIDTH 12 0
BBX 12 12 0 -2
BITMAP
0000
00c0
7ce0
54b0
57f0
7d80
5580
55c0
7dc0
4740
0260
0c30
ENDCHAR
STARTCHAR 02-81-27
ENCODING 28987
SWIDTH 960 0
DWIDTH 12 0
BBX 12 12 0 -2
BITMAP
0000
7ff0
7ff0
3fe0
2020
3fe0
3fe0
2620
3fe0
3fe0
3fe0
3fe0
ENDCHAR
STARTCHAR 02-81-28
ENCODING 28988
SWIDTH 960 0
DWIDTH 12 0
BBX 12 12 0 -2
BITMAP
0000
1080
1080
7c80
0080
7c80
5580
7d40
5540
5520
7e20
4410
ENDCHAR
STARTCHAR 02-81-29
ENCODING 28989
SWIDTH 960 0
DWIDTH 12 0
BBX 12 12 0 -2
BITMAP
0000
0600
0f80
7ff0
6ff0
3fe0
3ae0
7670
3fe0
3fe0
2220
3fe0
ENDCHAR
STARTCHAR 02-81-30
ENCODING 28990
SWIDTH 960 0
DWIDTH 12 0
BBX 12 12 0 -2
BITMAP
0000
0600
0f80
7ff0
6ff0
3fe0
3ae0
7670
3fe0
3fe0
2220
3fe0
ENDCHAR
STARTCHAR 02-81-31
ENCODING 28991
SWIDTH 960 0
DWIDTH 12 0
BBX 12 12 0 -2
BITMAP
0000
7ff0
7ff0
7df0
6530
7df0
3fe0
3660
3fe0
3fe0
3fe0
1fc0
ENDCHAR
STARTCHAR 02-81-32
ENCODING 28992
SWIDTH 960 0
DWIDTH 12 0
BBX 12 12 0 -2
BITMAP
0000
7ff0
7ff0
3fe0
3fe0
3fe0
7ff0
3fe0
3fe0
3fe0
3fe0
7ff0
ENDCHAR
STARTCHAR 02-81-33
ENCODING 28993
SWIDTH 960 0
DWIDTH 12 0
BBX 12 12 0 -2
BITMAP
0000
00e0
7fc0
57f0
57f0
7ff0
57f0
57f0
7fe0
47f0
0080
07f0
ENDCHAR
STARTCHAR 02-81-34
ENCODING 28994
SWIDTH 960 0
DWIDTH 12 0
BBX 12 12 0 -2
BITMAP
0000
1fc0
1240
1fc0
1240
1fc0
7df0
5550
7df0
7df0
7df0
7df0
ENDCHAR
STARTCHAR 02-81-35
ENCODING 28995
SWIDTH 960 0
DWIDTH 12 0
BBX 12 12 0 -2
BITMAP
0000
0770
7f70
5770
5770
7d80
57e0
5670
7fc0
47f0
0360
03c0
ENDCHAR
STARTCHAR 02-81-36
ENCODING 28996
SWIDTH 960 0
DWIDTH 12 0
BBX 12 12 0 -2
BITMAP
0000
1fc0
0080
0100
0200
1200
13c0
1200
1200
1260
1780
3800
ENDCHAR
STARTCHAR 02-81-37
ENCODING 28997
SWIDTH 960 0
DWIDTH 12 0
BBX 12 12 0 -2
BITMAP
0000
0200
3fe0
1fc0
1fc0
7ff0
1fc0
1e00
1bc0
1bc0
3f00
77f0
ENDCHAR
STARTCHAR 02-81-38
ENCODING 28998
SWIDTH 960 0
DWIDTH 12 0
BBX 12 12 0 -2
BITMAP
0000
0100
1ff0
5000
3100
1100
3fe0
5100
1100
1100
2100
5ff0
ENDCHAR
STARTCHAR 02-81-39
ENCODING 28999
SWIDTH 960 0
DWIDTH 12 0
BBX 12 12 0 -2
BITMAP
0000
0100
1ff0
5000
3200
1a20
3ae0
5b00
1300
1780
2ce0
5870
ENDCHAR
STARTCHAR 02-81-40
ENCODING 29000
SWIDTH 960 0
DWIDTH 12 0
BBX 12 12 0 -2
BITMAP
0000
0100
1ff0
5000
3220
1f30
37e0
5fc0
1bc0
1ac0
2a70
5230
ENDCHAR
STARTCHAR 02-81-41
ENCODING 29001
SWIDTH 960 0
DWIDTH 12 0
BBX 12 12 0 -2
BITMAP
0000
0100
1ff0
5100
3100
1ff0
3100
5100
1fe0
1100
2100
5ff0
ENDCHAR
STARTCHAR 02-81-42
ENCODING 29002
SWIDTH 960 0
DWIDTH 12 0
BBX 12 12 0 -2
BITMAP
0000
0100
1ff0
5060
3fe0
1d80
3ff0
5cc0
1ec0
1e40
2ff0
4f30
ENDCHAR
STARTCHAR 02-81-43
ENCODING 29003
SWIDTH 960 0
DWIDTH 12 0
BBX 12 12 0 -2
BITMAP
0000
0100
1ff0
5680
3fe0
17a0
3fe0
5f80
1fe0
1ff0
2cf0
5ce0
ENDCHAR
STARTCHAR 02-81-44
ENCODING 29004
SWIDTH 960 0
DWIDTH 12 0
BBX 12 12 0 -2
BITMAP
0000
0100
1ff0
5000
3200
17f0
3c30
57f0
12f0
13f0
2020
40e0
ENDCHAR
STARTCHAR 02-81-45
ENCODING 29005
SWIDTH 960 0
DWIDTH 12 0
BBX 12 12 0 -2
BITMAP
0000
0100
1ff0
57e0
37f0
1430
37e0
5630
17e0
1780
2f10
49f0
ENDCHAR
STARTCHAR 02-81-46
ENCODING 29006
SWIDTH 960 0
DWIDTH 12 0
BBX 12 12 0 -2
BITMAP
0000
0100
1ff0
5000
3200
1ff0
37e0
5fe0
1fe0
17e0
2420
4460
ENDCHAR
STARTCHAR 02-81-47
ENCODING 29007
SWIDTH 960 0
DWIDTH 12 0
BBX 12 12 0 -2
BITMAP
0000
0100
1ff0
5000
3fe0
1640
3640
5fe0
1120
1ff0
2100
5ff0
ENDCHAR
STARTCHAR 02-81-48
ENCODING 29008
SWIDTH 960 0
DWIDTH 12 0
BBX 12 12 0 -2
BITMAP
0000
0200
3ff0
6980
3ff0
2de0
2fe0
7dc0
3fb0
3ce0
3d90
57f0
ENDCHAR
STARTCHAR 02-81-49
ENCODING 29009
SWIDTH 960 0
DWIDTH 12 0
BBX 12 12 0 -2
BITMAP
0000
0100
1ff0
50a0
36a0
14b0
37e0
57f0
17f0
17f0
2430
4470
ENDCHAR
STARTCHAR 02-81-50
ENCODING 29010
SWIDTH 960 0
DWIDTH 12 0
BBX 12 12 0 -2
BITMAP
0000
0100
1ff0
5620
3fe0
13f0
3ef0
56e0
1fe0
1ec0
27e0
5e70
ENDCHAR
STARTCHAR 02-81-51
ENCODING 29011
SWIDTH 960 0
DWIDTH 12 0
BBX 12 12 0 -2
BITMAP
0000
0100
1ff0
5800
3cc0
15e0
3bf0
58d0
15f0
1de0
39c0
5380
ENDCHAR
STARTCHAR 02-81-52
ENCODING 29012
SWIDTH 960 0
DWIDTH 12 0
BBX 12 12 0 -2
BITMAP
0000
0100
1ff0
5fe0
3fe0
1fe0
3fe0
57e0
1ff0
1ed0
2fb0
4570
ENDCHAR
STARTCHAR 02-81-53
ENCODING 29013
SWIDTH 960 0
DWIDTH 12 0
BBX 12 12 0 -2
BITMAP
0000
0100
1ff0
57e0
37e0
17c0
37c0
57c0
1fe0
15c0
26c0
4e70
ENDCHAR
STARTCHAR 02-81-54
ENCODING 29014
SWIDTH 960 0
DWIDTH 12 0
BBX 12 12 0 -2
BITMAP
0000
0100
1ff0
5000
32c0
1ef0
32c0
5ef0
1ec0
1ef0
26c0
4cc0
ENDCHAR
STARTCHAR 02-81-55
ENCODING 29015
SWIDTH 960 0
DWIDTH 12 0
BBX 12 12 0 -2
BITMAP
0000
0100
1ff0
5fe0
3fe0
1fe0
3fe0
5fe0
1ff0
16c0
2ec0
4cc0
ENDCHAR
STARTCHAR 02-81-56
ENCODING 29016
SWIDTH 960 0
DWIDTH 12 0
BBX 12 12 0 -2
BITMAP
0000
0100
3ff0
6000
3fe0
2700
2fb0
6fe0
2fc0
6fc0
7ff0
1b30
ENDCHAR
STARTCHAR 02-81-57
ENCODING 29017
SWIDTH 960 0
DWIDTH 12 0
BBX 12 12 0 -2
BITMAP
0000
1ff0
3ff0
6540
3fe0
27c0
2fe0
7d30
3ff0
7ff0
6fc0
0ff0
ENDCHAR
STARTCHAR 02-81-58
ENCODING 29018
SWIDTH 960 0
DWIDTH 12 0
BBX 12 12 0 -2
BITMAP
0000
1ff0
3ff0
67c0
3fe0
2fe0
2fe0
6fe0
2fe0
67c0
6fe0
1ff0
ENDCHAR
STARTCHAR 02-81-59
ENCODING 29019
SWIDTH 960 0
DWIDTH 12 0
BBX 12 12 0 -2
BITMAP
0000
0200
3ff0
6140
2fc0
2fc0
2ff0
67e0
3c20
77e0
6420
07e0
ENDCHAR
STARTCHAR 02-81-60
ENCODING 29020
SWIDTH 960 0
DWIDTH 12 0
BBX 12 12 0 -2
BITMAP
0000
0200
3ff0
6100
2fe0
2fe0
2fe0
6fe0
2fe0
6fe0
6fe0
1ff0
ENDCHAR
STARTCHAR 02-81-61
ENCODING 29021
SWIDTH 960 0
DWIDTH 12 0
BBX 12 12 0 -2
BITMAP
0000
0200
3ff0
6fc0
2fc0
2fc0
2fc0
67c0
2ff0
7bb0
6eb0
0fe0
ENDCHAR
STARTCHAR 02-81-62
ENCODING 29022
SWIDTH 960 0
DWIDTH 12 0
BBX 12 12 0 -2
BITMAP
0000
0200
3ff0
6780
2fc0
3dc0
3fe0
6ee0
2d20
7ff0
6ee0
1c70
ENDCHAR
STARTCHAR 02-81-63
ENCODING 29023
SWIDTH 960 0
DWIDTH 12 0
BBX 12 12 0 -2
BITMAP
0000
0200
3ff0
66e0
3ef0
2ef0
2ef0
7db0
27e0
7f30
7d70
37d0
ENDCHAR
STARTCHAR 02-81-64
ENCODING 29024
SWIDTH 960 0
DWIDTH 12 0
BBX 12 12 0 -2
BITMAP
0000
0200
3ff0
6fc0
2fc0
2fc0
2fc0
6fc0
2fc0
7f30
7d70
37d0
ENDCHAR
STARTCHAR 02-81-65
ENCODING 29025
SWIDTH 960 0
DWIDTH 12 0
BBX 12 12 0 -2
BITMAP
0000
1ff0
3ff0
7fe0
3ff0
3fe0
2fe0
6ff0
3ff0
6fe0
7ff0
1a70
ENDCHAR
STARTCHAR 02-81-66
ENCODING 29026
SWIDTH 960 0
DWIDTH 12 0
BBX 12 12 0 -2
BITMAP
0000
0200
3ff0
6440
2fe0
27e0
27e0
7ff0
2200
6ff0
7880
0ff0
ENDCHAR
STARTCHAR 02-81-67
ENCODING 29027
SWIDTH 960 0
DWIDTH 12 0
BBX 12 12 0 -2
BITMAP
0000
1ff0
3ff0
67c0
27f0
3be0
3fe0
7fe0
3fe0
7fe0
6ff0
0c30
ENDCHAR
STARTCHAR 02-81-68
ENCODING 29028
SWIDTH 960 0
DWIDTH 12 0
BBX 12 12 0 -2
BITMAP
0000
0200
3ff0
6fe0
2fe0
2fe0
2fe0
6fe0
2fe0
7ff0
6ee0
1c70
ENDCHAR
STARTCHAR 02-81-69
ENCODING 29029
SWIDTH 960 0
DWIDTH 12 0
BBX 12 12 0 -2
BITMAP
0000
1ff0
3ff0
7ff0
2ef0
2770
2b80
67c0
3ff0
66c0
67e0
0fc0
ENDCHAR
STARTCHAR 02-81-70
ENCODING 29030
SWIDTH 960 0
DWIDTH 12 0
BBX 12 12 0 -2
BITMAP
0000
0200
3ff0
6ff0
3ff0
3bc0
3bc0
7bc0
3ff0
7df0
7fe0
1ff0
ENDCHAR
STARTCHAR 02-81-71
ENCODING 29031
SWIDTH 960 0
DWIDTH 12 0
BBX 12 12 0 -2
BITMAP
0000
0200
3ff0
6fe0
2fe0
2fe0
3ff0
7fe0
2fe0
6fe0
6fe0
0ff0
ENDCHAR
STARTCHAR 02-81-72
ENCODING 29032
SWIDTH 960 0
DWIDTH 12 0
BBX 12 12 0 -2
BITMAP
0000
0200
3ff0
6df0
3ff0
39f0
2df0
7df0
39e0
69f0
6fe0
0ff0
ENDCHAR
STARTCHAR 02-81-73
ENCODING 29033
SWIDTH 960 0
DWIDTH 12 0
BBX 12 12 0 -2
BITMAP
0000
0200
3ff0
6460
3ee0
3fb0
3ff0
7ff0
3e60
6ed0
7e70
05e0
ENDCHAR
STARTCHAR 02-81-74
ENCODING 29034
SWIDTH 960 0
DWIDTH 12 0
BBX 12 12 0 -2
BITMAP
0000
1ff0
3ff0
6fe0
2fe0
27c0
2fe0
6fe0
2fe0
6fe0
7ff0
0100
ENDCHAR
STARTCHAR 02-81-75
ENCODING 29035
SWIDTH 960 0
DWIDTH 12 0
BBX 12 12 0 -2
BITMAP
0000
0200
3ff0
6100
3ff0
2de0
2bf0
7ff0
2be0
7ff0
6df0
19f0
ENDCHAR
STARTCHAR 02-81-76
ENCODING 29036
SWIDTH 960 0
DWIDTH 12 0
BBX 12 12 0 -2
BITMAP
0000
1ff0
3ff0
6ff0
2cf0
3ff0
2ff0
7590
2af0
6e90
6ff0
1b90
ENDCHAR
STARTCHAR 02-81-77
ENCODING 29037
SWIDTH 960 0
DWIDTH 12 0
BBX 12 12 0 -2
BITMAP
0000
1ff0
3ff0
7fe0
3bd0
3df0
3ff0
7bf0
3ff0
7df0
7bf0
1af0
ENDCHAR
STARTCHAR 02-81-78
ENCODING 29038
SWIDTH 960 0
DWIDTH 12 0
BBX 12 12 0 -2
BITMAP
0000
7df0
7df0
18c0
3de0
6530
6530
6530
7df0
6530
6530
7df0
ENDCHAR
STARTCHAR 02-81-79
ENCODING 29039
SWIDTH 960 0
DWIDTH 12 0
BBX 12 12 0 -2
BITMAP
0000
1080
37f0
79e0
5be0
5be0
7ff0
5dd0
5dd0
5d50
7dd0
0430
ENDCHAR
STARTCHAR 02-81-80
ENCODING 29040
SWIDTH 960 0
DWIDTH 12 0
BBX 12 12 0 -2
BITMAP
0000
1180
33e0
7be0
5be0
5be0
7ee0
5ee0
5fe0
5ff0
7880
0080
ENDCHAR
STARTCHAR 02-81-81
ENCODING 29041
SWIDTH 960 0
DWIDTH 12 0
BBX 12 12 0 -2
BITMAP
0000
10d0
32d0
7bf0
5ac0
5bf0
7ec0
5ff0
5ac0
5bf0
7ac0
03f0
ENDCHAR
STARTCHAR 02-81-82
ENCODING 29042
SWIDTH 960 0
DWIDTH 12 0
BBX 12 12 0 -2
BITMAP
0000
27f0
6fe0
77f0
5ff0
56b0
7ff0
53c0
57e0
5ec0
73e0
0f70
ENDCHAR
STARTCHAR 02-81-83
ENCODING 29043
SWIDTH 960 0
DWIDTH 12 0
BBX 12 12 0 -2
BITMAP
0000
0f80
1fc0
1fc0
1fc0
1dc0
7df0
7df0
7df0
3fe0
3fe0
7ff0
ENDCHAR
STARTCHAR 02-81-84
ENCODING 29044
SWIDTH 960 0
DWIDTH 12 0
BBX 12 12 0 -2
BITMAP
0000
13f0
3bf0
78c0
78c0
78c0
6ff0
78c0
78c0
78c0
7cc0
74c0
ENDCHAR
STARTCHAR 02-81-85
ENCODING 29045
SWIDTH 960 0
DWIDTH 12 0
BBX 12 12 0 -2
BITMAP
0000
0400
7ff0
0400
0f80
0cc0
3f80
7780
1fe0
3fe0
2920
7ff0
ENDCHAR
STARTCHAR 02-81-86
ENCODING 29046
SWIDTH 960 0
DWIDTH 12 0
BBX 12 12 0 -2
BITMAP
0000
01e0
3fc0
7ff0
7ff0
1ec0
7af0
2220
3fe0
2920
2920
7ff0
ENDCHAR
STARTCHAR 02-81-87
ENCODING 29047
SWIDTH 960 0
DWIDTH 12 0
BBX 12 12 0 -2
BITMAP
0000
1fc0
1fc0
1640
1740
1dc0
1fc0
1fc0
3fe0
2920
2920
7ff0
ENDCHAR
STARTCHAR 02-81-88
ENCODING 29048
SWIDTH 960 0
DWIDTH 12 0
BBX 12 12 0 -2
BITMAP
0000
1ff0
73e0
1bf0
33f0
6ff0
1ff0
3360
6630
3fe0
2920
7ff0
ENDCHAR
STARTCHAR 02-81-89
ENCODING 29049
SWIDTH 960 0
DWIDTH 12 0
BBX 12 12 0 -2
BITMAP
0000
79e0
7be0
7bf0
7ff0
48c0
7bf0
5330
7be0
3fe0
2920
7ff0
ENDCHAR
STARTCHAR 02-81-90
ENCODING 29050
SWIDTH 960 0
DWIDTH 12 0
BBX 12 12 0 -2
BITMAP
0000
7880
4880
4ff0
7ff0
4bc0
7be0
4ea0
4ea0
7cb0
4880
0080
ENDCHAR
STARTCHAR 02-81-91
ENCODING 29051
SWIDTH 960 0
DWIDTH 12 0
BBX 12 12 0 -2
BITMAP
0000
7a00
4a00
4bf0
7e30
4bf0
7af0
4af0
4bf0
79b0
4830
00e0
ENDCHAR
STARTCHAR 02-81-92
ENCODING 29052
SWIDTH 960 0
DWIDTH 12 0
BBX 12 12 0 -2
BITMAP
0000
1200
3fe0
7fc0
1fc0
7ff0
1fc0
1fc0
1fc0
1fc0
1fc0
1fc0
ENDCHAR
STARTCHAR 02-81-93
ENCODING 29053
SWIDTH 960 0
DWIDTH 12 0
BBX 12 12 0 -2
BITMAP
0000
7880
4be0
4880
7880
4ff0
7880
4980
4be0
7880
4ff0
07f0
ENDCHAR
STARTCHAR 02-81-94
ENCODING 29054
SWIDTH 960 0
DWIDTH 12 0
BBX 12 12 0 -2
BITMAP
0000
7900
49e0
4b60
7fe0
49c0
7ff0
48f0
4bf0
7970
48e0
03c0
ENDCHAR
STARTCHAR 02-82-01
ENCODING 29217
SWIDTH 960 0
DWIDTH 12 0
BBX 12 12 0 -2
BITMAP
0000
7ae0
4af0
4ab0
7af0
4ab0
7ab0
48f0
4a00
7ac0
4ed0
0c70
ENDCHAR
STARTCHAR 02-82-02
ENCODING 29218
SWIDTH 960 0
DWIDTH 12 0
BBX 12 12 0 -2
BITMAP
0000
7880
4ff0
48a0
7aa0
4ea0
7ff0
4dd0
4bc0
7b40
4e60
0430
ENDCHAR
STARTCHAR 02-82-03
ENCODING 29219
SWIDTH 960 0
DWIDTH 12 0
BBX 12 12 0 -2
BITMAP
0000
7980
4bc0
4e70
7ff0
4be0
7ff0
4cb0
4ff0
7fe0
4be0
0670
ENDCHAR
STARTCHAR 02-82-04
ENCODING 29220
SWIDTH 960 0
DWIDTH 12 0
BBX 12 12 0 -2
BITMAP
0000
7880
48f0
4be0
7bf0
4a30
7bf0
4a30
4be0
7ff0
4880
0080
ENDCHAR
STARTCHAR 02-82-05
ENCODING 29221
SWIDTH 960 0
DWIDTH 12 0
BBX 12 12 0 -2
BITMAP
0000
1fc0
3fe0
3fe0
3fe0
7ff0
1fc0
1fc0
1fe0
1fc0
7fc0
1ef0
ENDCHAR
STARTCHAR 02-82-06
ENCODING 29222
SWIDTH 960 0
DWIDTH 12 0
BBX 12 12 0 -2
BITMAP
0000
7aa0
4cb0
4ff0
79c0
4ff0
7a60
4ff0
4e70
7ac0
4a30
03e0
ENDCHAR
STARTCHAR 02-82-07
ENCODING 29223
SWIDTH 960 0
DWIDTH 12 0
BBX 12 12 0 -2
BITMAP
0000
7ff0
6930
7ff0
3fe0
3fe0
7ff0
1980
3fe0
3fe0
0200
0200
ENDCHAR
STARTCHAR 02-82-08
ENCODING 29224
SWIDTH 960 0
DWIDTH 12 0
BBX 12 12 0 -2
BITMAP
0000
7a40
4fe0
4b40
7ff0
4fe0
7ff0
4ff0
4ff0
7ff0
4c30
0470
ENDCHAR
STARTCHAR 02-82-09
ENCODING 29225
SWIDTH 960 0
DWIDTH 12 0
BBX 12 12 0 -2
BITMAP
0000
7bc0
4be0
4be0
7a20
4be0
7a80
4ff0
4fe0
7bc0
4ff0
07f0
ENDCHAR
STARTCHAR 02-82-10
ENCODING 29226
SWIDTH 960 0
DWIDTH 12 0
BBX 12 12 0 -2
BITMAP
0000
7bc0
4be0
4be0
7a20
4be0
7ff0
4f80
4ae0
7ee0
4f80
0df0
ENDCHAR
STARTCHAR 02-82-11
ENCODING 29227
SWIDTH 960 0
DWIDTH 12 0
BBX 12 12 0 -2
BITMAP
0000
7fb0
4ff0
4ff0
7e60
4e30
7be0
4980
4ff0
79c0
4be0
0e70
ENDCHAR
STARTCHAR 02-82-12
ENCODING 29228
SWIDTH 960 0
DWIDTH 12 0
BBX 12 12 0 -2
BITMAP
0000
7a40
4ff0
4bc0
7980
4bc0
7ff0
4800
4be0
7be0
4a20
03e0
ENDCHAR
STARTCHAR 02-82-13
ENCODING 29229
SWIDTH 960 0
DWIDTH 12 0
BBX 12 12 0 -2
BITMAP
0000
79c0
4be0
4f60
7fc0
4f80
7fe0
4d80
4ff0
7ff0
4cb0
07f0
ENDCHAR
STARTCHAR 02-82-14
ENCODING 29230
SWIDTH 960 0
DWIDTH 12 0
BBX 12 12 0 -2
BITMAP
0000
7880
4ff0
4ff0
7bf0
4bf0
7ab0
4bf0
4ab0
7bf0
4a20
0430
ENDCHAR
STARTCHAR 02-82-15
ENCODING 29231
SWIDTH 960 0
DWIDTH 12 0
BBX 12 12 0 -2
BITMAP
0000
7ff0
4ff0
4ff0
7d50
4ff0
7be0
4be0
4ff0
7aa0
4eb0
0790
ENDCHAR
STARTCHAR 02-82-16
ENCODING 29232
SWIDTH 960 0
DWIDTH 12 0
BBX 12 12 0 -2
BITMAP
0000
7ff0
7ff0
3fe0
3fe0
3fe0
7ff0
7ff0
1fc0
1fc0
1fc0
1fc0
ENDCHAR
STARTCHAR 02-82-17
ENCODING 29233
SWIDTH 960 0
DWIDTH 12 0
BBX 12 12 0 -2
BITMAP
0000
7770
57f0
57f0
77f0
57d0
77d0
5590
57d0
7490
57f0
0430
ENDCHAR
STARTCHAR 02-82-18
ENCODING 29234
SWIDTH 960 0
DWIDTH 12 0
BBX 12 12 0 -2
BITMAP
0000
77f0
57f0
57f0
77e0
55e0
77f0
57f0
57f0
77f0
57f0
07b0
ENDCHAR
STARTCHAR 02-82-19
ENCODING 29235
SWIDTH 960 0
DWIDTH 12 0
BBX 12 12 0 -2
BITMAP
0000
1f80
0f80
7ff0
0e60
7200
3fe0
6df0
69b0
6fb0
68f0
6ff0
ENDCHAR
STARTCHAR 02-82-20
ENCODING 29236
SWIDTH 960 0
DWIDTH 12 0
BBX 12 12 0 -2
BITMAP
0000
7fc0
27e0
1af0
13e0
7f30
17f0
3730
3bf0
53f0
1230
3270
ENDCHAR
STARTCHAR 02-82-21
ENCODING 29237
SWIDTH 960 0
DWIDTH 12 0
BBX 12 12 0 -2
BITMAP
0000
7200
7a00
1bf0
3e80
6580
6ff0
79c0
1bc0
1b40
1e60
7c30
ENDCHAR
STARTCHAR 02-82-22
ENCODING 29238
SWIDTH 960 0
DWIDTH 12 0
BBX 12 12 0 -2
BITMAP
0000
1f80
1f80
7ff0
7ff0
27c0
2d00
3ff0
2380
6380
66c0
4c60
ENDCHAR
STARTCHAR 02-82-23
ENCODING 29239
SWIDTH 960 0
DWIDTH 12 0
BBX 12 12 0 -2
BITMAP
0000
20c0
3c80
53e0
53a0
13e0
7ff0
13e0
33a0
2ae0
2ae0
46e0
ENDCHAR
STARTCHAR 02-82-24
ENCODING 29240
SWIDTH 960 0
DWIDTH 12 0
BBX 12 12 0 -2
BITMAP
0000
2080
3aa0
52a0
57e0
17f0
7990
1180
37e0
2880
2880
47f0
ENDCHAR
STARTCHAR 02-82-25
ENCODING 29241
SWIDTH 960 0
DWIDTH 12 0
BBX 12 12 0 -2
BITMAP
0000
21e0
3bf0
53f0
53f0
1330
7ff0
1330
33e0
28c0
29d0
4770
ENDCHAR
STARTCHAR 02-82-26
ENCODING 29242
SWIDTH 960 0
DWIDTH 12 0
BBX 12 12 0 -2
BITMAP
0000
21e0
3b20
57f0
53f0
13f0
7ff0
13f0
33f0
2bf0
2a30
47f0
ENDCHAR
STARTCHAR 02-82-27
ENCODING 29243
SWIDTH 960 0
DWIDTH 12 0
BBX 12 12 0 -2
BITMAP
0000
7c00
13f0
10c0
10c0
38c0
28c0
68c0
28c0
38c0
20c0
01c0
ENDCHAR
STARTCHAR 02-82-28
ENCODING 29244
SWIDTH 960 0
DWIDTH 12 0
BBX 12 12 0 -2
BITMAP
0000
7d00
11f0
1300
1200
3bf0
2860
68c0
2980
3b00
2310
01f0
ENDCHAR
STARTCHAR 02-82-29
ENCODING 29245
SWIDTH 960 0
DWIDTH 12 0
BBX 12 12 0 -2
BITMAP
0000
7de0
13f0
1230
1230
3bf0
2ac0
6ac0
2ac0
3a60
2220
0430
ENDCHAR
STARTCHAR 02-82-30
ENCODING 29246
SWIDTH 960 0
DWIDTH 12 0
BBX 12 12 0 -2
BITMAP
0000
7c80
1080
1690
17b0
3be0
2bc0
6ae0
2aa0
38b0
2490
0380
ENDCHAR
STARTCHAR 02-82-31
ENCODING 29247
SWIDTH 960 0
DWIDTH 12 0
BBX 12 12 0 -2
BITMAP
0000
7cc0
10c0
13f0
10c0
38c0
2ff0
68c0
28c0
39e0
2120
0330
ENDCHAR
STARTCHAR 02-82-32
ENCODING 29248
SWIDTH 960 0
DWIDTH 12 0
BBX 12 12 0 -2
BITMAP
0000
03e0
3fe0
3fe0
3fe0
7e00
0200
7ff0
0fe0
3fe0
7820
1fe0
ENDCHAR
STARTCHAR 02-82-33
ENCODING 29249
SWIDTH 960 0
DWIDTH 12 0
BBX 12 12 0 -2
BITMAP
0000
7a00
1200
13f0
12b0
3eb0
2880
69c0
2bc0
3b40
2660
0430
ENDCHAR
STARTCHAR 02-82-34
ENCODING 29250
SWIDTH 960 0
DWIDTH 12 0
BBX 12 12 0 -2
BITMAP
0000
7ff0
13f0
1200
13e0
3b20
2ba0
6be0
2ae0
3a20
23b0
0330
ENDCHAR
STARTCHAR 02-82-35
ENCODING 29251
SWIDTH 960 0
DWIDTH 12 0
BBX 12 12 0 -2
BITMAP
0000
7de0
11e0
10c0
10c0
38c0
2be0
68c0
28e0
38f0
23f0
03f0
ENDCHAR
STARTCHAR 02-82-36
ENCODING 29252
SWIDTH 960 0
DWIDTH 12 0
BBX 12 12 0 -2
BITMAP
0000
7c80
1080
13f0
1220
3a20
2b20
6960
2940
3940
27f0
07f0
ENDCHAR
STARTCHAR 02-82-37
ENCODING 29253
SWIDTH 960 0
DWIDTH 12 0
BBX 12 12 0 -2
BITMAP
0000
7d80
1380
13f0
13f0
3a30
2bf0
6ad0
2bf0
3b70
2210
03f0
ENDCHAR
STARTCHAR 02-82-38
ENCODING 29254
SWIDTH 960 0
DWIDTH 12 0
BBX 12 12 0 -2
BITMAP
0000
7cc0
13f0
10c0
12f0
3bf0
2ff0
69c0
28c0
39e0
2120
0330
ENDCHAR
STARTCHAR 02-82-39
ENCODING 29255
SWIDTH 960 0
DWIDTH 12 0
BBX 12 12 0 -2
BITMAP
0000
79e0
16f0
12c0
17f0
3fc0
2af0
6fe0
2ee0
3a50
2270
07b0
ENDCHAR
STARTCHAR 02-82-40
ENCODING 29256
SWIDTH 960 0
DWIDTH 12 0
BBX 12 12 0 -2
BITMAP
0000
18c0
7ff0
3de0
3fe0
7bf0
0880
7ff0
0fe0
3fe0
7820
1fe0
ENDCHAR
STARTCHAR 02-82-41
ENCODING 29257
SWIDTH 960 0
DWIDTH 12 0
BBX 12 12 0 -2
BITMAP
0000
7d40
11e0
13a0
10e0
39f0
2f70
6960
2fe0
3ff0
21f0
0770
ENDCHAR
STARTCHAR 02-82-42
ENCODING 29258
SWIDTH 960 0
DWIDTH 12 0
BBX 12 12 0 -2
BITMAP
0000
7b70
13d0
17f0
17f0
3940
2fc0
6f40
2f70
3ff0
2730
0430
ENDCHAR
STARTCHAR 02-82-43
ENCODING 29259
SWIDTH 960 0
DWIDTH 12 0
BBX 12 12 0 -2
BITMAP
0000
7d20
13f0
1120
11a0
3bf0
2af0
6bf0
2ff0
39e0
2120
0330
ENDCHAR
STARTCHAR 02-82-44
ENCODING 29260
SWIDTH 960 0
DWIDTH 12 0
BBX 12 12 0 -2
BITMAP
0000
7ff0
1180
13f0
1350
3f50
2fd0
6d80
2ff0
3bc0
2260
0670
ENDCHAR
STARTCHAR 02-82-45
ENCODING 29261
SWIDTH 960 0
DWIDTH 12 0
BBX 12 12 0 -2
BITMAP
0000
0fc0
08c0
0f80
3fe0
2730
3ff0
3fe0
3ff0
1fe0
3820
2fe0
ENDCHAR
STARTCHAR 02-82-46
ENCODING 29262
SWIDTH 960 0
DWIDTH 12 0
BBX 12 12 0 -2
BITMAP
0000
7aa0
17f0
12a0
12e0
3fe0
2fe0
6ff0
2bc0
3fe0
26b0
0490
ENDCHAR
STARTCHAR 02-82-47
ENCODING 29263
SWIDTH 960 0
DWIDTH 12 0
BBX 12 12 0 -2
BITMAP
0000
7cc0
13f0
11e0
13f0
3bf0
2bf0
6bf0
2bf0
3b30
23f0
0230
ENDCHAR
STARTCHAR 02-82-48
ENCODING 29264
SWIDTH 960 0
DWIDTH 12 0
BBX 12 12 0 -2
BITMAP
0000
7d80
13e0
12b0
13f0
3fb0
2ff0
6be0
2af0
3af0
26d0
0670
ENDCHAR
STARTCHAR 02-82-49
ENCODING 29265
SWIDTH 960 0
DWIDTH 12 0
BBX 12 12 0 -2
BITMAP
0000
7fe0
13e0
11f0
13e0
3bf0
2bf0
6bf0
2bf0
3be0
23f0
0330
ENDCHAR
STARTCHAR 02-82-50
ENCODING 29266
SWIDTH 960 0
DWIDTH 12 0
BBX 12 12 0 -2
BITMAP
0000
78f0
17e0
15b0
1580
3b40
2ba0
6bf0
2fb0
3ff0
23e0
0670
ENDCHAR
STARTCHAR 02-82-51
ENCODING 29267
SWIDTH 960 0
DWIDTH 12 0
BBX 12 12 0 -2
BITMAP
0000
7880
17e0
1080
17f0
3b20
2ae0
6ff0
2fe0
3ff0
25f0
07f0
ENDCHAR
STARTCHAR 02-82-52
ENCODING 29268
SWIDTH 960 0
DWIDTH 12 0
BBX 12 12 0 -2
BITMAP
0000
7c80
10e0
1080
17e0
3ff0
2ff0
6df0
2fb0
3df0
26f0
07f0
ENDCHAR
STARTCHAR 02-82-53
ENCODING 29269
SWIDTH 960 0
DWIDTH 12 0
BBX 12 12 0 -2
BITMAP
0000
7d40
17c0
1770
1770
3f50
2fd0
6f50
2fd0
3d50
27d0
07f0
ENDCHAR
STARTCHAR 02-82-54
ENCODING 29270
SWIDTH 960 0
DWIDTH 12 0
BBX 12 12 0 -2
BITMAP
0000
7ff0
17f0
17f0
1550
3ff0
2be0
6be0
2ff0
3aa0
26b0
0790
ENDCHAR
STARTCHAR 02-82-55
ENCODING 29271
SWIDTH 960 0
DWIDTH 12 0
BBX 12 12 0 -2
BITMAP
0000
7ff0
17f0
17f0
17f0
3be0
2be0
6be0
2be0
3be0
27f0
0080
ENDCHAR
STARTCHAR 02-82-56
ENCODING 29272
SWIDTH 960 0
DWIDTH 12 0
BBX 12 12 0 -2
BITMAP
0000
7fe0
17e0
13c0
17f0
3fe0
2ff0
6ff0
2cb0
3ff0
2620
0430
ENDCHAR
STARTCHAR 02-82-57
ENCODING 29273
SWIDTH 960 0
DWIDTH 12 0
BBX 12 12 0 -2
BITMAP
0000
7870
17e0
13b0
17f0
3be0
2ff0
6ab0
2bf0
3bf0
22b0
03f0
ENDCHAR
STARTCHAR 02-82-58
ENCODING 29274
SWIDTH 960 0
DWIDTH 12 0
BBX 12 12 0 -2
BITMAP
0000
7f70
1770
13e0
13f0
3bb0
2bf0
6bb0
2be0
3ff0
2080
0080
ENDCHAR
STARTCHAR 02-82-59
ENCODING 29275
SWIDTH 960 0
DWIDTH 12 0
BBX 12 12 0 -2
BITMAP
0000
7840
11e0
11f0
17f0
3df0
29f0
69f0
2ff0
3ff0
21b0
0030
ENDCHAR
STARTCHAR 02-82-60
ENCODING 29276
SWIDTH 960 0
DWIDTH 12 0
BBX 12 12 0 -2
BITMAP
0000
1d40
3760
3de0
3de0
2720
3fe0
7ff0
3fe0
1fc0
7840
7fc0
ENDCHAR
STARTCHAR 02-82-61
ENCODING 29277
SWIDTH 960 0
DWIDTH 12 0
BBX 12 12 0 -2
BITMAP
0000
7f40
17c0
17f0
1780
3f80
2ef0
6f80
2be0
3bf0
23f0
07f0
ENDCHAR
STARTCHAR 02-82-62
ENCODING 29278
SWIDTH 960 0
DWIDTH 12 0
BBX 12 12 0 -2
BITMAP
0000
7ff0
17f0
17f0
17f0
3fe0
2fc0
6880
2ee0
3ee0
2280
07f0
ENDCHAR
STARTCHAR 02-82-63
ENCODING 29279
SWIDTH 960 0
DWIDTH 12 0
BBX 12 12 0 -2
BITMAP
0000
7ff0
1750
1770
1760
3fd0
2be0
6be0
2be0
3be0
23e0
07f0
ENDCHAR
STARTCHAR 02-82-64
ENCODING 29280
SWIDTH 960 0
DWIDTH 12 0
BBX 12 12 0 -2
BITMAP
0000
0200
0200
1fc0
0180
0300
0600
0f00
3fc0
12c0
0200
0200
ENDCHAR
STARTCHAR 02-82-65
ENCODING 29281
SWIDTH 960 0
DWIDTH 12 0
BBX 12 12 0 -2
BITMAP
0000
3880
0080
03f0
7d00
1100
11f0
3930
3530
5730
5220
12e0
ENDCHAR
STARTCHAR 02-82-66
ENCODING 29282
SWIDTH 960 0
DWIDTH 12 0
BBX 12 12 0 -2
BITMAP
0000
39e0
01e0
0000
7c00
13f0
10c0
39e0
37e0
57f0
52f0
11c0
ENDCHAR
STARTCHAR 02-82-67
ENCODING 29283
SWIDTH 960 0
DWIDTH 12 0
BBX 12 12 0 -2
BITMAP
0000
3880
0080
03f0
7c80
1080
13f0
3900
3720
5720
53f0
1330
ENDCHAR
STARTCHAR 02-82-68
ENCODING 29284
SWIDTH 960 0
DWIDTH 12 0
BBX 12 12 0 -2
BITMAP
0000
1240
1ac0
3fe0
0d80
7ff0
18c0
3fe0
7ff0
1fc0
32e0
7e70
ENDCHAR
STARTCHAR 02-82-69
ENCODING 29285
SWIDTH 960 0
DWIDTH 12 0
BBX 12 12 0 -2
BITMAP
0000
3940
0150
0370
7f60
1140
1160
3b70
3750
5740
5250
1270
ENDCHAR
STARTCHAR 02-82-70
ENCODING 29286
SWIDTH 960 0
DWIDTH 12 0
BBX 12 12 0 -2
BITMAP
0000
3bc0
03e0
03f0
7fe0
13e0
13f0
3bf0
3760
55c0
51e0
1370
ENDCHAR
STARTCHAR 02-82-71
ENCODING 29287
SWIDTH 960 0
DWIDTH 12 0
BBX 12 12 0 -2
BITMAP
0000
39c0
03e0
03e0
7e20
13e0
13f0
3b80
36e0
56e0
5380
11f0
ENDCHAR
STARTCHAR 02-82-72
ENCODING 29288
SWIDTH 960 0
DWIDTH 12 0
BBX 12 12 0 -2
BITMAP
0000
3bc0
03e0
03f0
7ff0
13e0
13e0
3be0
37e0
5640
53f0
1040
ENDCHAR
STARTCHAR 02-82-73
ENCODING 29289
SWIDTH 960 0
DWIDTH 12 0
BBX 12 12 0 -2
BITMAP
0000
3a20
03f0
03e0
7fe0
1360
13e0
3bf0
37e0
57e0
52b0
1090
ENDCHAR
STARTCHAR 02-82-74
ENCODING 29290
SWIDTH 960 0
DWIDTH 12 0
BBX 12 12 0 -2
BITMAP
0000
3bf0
03f0
01f0
7fe0
13f0
13f0
3bf0
37f0
57e0
53f0
1330
ENDCHAR
STARTCHAR 02-82-75
ENCODING 29291
SWIDTH 960 0
DWIDTH 12 0
BBX 12 12 0 -2
BITMAP
0000
3be0
03e0
03c0
7fe0
12c0
13e0
3ac0
37f0
57f0
53b0
1030
ENDCHAR
STARTCHAR 02-82-76
ENCODING 29292
SWIDTH 960 0
DWIDTH 12 0
BBX 12 12 0 -2
BITMAP
0000
3be0
03f0
03f0
7ff0
13b0
13e0
3bf0
3540
57f0
5160
1370
ENDCHAR
STARTCHAR 02-82-77
ENCODING 29293
SWIDTH 960 0
DWIDTH 12 0
BBX 12 12 0 -2
BITMAP
0000
38c0
01e0
03f0
7ed0
13f0
13f0
3bf0
37f0
57f0
52d0
12f0
ENDCHAR
STARTCHAR 02-82-78
ENCODING 29294
SWIDTH 960 0
DWIDTH 12 0
BBX 12 12 0 -2
BITMAP
0000
0200
7ff0
1dc0
1fc0
1dc0
1fc0
1fc0
7ff0
6d30
6fb0
6cf0
ENDCHAR
STARTCHAR 02-82-79
ENCODING 29295
SWIDTH 960 0
DWIDTH 12 0
BBX 12 12 0 -2
BITMAP
0000
01e0
3fc0
7ff0
7ff0
1ec0
7af0
0600
0700
0d00
19c0
70f0
ENDCHAR
STARTCHAR 02-82-80
ENCODING 29296
SWIDTH 960 0
DWIDTH 12 0
BBX 12 12 0 -2
BITMAP
0000
0d00
7100
13c0
7fc0
1140
3b40
3740
57c0
53c0
1250
1270
ENDCHAR
STARTCHAR 02-82-81
ENCODING 29297
SWIDTH 960 0
DWIDTH 12 0
BBX 12 12 0 -2
BITMAP
0000
1070
13e0
14c0
7ff0
70c0
50c0
11e0
3be0
3ff0
68c0
60c0
ENDCHAR
STARTCHAR 02-82-82
ENCODING 29298
SWIDTH 960 0
DWIDTH 12 0
BBX 12 12 0 -2
BITMAP
0000
0cc0
70c0
13f0
7ed0
12d0
3ad0
37f0
54c0
50c0
10c0
10c0
ENDCHAR
STARTCHAR 02-82-83
ENCODING 29299
SWIDTH 960 0
DWIDTH 12 0
BBX 12 12 0 -2
BITMAP
0000
0c70
73e0
12c0
7ec0
12c0
3bf0
36c0
5640
5260
13b0
1330
ENDCHAR
STARTCHAR 02-82-84
ENCODING 29300
SWIDTH 960 0
DWIDTH 12 0
BBX 12 12 0 -2
BITMAP
0000
1240
1ac0
3fe0
0700
7ff0
1bc0
3f60
7ff0
1fc0
1ec0
7270
ENDCHAR
STARTCHAR 02-82-85
ENCODING 29301
SWIDTH 960 0
DWIDTH 12 0
BBX 12 12 0 -2
BITMAP
0000
0e60
7260
13f0
7e40
1240
3bf0
3740
5640
5240
1240
1040
ENDCHAR
STARTCHAR 02-82-86
ENCODING 29302
SWIDTH 960 0
DWIDTH 12 0
BBX 12 12 0 -2
BITMAP
0000
0cc0
72c0
13f0
7ec0
12c0
3bf0
3400
57f0
5230
1230
13f0
ENDCHAR
STARTCHAR 02-82-87
ENCODING 29303
SWIDTH 960 0
DWIDTH 12 0
BBX 12 12 0 -2
BITMAP
0000
0fe0
73f0
13f0
7fe0
1270
3bc0
36f0
57f0
53f0
12d0
1070
ENDCHAR
STARTCHAR 02-82-88
ENCODING 29304
SWIDTH 960 0
DWIDTH 12 0
BBX 12 12 0 -2
BITMAP
0000
0f60
7160
13f0
7cb0
13f0
3a80
37f0
5590
53b0
13f0
10e0
ENDCHAR
STARTCHAR 02-82-89
ENCODING 29305
SWIDTH 960 0
DWIDTH 12 0
BBX 12 12 0 -2
BITMAP
0000
0cc0
73e0
10c0
7ff0
1120
3b30
34c0
57e0
51e0
13f0
13f0
ENDCHAR
STARTCHAR 02-82-90
ENCODING 29306
SWIDTH 960 0
DWIDTH 12 0
BBX 12 12 0 -2
BITMAP
0000
0c80
73f0
11e0
7fe0
13e0
3be0
34e0
57f0
53f0
1080
1380
ENDCHAR
STARTCHAR 02-82-91
ENCODING 29307
SWIDTH 960 0
DWIDTH 12 0
BBX 12 12 0 -2
BITMAP
0000
0ff0
73f0
13f0
7fd0
13f0
3ad0
37f0
57f0
52d0
13f0
13f0
ENDCHAR
STARTCHAR 02-82-92
ENCODING 29308
SWIDTH 960 0
DWIDTH 12 0
BBX 12 12 0 -2
BITMAP
0000
0fe0
73f0
13f0
7ff0
13b0
3be0
37f0
57e0
53e0
12b0
1090
ENDCHAR
STARTCHAR 02-82-93
ENCODING 29309
SWIDTH 960 0
DWIDTH 12 0
BBX 12 12 0 -2
BITMAP
0000
0d80
73e0
13e0
7fe0
1260
3be0
37f0
57e0
53c0
13f0
13f0
ENDCHAR
STARTCHAR 02-82-94
ENCODING 29310
SWIDTH 960 0
DWIDTH 12 0
BBX 12 12 0 -2
BITMAP
0000
0ed0
73f0
12c0
7ed0
1370
3a80
37f0
5630
53f0
1230
13f0
ENDCHAR
STARTCHAR 02-83-01
ENCODING 29473
SWIDTH 960 0
DWIDTH 12 0
BBX 12 12 0 -2
BITMAP
0000
0c80
73f0
11c0
7fe0
13f0
3bf0
37f0
56b0
53f0
12b0
13f0
ENDCHAR
STARTCHAR 02-83-02
ENCODING 29474
SWIDTH 960 0
DWIDTH 12 0
BBX 12 12 0 -2
BITMAP
0000
0dc0
71c0
13e0
7ff0
10c0
3be0
37b0
57c0
51f0
1360
13c0
ENDCHAR
STARTCHAR 02-83-03
ENCODING 29475
SWIDTH 960 0
DWIDTH 12 0
BBX 12 12 0 -2
BITMAP
0000
3c70
3de0
7c40
7ff0
7e40
7ee0
7ef0
3ef0
7f40
7e40
5040
ENDCHAR
STARTCHAR 02-83-04
ENCODING 29476
SWIDTH 960 0
DWIDTH 12 0
BBX 12 12 0 -2
BITMAP
0000
0eb0
77f0
16b0
7ff0
17a0
37f0
3df0
5ee0
5640
16f0
1330
ENDCHAR
STARTCHAR 02-83-05
ENCODING 29477
SWIDTH 960 0
DWIDTH 12 0
BBX 12 12 0 -2
BITMAP
0000
0cd0
73f0
13f0
7ff0
11e0
3bf0
37f0
57f0
53f0
11e0
1330
ENDCHAR
STARTCHAR 02-83-06
ENCODING 29478
SWIDTH 960 0
DWIDTH 12 0
BBX 12 12 0 -2
BITMAP
0000
0c80
73e0
1360
7ff0
13e0
3be0
37e0
57e0
53e0
13e0
13f0
ENDCHAR
STARTCHAR 02-83-07
ENCODING 29479
SWIDTH 960 0
DWIDTH 12 0
BBX 12 12 0 -2
BITMAP
0000
0de0
7730
17f0
7e90
17f0
36c0
3f60
5af0
5740
16c0
15f0
ENDCHAR
STARTCHAR 02-83-08
ENCODING 29480
SWIDTH 960 0
DWIDTH 12 0
BBX 12 12 0 -2
BITMAP
0000
0de0
73f0
13f0
7ff0
13f0
3bf0
37f0
57f0
53f0
13e0
1370
ENDCHAR
STARTCHAR 02-83-09
ENCODING 29481
SWIDTH 960 0
DWIDTH 12 0
BBX 12 12 0 -2
BITMAP
0000
0c80
73f0
13f0
7ff0
13f0
3af0
3430
57f0
53f0
1030
1030
ENDCHAR
STARTCHAR 02-83-10
ENCODING 29482
SWIDTH 960 0
DWIDTH 12 0
BBX 12 12 0 -2
BITMAP
0000
0ff0
77f0
17f0
7ff0
17f0
37f0
3db0
5ff0
57f0
14b0
14b0
ENDCHAR
STARTCHAR 02-83-11
ENCODING 29483
SWIDTH 960 0
DWIDTH 12 0
BBX 12 12 0 -2
BITMAP
0000
0200
3fe0
68b0
38f0
79c0
1fc0
0700
1e00
3800
3030
1fe0
ENDCHAR
STARTCHAR 02-83-12
ENCODING 29484
SWIDTH 960 0
DWIDTH 12 0
BBX 12 12 0 -2
BITMAP
0000
0200
3fe0
68b0
38f0
6200
07e0
1c60
3c60
06c0
0f80
7e00
ENDCHAR
STARTCHAR 02-83-13
ENCODING 29485
SWIDTH 960 0
DWIDTH 12 0
BBX 12 12 0 -2
BITMAP
0000
0200
3fe0
68b0
38f0
7000
1fe0
3600
6200
7ff0
0200
0200
ENDCHAR
STARTCHAR 02-83-14
ENCODING 29486
SWIDTH 960 0
DWIDTH 12 0
BBX 12 12 0 -2
BITMAP
0000
0200
3fe0
68b0
38f0
60e0
1fe0
1640
12c0
32e0
2fe0
6c30
ENDCHAR
STARTCHAR 02-83-15
ENCODING 29487
SWIDTH 960 0
DWIDTH 12 0
BBX 12 12 0 -2
BITMAP
0000
0200
3fe0
68b0
38f0
6200
1fc0
1fc0
3fe0
0200
1fc0
7ff0
ENDCHAR
STARTCHAR 02-83-16
ENCODING 29488
SWIDTH 960 0
DWIDTH 12 0
BBX 12 12 0 -2
BITMAP
0000
0200
3fe0
68b0
38f0
7fe0
3fe0
18c0
3de0
3fe0
7ff0
0200
ENDCHAR
STARTCHAR 02-83-17
ENCODING 29489
SWIDTH 960 0
DWIDTH 12 0
BBX 12 12 0 -2
BITMAP
0000
3fe0
7ff0
7cf0
7ff0
1fc0
7ff0
3ca0
3de0
3d40
3de0
2ca0
ENDCHAR
STARTCHAR 02-83-18
ENCODING 29490
SWIDTH 960 0
DWIDTH 12 0
BBX 12 12 0 -2
BITMAP
0000
3fe0
7ff0
78f0
7070
3ff0
7fc0
1fc0
3fc0
1f40
3ff0
35f0
ENDCHAR
STARTCHAR 02-83-19
ENCODING 29491
SWIDTH 960 0
DWIDTH 12 0
BBX 12 12 0 -2
BITMAP
0000
3fe0
7ff0
77f0
1fc0
3fc0
5fc0
3fe0
3fe0
3fe0
3ff0
03f0
ENDCHAR
STARTCHAR 02-83-20
ENCODING 29492
SWIDTH 960 0
DWIDTH 12 0
BBX 12 12 0 -2
BITMAP
0000
3fe0
7ff0
78f0
2bf0
6be0
3be0
0ff0
7be0
2bf0
6a30
6bf0
ENDCHAR
STARTCHAR 02-83-21
ENCODING 29493
SWIDTH 960 0
DWIDTH 12 0
BBX 12 12 0 -2
BITMAP
0000
3fe0
7ff0
7ef0
3680
3fe0
3fe0
3fe0
3fe0
7ff0
1ec0
7ef0
ENDCHAR
STARTCHAR 02-83-22
ENCODING 29494
SWIDTH 960 0
DWIDTH 12 0
BBX 12 12 0 -2
BITMAP
0000
3fe0
7ff0
78f0
70f0
7f80
3df0
3ff0
3ce0
7ec0
19e0
7730
ENDCHAR
ENDFONT
